<svg id="Capa_1" enable-background="new 0 0 511.739 511.739" height="512" viewBox="0 0 511.739 511.739" width="512" xmlns="http://www.w3.org/2000/svg"><g><g><g id="XMLID_171_"><g><path d="m424.856 180.303v262.01c0 13.98-11.33 25.31-25.31 25.31-6.99 0-13.31-2.83-17.89-7.41s-7.41-10.91-7.41-17.9v-67.65c0-10.58-8.58-19.15-19.16-19.15-5.29 0-10.08 2.14-13.54 5.61-3.47 3.46-5.61 8.25-5.61 13.54v15.39c0 12.14-9.85 21.98-21.99 21.98-6.07 0-11.57-2.46-15.55-6.44-3.98-3.97-6.44-9.47-6.44-15.54v-124.07l-93.32 66.64v147.86c0 13.12-10.64 23.76-23.77 23.76-6.56 0-12.5-2.66-16.8-6.96s-6.96-10.24-6.96-16.8v-80.48l-33.86-28.88v-65.58-227.35c0-39.04 31.65-70.69 70.7-70.69h115.6c39.04 0 70.7 31.65 70.7 70.69v62.65h50.61z" fill="#fddeb0"/></g></g><path d="m423.504 123.45c7.71-7.71 17.219-13.529 27.784-16.228 6.15-1.571 11.971-4.763 16.785-9.577 14.901-14.901 14.269-39.455-1.899-53.536-13.862-12.074-34.931-11.84-48.545.513-5.398 4.898-8.98 10.991-10.748 17.475-2.92 10.711-8.524 20.498-16.374 28.348l-31.036 27.816 35.017 35.779z" fill="#f3f0f3"/><path d="m121.259 425.695c-7.71 7.71-13.529 17.219-16.228 27.784-1.571 6.15-4.763 11.971-9.577 16.785-14.901 14.901-39.455 14.269-53.536-1.899-12.074-13.862-11.84-34.931.513-48.545 4.898-5.398 10.991-8.98 17.475-10.748 10.711-2.92 20.498-8.524 28.348-16.374l36.772-35.899 31.516 31.516z" fill="#f3f0f3"/><g><g id="XMLID_170_"><g><path d="m401.031 76.463c-2.835 5.104-6.36 9.817-10.524 13.982l-31.036 27.816 35.017 35.779 29.016-30.59c4.151-4.151 8.827-7.746 13.904-10.609z" fill="#e2dee2"/><path d="m88.254 392.698c-2.153 2.153-4.456 4.13-6.88 5.936l33.917 33.908c1.827-2.41 3.821-4.701 5.968-6.847l35.284-37.38-31.516-31.516z" fill="#e2dee2"/><path d="m374.246 78.193c0-6.385-.861-12.566-2.448-18.449-3.983-.876-8.085-1.341-12.262-1.341-15.112 0-29.318 5.884-40.002 16.567l-202.288 202.28v28.293 65.58l33.86 28.88v51.468c2.303.282 4.633.442 6.99.442 15.112 0 29.318-5.884 40.002-16.568l.538-.538v-102.184l93.32-66.64v75.504l132.9-132.9v-28.284-39.46h-50.61z" fill="#fdd79b"/><path d="m245.743 120.732c0-11.292-9.154-20.447-20.447-20.447-11.292 0-20.447 9.154-20.447 20.447v135.141h40.894z" fill="#fccd7f"/><path d="m424.856 128.573c14.29 14.29 14.29 37.45 0 51.73l-240.9 240.9c-14.28 14.28-37.44 14.28-51.72 0l-39.47-39.46c-14.28-14.28-14.28-37.44 0-51.73l240.91-240.9c14.28-14.28 37.44-14.28 51.72 0z" fill="#a6e7f0"/></g></g></g></g><g><path d="m486.268 70.237c-.425-12.348-5.812-23.635-15.167-31.784-16.822-14.653-41.977-14.389-58.511.614-6.261 5.682-10.737 12.962-12.944 21.057-2.173 7.972-6.051 15.322-11.278 21.533-2.086-1.81-4.312-3.409-6.658-4.779-.711-42.51-35.49-76.878-78.165-76.878h-115.603c-43.118 0-78.197 35.079-78.197 78.197v26.163c0 4.142 3.358 7.5 7.5 7.5s7.5-3.358 7.5-7.5v-26.163c0-34.847 28.35-63.197 63.197-63.197h115.603c32.562 0 59.445 24.756 62.831 56.434-2.244-.348-4.528-.531-6.842-.531-11.773 0-22.842 4.584-31.167 12.91l-35.55 35.55v-4.81c0-4.142-3.358-7.5-7.5-7.5s-7.5 3.358-7.5 7.5v19.81l-24.575 24.575v-38.206c0-15.41-12.537-27.947-27.947-27.947s-27.947 12.537-27.947 27.947v94.099l-72.605 72.605v-151.114c0-4.142-3.358-7.5-7.5-7.5s-7.5 3.358-7.5 7.5v166.114l-22.276 22.276c-8.325 8.325-12.91 19.393-12.91 31.167 0 10.784 3.857 20.971 10.902 29.005l-2.51 2.51c-6.854 6.854-15.505 11.847-25.018 14.441-8.094 2.207-15.375 6.683-21.057 12.944-15.003 16.534-15.267 41.688-.615 58.511 8.149 9.356 19.437 14.742 31.784 15.167.501.017 1.001.026 1.502.026 11.65 0 22.952-4.66 31.209-12.917 5.599-5.599 9.59-12.595 11.541-20.232 2.261-8.851 7.194-17.266 14.265-24.337l2.505-2.505c4.369 3.831 9.316 6.659 14.543 8.469v43.516c0 17.237 14.023 31.261 31.261 31.261s31.261-14.024 31.261-31.261v-69.601c0-.39-.039-.77-.096-1.144l14.535-14.535c2.929-2.929 2.929-7.678 0-10.606-2.929-2.929-7.678-2.929-10.606 0l-31.308 31.309c-11.336 11.337-29.782 11.337-41.12 0l-39.461-39.461c-5.492-5.492-8.516-12.793-8.516-20.56s3.024-15.068 8.516-20.56l240.9-240.9c5.492-5.492 12.793-8.516 20.56-8.516 7.766 0 15.068 3.024 20.56 8.516l39.461 39.461c11.336 11.337 11.336 29.783 0 41.12l-186.974 186.974c-2.929 2.929-2.929 7.678 0 10.606 2.929 2.929 7.678 2.929 10.606 0l41.268-41.268v58.736c0 16.26 13.228 29.488 29.488 29.488s29.488-13.228 29.488-29.488v-15.385c0-6.427 5.229-11.655 11.655-11.655s11.656 5.229 11.656 11.655v67.65c0 18.09 14.718 32.808 32.808 32.808s32.808-14.718 32.808-32.808v-171.172c0-4.142-3.358-7.5-7.5-7.5s-7.5 3.358-7.5 7.5v171.173c0 9.819-7.989 17.808-17.808 17.808s-17.808-7.989-17.808-17.808v-67.65c0-14.698-11.958-26.655-26.656-26.655s-26.655 11.958-26.655 26.655v15.385c0 7.989-6.499 14.488-14.488 14.488s-14.488-6.499-14.488-14.488v-73.736l117.904-117.903v40.769c0 4.142 3.358 7.5 7.5 7.5s7.5-3.358 7.5-7.5v-55.955c14.268-16.517 14.24-41.181-.085-57.665 6.289-5.367 13.424-9.167 20.871-11.07 7.638-1.952 14.634-5.942 20.231-11.541 8.612-8.612 13.311-20.534 12.892-32.711zm-297.006 356.27 1.87-1.87v55.841c0 8.966-7.295 16.261-16.261 16.261s-16.261-7.295-16.261-16.261v-41.094c11.114-.129 22.19-4.415 30.652-12.877zm-91.498 25.116c-1.285 5.029-3.917 9.641-7.614 13.337-5.766 5.767-13.413 8.801-21.588 8.507-8.147-.28-15.601-3.842-20.989-10.028-9.501-10.908-9.32-27.854.412-38.579 3.758-4.142 8.563-7.099 13.895-8.553 12.026-3.279 22.98-9.609 31.678-18.306l2.433-2.433 22.394 22.394-2.429 2.43c-8.974 8.973-15.265 19.773-18.192 31.231zm114.586-330.891c0-7.139 5.808-12.947 12.947-12.947s12.947 5.808 12.947 12.947v53.206l-25.894 25.894zm250.419-28.391c-3.695 3.696-8.307 6.329-13.337 7.614-9.994 2.553-19.486 7.667-27.703 14.885l-22.626-22.626c7.009-8.054 12.165-17.693 15.014-28.145 1.454-5.332 4.411-10.136 8.553-13.894 10.725-9.732 27.671-9.913 38.579-.412 6.186 5.388 9.748 12.842 10.028 20.989.28 8.156-2.741 15.823-8.508 21.589z"/><path d="m366.743 293.313v23.899c0 4.142 3.358 7.5 7.5 7.5s7.5-3.358 7.5-7.5v-23.899c0-4.142-3.358-7.5-7.5-7.5s-7.5 3.358-7.5 7.5z"/><path d="m285.318 84.989c4.142 0 7.5-3.358 7.5-7.5v-33.796c0-4.142-3.358-7.5-7.5-7.5s-7.5 3.358-7.5 7.5v33.796c0 4.142 3.358 7.5 7.5 7.5z"/></g></g></svg>