<svg id="Capa_1" enable-background="new 0 0 512.464 512.464" height="512" viewBox="0 0 512.464 512.464" width="512" xmlns="http://www.w3.org/2000/svg"><g><g><g><g><path d="m419.258 455.65c0 27.235-22.079 49.314-49.314 49.314h-228.424c-27.235 0-49.314-22.078-49.314-49.314v-398.836c0-27.235 22.079-49.314 49.314-49.314h228.425c27.235 0 49.314 22.079 49.314 49.314v398.836z" fill="#b5adb6"/></g><path d="m419.258 130.429h-327.052v145.719h129.664l11.488 18.357c4.856 7.759 13.22 12.392 22.374 12.392s17.518-4.632 22.375-12.393l11.488-18.356h129.664v-145.719z" fill="#a79ba7"/><path d="m419.258 322.979v-127.496c-6.526-2.125-13.482-3.289-20.708-3.289-36.964 0-67.037 30.072-67.037 67.037 0 36.964 30.072 67.036 67.037 67.036 7.226.001 14.182-1.163 20.708-3.288z" fill="#a79ba7"/><g><g><path d="m122.206 455.565c0 10.667 8.647 19.314 19.314 19.314h228.425c10.667 0 19.314-8.647 19.314-19.314v-398.836c0-10.667-8.647-19.314-19.314-19.314h-30.205c-4.466 0-8.524 2.595-10.397 6.649l-6.889 14.909c-2.843 4.726-7.955 7.616-13.47 7.616h-106.503c-5.515 0-10.627-2.89-13.47-7.616l-6.889-14.909c-1.873-4.054-5.932-6.649-10.397-6.649h-30.205c-10.667 0-19.314 8.647-19.314 19.314z" fill="#f9f7f8"/></g></g><path d="m389.258 192.854c-32.58 4.54-57.745 32.568-57.745 66.378s25.164 61.838 57.745 66.377z" fill="#efedef"/><path d="m389.258 130.429h-267.052v145.719h99.664l11.488 18.357c4.856 7.759 13.22 12.392 22.374 12.392s17.518-4.632 22.375-12.393l11.488-18.356h99.664v-145.719z" fill="#efedef"/><path d="m479.154 256.147c14.095 0 25.521-11.426 25.521-25.521v-54.677c0-14.095-11.426-25.521-25.521-25.521h-445.844c-14.095 0-25.521 11.426-25.521 25.521v54.677c0 14.095 11.426 25.521 25.521 25.521h194.449c3.227 0 6.227 1.662 7.94 4.397l14.612 23.349c2.505 4.003 8.337 4.003 10.842 0l14.612-23.349c1.712-2.736 4.712-4.397 7.94-4.397z" fill="#fd8087"/><path d="m306.894 420.694h-102.324c-5.318 0-9.629-4.311-9.629-9.629v-38.988c0-5.318 4.311-9.629 9.629-9.629h102.324c5.318 0 9.629 4.311 9.629 9.629v38.988c0 5.318-4.311 9.629-9.629 9.629z" fill="#efedef"/></g><circle cx="398.55" cy="259.231" fill="#a6e7f0" r="47.036"/></g><g><path d="m92.206 127.929c4.142 0 7.5-3.358 7.5-7.5v-63.615c0-23.056 18.757-41.814 41.814-41.814h228.425c23.056 0 41.814 18.758 41.814 41.814v63.615c0 4.142 3.358 7.5 7.5 7.5s7.5-3.358 7.5-7.5v-63.615c-.001-31.327-25.488-56.814-56.815-56.814h-228.424c-31.327 0-56.814 25.487-56.814 56.814v63.615c0 4.142 3.357 7.5 7.5 7.5z"/><path d="m419.258 325.917c-4.142 0-7.5 3.358-7.5 7.5v122.233c0 23.056-18.758 41.814-41.814 41.814h-228.424c-23.056 0-41.814-18.758-41.814-41.814v-44.113c0-4.142-3.358-7.5-7.5-7.5s-7.5 3.358-7.5 7.5v44.113c0 31.327 25.487 56.814 56.814 56.814h228.425c31.327 0 56.814-25.487 56.814-56.814v-122.233c-.001-4.142-3.359-7.5-7.501-7.5z"/><path d="m84.706 286.147v93.427c0 4.142 3.358 7.5 7.5 7.5s7.5-3.358 7.5-7.5v-93.427c0-4.142-3.358-7.5-7.5-7.5s-7.5 3.358-7.5 7.5z"/><path d="m122.206 278.647c-4.142 0-7.5 3.358-7.5 7.5v169.418c0 14.785 12.029 26.814 26.814 26.814h228.425c14.785 0 26.814-12.029 26.814-26.814v-120.94c0-4.142-3.358-7.5-7.5-7.5s-7.5 3.358-7.5 7.5v120.941c0 6.514-5.3 11.814-11.814 11.814h-228.425c-6.514 0-11.814-5.3-11.814-11.814v-169.419c0-4.142-3.358-7.5-7.5-7.5z"/><path d="m389.258 127.929c4.142 0 7.5-3.358 7.5-7.5v-63.7c0-14.785-12.029-26.814-26.814-26.814h-30.205c-7.363 0-14.117 4.319-17.205 11.003l-6.69 14.479c-1.511 2.286-4.108 3.693-6.861 3.693h-106.502c-2.752 0-5.35-1.407-6.861-3.693l-6.69-14.479c-3.089-6.684-9.842-11.003-17.206-11.003h-30.204c-14.785 0-26.814 12.029-26.814 26.814v63.699c0 4.142 3.358 7.5 7.5 7.5s7.5-3.358 7.5-7.5v-63.699c0-6.514 5.3-11.814 11.814-11.814h30.205c1.536 0 2.944.901 3.589 2.295l6.89 14.91c.114.247.241.487.381.72 4.174 6.939 11.798 11.25 19.896 11.25h106.502c8.098 0 15.722-4.311 19.896-11.25.14-.233.268-.474.381-.72l6.89-14.91c.645-1.394 2.053-2.295 3.589-2.295h30.205c6.514 0 11.814 5.3 11.814 11.814v63.699c0 4.143 3.358 7.501 7.5 7.501z"/><path d="m284.017 45c4.142 0 7.5-3.358 7.5-7.5s-3.358-7.5-7.5-7.5h-55.647c-4.142 0-7.5 3.358-7.5 7.5s3.358 7.5 7.5 7.5z"/><path d="m229.341 264.524 14.612 23.349c2.557 4.084 6.959 6.523 11.778 6.523s9.222-2.438 11.778-6.523l14.613-23.349c.343-.548.935-.876 1.582-.876h37.887c4.142 0 7.5-3.358 7.5-7.5s-3.358-7.5-7.5-7.5h-37.887c-5.85 0-11.194 2.96-14.297 7.918l-13.676 21.852-13.675-21.852c-3.103-4.958-8.448-7.919-14.297-7.919h-194.448c-9.937 0-18.021-8.084-18.021-18.021v-54.677c0-9.937 8.084-18.021 18.021-18.021h403.227c4.142 0 7.5-3.358 7.5-7.5s-3.358-7.5-7.5-7.5h-403.227c-18.208 0-33.021 14.813-33.021 33.021v54.677c0 18.208 14.813 33.021 33.021 33.021h194.449c.646 0 1.238.328 1.581.877z"/><path d="m479.153 142.929h-10.653c-4.142 0-7.5 3.358-7.5 7.5s3.358 7.5 7.5 7.5h10.653c9.937 0 18.021 8.084 18.021 18.021v54.677c0 9.937-8.084 18.021-18.021 18.021h-3.645c-4.142 0-7.5 3.358-7.5 7.5s3.358 7.5 7.5 7.5h3.645c18.208 0 33.021-14.813 33.021-33.021v-54.677c0-18.208-14.813-33.021-33.021-33.021z"/><path d="m442.03 292.105c6.933-9.148 11.056-20.536 11.056-32.873 0-30.072-24.465-54.537-54.536-54.537-30.072 0-54.537 24.465-54.537 54.537 0 30.071 24.465 54.536 54.537 54.536 12.337 0 23.726-4.123 32.873-11.056l21.139 21.139c1.464 1.464 3.384 2.197 5.303 2.197s3.839-.732 5.303-2.197c2.929-2.929 2.929-7.678 0-10.606zm-43.48 6.663c-21.801 0-39.537-17.736-39.537-39.536 0-21.801 17.736-39.537 39.537-39.537 21.8 0 39.536 17.736 39.536 39.537 0 21.8-17.735 39.536-39.536 39.536z"/><path d="m60.388 193.065c-4.142 0-7.5 3.358-7.5 7.5s3.358 7.5 7.5 7.5h6.347c4.142 0 7.5-3.358 7.5-7.5s-3.358-7.5-7.5-7.5z"/><path d="m119.032 193.065c-4.142 0-7.5 3.358-7.5 7.5s3.358 7.5 7.5 7.5h6.347c4.142 0 7.5-3.358 7.5-7.5s-3.358-7.5-7.5-7.5z"/><path d="m177.677 193.065c-4.142 0-7.5 3.358-7.5 7.5s3.358 7.5 7.5 7.5h6.347c4.142 0 7.5-3.358 7.5-7.5s-3.358-7.5-7.5-7.5z"/><path d="m236.322 193.065c-4.142 0-7.5 3.358-7.5 7.5s3.358 7.5 7.5 7.5h6.346c4.142 0 7.5-3.358 7.5-7.5s-3.358-7.5-7.5-7.5z"/><path d="m294.966 193.065c-4.142 0-7.5 3.358-7.5 7.5s3.358 7.5 7.5 7.5h6.347c4.142 0 7.5-3.358 7.5-7.5s-3.358-7.5-7.5-7.5z"/><path d="m204.57 369.948h63.465c4.142 0 7.5-3.358 7.5-7.5s-3.358-7.5-7.5-7.5h-63.465c-9.445 0-17.129 7.684-17.129 17.129v38.988c0 9.445 7.684 17.129 17.129 17.129h102.324c9.445 0 17.129-7.684 17.129-17.129v-38.988c0-9.445-7.684-17.129-17.129-17.129h-6.896c-4.142 0-7.5 3.358-7.5 7.5s3.358 7.5 7.5 7.5h6.896c1.174 0 2.129.955 2.129 2.129v38.988c0 1.174-.955 2.129-2.129 2.129h-102.324c-1.174 0-2.129-.955-2.129-2.129v-38.988c0-1.174.955-2.129 2.129-2.129z"/></g></g></svg>