<svg id="Capa_1" enable-background="new 0 0 512.464 512.464" height="512" viewBox="0 0 512.464 512.464" width="512" xmlns="http://www.w3.org/2000/svg"><g><g><g><path d="m420.139 455.65c0 27.235-22.078 49.314-49.314 49.314h-228.424c-27.235 0-49.314-22.078-49.314-49.314v-398.836c0-27.235 22.078-49.314 49.314-49.314h228.425c27.235 0 49.314 22.079 49.314 49.314v398.836z" fill="#b5adb6"/></g><path d="m420.139 95.469h-116.257c-31.665 0-57.426 25.761-57.426 57.426 0 30.181 23.404 54.999 53.016 57.259v3.677c0 12.171 9.907 22.073 22.084 22.073 5.881 0 11.417-2.296 15.591-6.468l19.113-19.115h63.879z" fill="#a79ba7"/><path d="m252.467 350.113v-118.509c0-31.856-25.917-57.773-57.774-57.773h-101.606v237.74h149.603c10.173 0 19.44-5.59 24.185-14.589s4.122-19.804-1.625-28.199z" fill="#a79ba7"/><g><g><path d="m390.139 455.565c0 10.667-8.647 19.314-19.314 19.314h-228.425c-10.667 0-19.314-8.647-19.314-19.314v-398.836c0-10.667 8.647-19.314 19.314-19.314h30.205c4.466 0 8.524 2.595 10.397 6.649l6.889 14.909c2.843 4.726 7.955 7.616 13.469 7.616h106.502c5.515 0 10.626-2.89 13.469-7.616l6.889-14.909c1.873-4.054 5.932-6.649 10.397-6.649h30.205c10.667 0 19.314 8.647 19.314 19.314v398.836z" fill="#f9f7f8"/></g></g><path d="m123.086 173.831v237.74h119.603c10.173 0 19.44-5.59 24.185-14.589s4.122-19.804-1.625-28.199l-12.783-18.67v-118.509c0-31.856-25.917-57.773-57.774-57.773z" fill="#efedef"/><path d="m390.139 95.469h-86.257c-31.665 0-57.426 25.761-57.426 57.426 0 30.181 23.404 54.999 53.016 57.259v3.677c0 12.171 9.907 22.073 22.084 22.073 5.881 0 11.417-2.296 15.591-6.468l19.113-19.115h33.879z" fill="#efedef"/><g fill="#a6e7f0"><path d="m467.437 115.469h-163.555c-20.67 0-37.426 16.756-37.426 37.426 0 20.67 16.756 37.426 37.426 37.426h15.59v23.509c0 1.843 2.229 2.767 3.532 1.463l24.973-24.973h119.461c20.67 0 37.426-16.756 37.426-37.426 0-20.669-16.757-37.425-37.427-37.425z"/><path d="m242.689 391.571h-197.315c-20.862 0-37.774-16.912-37.774-37.774v-122.192c0-20.862 16.912-37.774 37.774-37.774h149.319c20.862 0 37.774 16.912 37.774 37.774v124.699l16.28 23.779c3.336 4.871-.153 11.488-6.058 11.488z"/></g></g><g><path d="m93.087 171.331c4.142 0 7.5-3.358 7.5-7.5v-107.017c0-23.056 18.757-41.814 41.813-41.814h228.424c23.057 0 41.814 18.758 41.814 41.814v28.655c0 4.142 3.357 7.5 7.5 7.5s7.5-3.358 7.5-7.5v-28.655c.001-31.327-25.486-56.814-56.813-56.814h-228.425c-31.327 0-56.813 25.487-56.813 56.814v107.017c0 4.142 3.358 7.5 7.5 7.5z"/><path d="m420.139 212.821c-4.143 0-7.5 3.358-7.5 7.5v235.329c0 23.056-18.758 41.814-41.814 41.814h-228.425c-23.056 0-41.813-18.758-41.813-41.814v-34.079c0-4.142-3.358-7.5-7.5-7.5s-7.5 3.358-7.5 7.5v34.079c0 31.327 25.486 56.814 56.813 56.814h228.424c31.327 0 56.814-25.487 56.814-56.814v-235.329c.001-4.142-3.356-7.5-7.499-7.5z"/><path d="m390.139 92.969c4.143 0 7.5-3.358 7.5-7.5v-28.74c0-14.785-12.028-26.814-26.813-26.814h-30.205c-7.363 0-14.117 4.319-17.206 11.003l-6.69 14.479c-1.51 2.286-4.107 3.693-6.86 3.693h-106.503c-2.752 0-5.35-1.407-6.861-3.693l-6.69-14.479c-3.089-6.684-9.843-11.002-17.206-11.002h-30.205c-14.785 0-26.814 12.029-26.814 26.814v107.102c0 4.142 3.358 7.5 7.5 7.5s7.5-3.358 7.5-7.5v-107.103c0-6.514 5.3-11.814 11.814-11.814h30.205c1.536 0 2.945.901 3.589 2.295l6.889 14.91c.114.247.241.487.382.721 4.175 6.938 11.798 11.249 19.896 11.249h106.502c8.099 0 15.723-4.311 19.896-11.25.14-.233.268-.474.382-.72l6.89-14.91c.644-1.394 2.053-2.295 3.589-2.295h30.205c6.514 0 11.813 5.3 11.813 11.814v28.74c.001 4.142 3.359 7.5 7.501 7.5z"/><path d="m382.639 455.565c0 6.514-5.3 11.814-11.813 11.814h-228.426c-6.514 0-11.814-5.3-11.814-11.814v-33.995c0-4.142-3.358-7.5-7.5-7.5s-7.5 3.358-7.5 7.5v33.995c0 14.785 12.029 26.814 26.814 26.814h228.425c14.785 0 26.813-12.029 26.813-26.814v-34.795c0-4.142-3.357-7.5-7.5-7.5s-7.5 3.358-7.5 7.5v34.795z"/><path d="m390.139 396.308c4.143 0 7.5-3.358 7.5-7.5v-168.487c0-4.142-3.357-7.5-7.5-7.5s-7.5 3.358-7.5 7.5v168.486c0 4.143 3.358 7.501 7.5 7.501z"/><path d="m467.437 107.969h-5.613c-4.143 0-7.5 3.358-7.5 7.5s3.357 7.5 7.5 7.5h5.613c16.502 0 29.927 13.425 29.927 29.926s-13.425 29.926-29.927 29.926h-119.461c-1.989 0-3.896.79-5.304 2.197l-15.7 15.701v-10.398c0-4.142-3.357-7.5-7.5-7.5h-15.59c-16.501 0-29.926-13.425-29.926-29.926s13.425-29.926 29.926-29.926h125.979c4.143 0 7.5-3.358 7.5-7.5s-3.357-7.5-7.5-7.5h-125.979c-24.772 0-44.926 20.154-44.926 44.926s20.153 44.926 44.926 44.926h8.09v16.009c0 3.884 2.318 7.354 5.906 8.84 1.191.494 2.438.734 3.672.734 2.485 0 4.922-.973 6.758-2.808l22.774-22.776h116.354c24.772 0 44.927-20.154 44.927-44.926s-20.154-44.925-44.926-44.925z"/><path d="m255.817 391.151c2.576-4.885 2.238-10.75-.882-15.306l-14.969-21.863v-122.378c0-24.964-20.31-45.273-45.273-45.273h-149.319c-24.964 0-45.273 20.31-45.273 45.273v58.682c0 4.142 3.358 7.5 7.5 7.5s7.5-3.358 7.5-7.5v-58.682c0-16.693 13.581-30.273 30.273-30.273h149.319c16.693 0 30.273 13.581 30.273 30.273v124.699c0 1.512.457 2.989 1.312 4.237l16.109 23.531h-197.013c-16.693 0-30.273-13.581-30.273-30.273v-31.548c0-4.142-3.358-7.5-7.5-7.5s-7.5 3.358-7.5 7.5v31.548c0 24.964 20.31 45.273 45.273 45.273h197.315c5.522 0 10.553-3.035 13.128-7.92z"/></g></g></svg>