<svg id="Capa_1" enable-background="new 0 0 507.286 507.286" height="512" viewBox="0 0 507.286 507.286" width="512" xmlns="http://www.w3.org/2000/svg"><g><g><path d="m466.109 140.026 3.021-8.398-58.438-33.727-8.177 1.577-9.243-2.342 2.344-7.937-64.304-37.112-5.698 1.551-10.417-3.271 1.137-6.925-61.497-35.49c-1.07-.61-2.37-.61-3.43.01l-59.071 34.74 2.378 7.997-7.047 3.834-10.065-3.166-62.976 37.037 1.706 5.482-7.998 4.624-8.472-1.423-61.395 36.107 1.846 7.158-2.724 1.81 215.527 123.2 216.46-124.924c-2.024-.234-3.467-.412-3.467-.412z" fill="#fef056"/><path d="m280.309 456.022-7.629-168.51-19.563-22.15-4.85-18.377-188.391-101.265-16.932-4.313-12.646 4.162v61.399l5.338 4.761-.492 9.771-4.846 2.766v61.602l3.2 7.096-.605 9.811-2.594.323v67.874c0 1.22.66 2.35 1.72 2.95l60.527 34.6 1.929-2.711 12.038 8.501 1.033 2.785 63.149 36.099 3.846-2.381 9.448 6.541 1.706 4.414 65.723 37.571c.58.33 1.23.48 1.87.44l-.002-3.24z" fill="#a6e7f0"/><path d="m476.987 144.282-5.642-2.023-218.228 126.618.17 230.905c.53-.02 1.04-.17 1.52-.45l65.732-37.934 1.976-5.686 10.846-5.661 2.179 2.69 63.148-36.443 2.217-4.268 10.761-5.434 2.022 1.045 61.599-35.549c1.05-.61 1.7-1.73 1.7-2.94v-69.522l-2.375-.223-.708-12.599 3.083-4.576v-58.592l-1.775-.39-1.515-11.683 3.29-5.163z" fill="#fd8087"/><path d="m141.944 112.522c55.722-32.938 145.437-85.787 145.437-85.787l-32.544-18.783c-1.07-.61-2.37-.61-3.43.01l-59.071 34.74v6.122l-8.568 3.168-6.166-.625-62.976 37.037.273 4.358-7.039 5.401-7.998-1.077-61.395 36.107 3.75 7.184 215.339 120.566 28.13-15.775-143.368-81.943c-19.532-11.163-19.742-39.254-.374-50.703z" fill="#fee903"/></g><path d="m479.033 128.685-25.983-14.995c-3.587-2.072-8.174-.841-10.245 2.747-2.07 3.588-.841 8.174 2.747 10.245l16.428 9.481-55.791 32.198-60.018-34.68 55.587-32.273 15.132 8.733c3.585 2.069 8.173.842 10.245-2.747 2.07-3.588.841-8.174-2.747-10.245l-165.805-95.691c-3.395-1.96-7.601-1.942-10.976.044l-165.87 97.544c-3.57 2.1-4.763 6.696-2.663 10.267 1.397 2.376 3.901 3.7 6.472 3.699 1.292 0 2.601-.334 3.795-1.036l16.405-9.648 54.852 31.697-60.453 35.255-54.892-31.377 13.187-7.755c3.57-2.1 4.763-6.696 2.663-10.267-2.101-3.571-6.7-4.763-10.267-2.663l-22.661 13.327c-3.315 1.95-5.374 5.551-5.374 9.396v231.031c0 3.902 2.104 7.529 5.491 9.464l219.404 125.417c1.671.956 3.542 1.434 5.412 1.434 1.885 0 3.77-.485 5.448-1.455l220.476-127.242c3.363-1.94 5.453-5.559 5.453-9.441v-231.023c0-3.883-2.09-7.501-5.452-9.441zm-308.339 98.201v60.626l-63.149-36.098v-60.626zm298.791-17.151-55.797 32.202v-60.585l55.797-32.202zm-70.797 40.858-63.148 36.445v-60.585l63.148-36.445zm-153.071 19.121v60.626l-59.923-34.254v-60.626zm15 77.883 59.923-34.583v60.584l-59.923 34.583zm0-17.319v-60.585l59.923-34.583v60.585zm-7.518-73.564-59.881-34.229 60.087-34.886 59.738 34.52zm-160.554-13.874-54.743-31.293v-60.626l54.743 31.293zm-54.744-14.016 54.743 31.293v60.625l-54.743-31.292zm69.744 39.867 63.149 36.098v60.625l-63.149-36.098zm78.149 44.673 59.923 34.254v60.625l-59.923-34.254zm59.923 112.156v61.866l-59.923-34.253v-61.866zm15-.021 59.923-34.583v61.825l-59.923 34.583zm74.923-43.239 63.148-36.444v61.824l-63.148 36.445zm0-17.319v-60.584l63.148-36.445v60.584zm78.148-105.686 55.797-32.202v60.584l-55.797 32.202zm-22.497-82.238-63.149 36.445-59.782-34.546 62.958-36.552zm-137.903-6.753-62.813-36.297 62.815-36.632 62.955 36.377zm77.912-45.235-62.988-36.396 55.416-32.317 63.151 36.446zm-78.048-109.386 55.51 32.036-55.408 32.311-55.243-31.921zm-132.547 77.947 62.549-36.783 55.18 31.885-62.814 36.632zm54.949 49.078 62.779 36.278-60.168 34.933-62.984-36.003zm-137.753 164.059 54.743 31.293v12.635c0 4.142 3.357 7.5 7.5 7.5s7.5-3.358 7.5-7.5v-4.06l63.149 36.098v61.866l-63.149-36.098v-21.828c0-4.142-3.357-7.5-7.5-7.5s-7.5 3.358-7.5 7.5v13.254l-54.743-31.292zm375.887 92.256v-61.824l55.797-32.202v61.824z"/></g></svg>