<svg id="Capa_1" enable-background="new 0 0 502.312 502.312" height="512" viewBox="0 0 502.312 502.312" width="512" xmlns="http://www.w3.org/2000/svg"><g><g><g fill="#b5adb6"><path d="m346.76 494.812h-23.758c-2.255 0-4.084-1.828-4.084-4.084v-130.974h31.926v130.975c0 2.255-1.828 4.083-4.084 4.083z"/><path d="m358.283 253.95h31.926v112.198h-31.926z"/><path d="m481.538 77.393 3.82-3.82c10.37-10.37 10.66-27.1.66-37.83l-18.27-19.59c-10.51-11.26-28.27-11.57-39.17-.68l-21.225 25.069s44.846 63.015 45.076 61.865 29.109-25.014 29.109-25.014z"/></g><g><g id="XMLID_272_"><g><path d="m69.51 351.559-10.492 11.164-46.5 43.45c-4.38 4.1-4.81 10.9-.98 15.52l4.33 5.2c3.89 4.69 10.81 5.45 15.64 1.72l50.1-38.71 13.662-11.163z" fill="#d4f2f6"/><path d="m484.888 82.753-62.51-66.62c-3.94-4.19-10.52-4.41-14.72-.48l-29.09 27.18-3.391 36.981 41.436 43.282 33.095 1.277.01.01 33.95-26.24c4.87-3.77 5.44-10.91 1.22-15.39z" fill="#a6e7f0"/><path d="m155.257 277.632-26.139 6.481-70.2 65.6c-3.38 3.16-3.71 8.41-.75 11.98l.85 1.03 22.59 27.18 1.11 1.34c3.01 3.62 8.35 4.21 12.08 1.33l76.45-59.09 11.237-18.481z" fill="#a6e7f0"/><path d="m171.248 333.483c-2.28-.63-4.4-1.93-6.02-3.88l-33.65-40.51c-1.25-1.49-2.07-3.2-2.46-4.98-.93-4.04.28-8.43 3.5-11.44l245.95-229.84 71.14 81.54.01.01-267.94 207.04c-3.1 2.4-7.01 3.04-10.53 2.06z" fill="#f9f7f8"/></g></g><path d="m342.541 155.997c-45.818 0-83.094 37.276-83.094 83.094 0 9.985 1.773 19.564 5.016 28.44l125.258-96.788c-13.413-9.286-29.668-14.746-47.18-14.746z" fill="#efedef"/><circle cx="342.541" cy="239.091" fill="#d4f2f6" r="63.094"/><path d="m365.746 294.182c-34.846 0-63.094-28.248-63.094-63.094 0-23.251 12.611-43.571 31.333-54.516-30.784 4.189-54.538 30.586-54.538 62.519 0 34.846 28.248 63.094 63.094 63.094 11.595 0 22.494-3.148 31.831-8.606-2.809.382-5.713.603-8.626.603z" fill="#a6e7f0"/><circle cx="342.541" cy="239.091" fill="#b5adb6" r="29.04"/><path d="m318.918 359.754h31.926v43.688h-31.926z" fill="#a79ba7"/><path d="m390.209 310.569-31.926 7.236v48.343h31.926z" fill="#a79ba7"/><path d="m403.826 327.989-117.051 26.532c-2.983.676-5.101 3.328-5.101 6.387v15.986c0 3.617 2.932 6.549 6.549 6.549h117.051c3.617 0 6.549-2.932 6.549-6.549v-42.517c0-4.202-3.9-7.316-7.997-6.388z" fill="#d4f2f6"/></g></g><g><path d="m251.621 267.973-74.429 57.516c-1.92 1.484-4.64 1.185-6.193-.683l-33.653-40.504c-1.517-1.825-1.346-4.524.388-6.145l198.9-185.872c3.026-2.828 3.188-7.574.359-10.6-2.828-3.027-7.574-3.188-10.6-.359l-198.9 185.872c-4.003 3.74-6.066 8.805-6.152 13.919l-31.182 29.14c-3.026 2.828-3.188 7.574-.359 10.601 1.477 1.581 3.477 2.379 5.481 2.379 1.834 0 3.673-.669 5.119-2.02l27.086-25.311 31.335 37.713-68.612 53.02c-.534.413-1.289.329-1.72-.189l-24.554-29.552c-.421-.507-.374-1.256.107-1.706l13.001-12.149c3.026-2.829 3.188-7.574.359-10.601-2.828-3.027-7.574-3.188-10.6-.359l-13.001 12.149c-4.787 4.474-6.272 11.215-4.278 17.096l-42.124 39.365c-7.277 6.8-7.991 18.127-1.626 25.788l4.322 5.202c3.732 4.491 9.073 6.822 14.472 6.822 4.023 0 8.08-1.295 11.523-3.956l45.133-34.877c2.514 1.484 5.353 2.25 8.215 2.25 3.472 0 6.971-1.117 9.942-3.413l73.914-57.118c.382.022.763.062 1.145.062 4.165 0 8.361-1.34 11.925-4.095l74.428-57.515c3.278-2.533 3.881-7.243 1.349-10.521-2.533-3.278-7.242-3.881-10.52-1.349zm-224.704 154.707c-1.639 1.267-3.961 1.011-5.285-.583l-4.322-5.202c-1.294-1.557-1.149-3.86.33-5.243l40.692-38.026 12.537 15.089z"/><path d="m491.5 30.631-18.271-19.589c-6.483-6.952-15.289-10.871-24.793-11.037-8.714-.146-16.937 2.877-23.425 8.555-6.788-4.721-16.204-4.251-22.478 1.614l-52.759 49.303c-3.026 2.829-3.188 7.574-.359 10.601 2.828 3.027 7.574 3.187 10.6.359l18.064-16.881 60.752 69.749-45.438 35.112c-3.277 2.533-3.881 7.243-1.349 10.521 1.478 1.913 3.697 2.915 5.94 2.915 1.601 0 3.215-.511 4.581-1.566l85.684-66.213c3.99-3.083 6.508-7.734 6.91-12.76.372-4.661-1.125-9.279-4.094-12.86 12.893-13.324 13.129-34.213.435-47.823zm-29.24-9.358 18.271 19.589c7.03 7.537 7.063 18.993.279 26.577l-45.211-48.176c3.57-2.83 7.969-4.327 12.576-4.26 5.399.094 10.402 2.321 14.085 6.27zm17.947 68.846c-.039.482-.236 1.395-1.129 2.084l-28.357 21.913-61.676-70.809 23.729-22.174c1.177-1.101 3.033-1.04 4.136.135l62.513 66.613c.772.823.822 1.755.784 2.238z"/><path d="m342.541 202.551c-20.148 0-36.54 16.392-36.54 36.54s16.392 36.54 36.54 36.54 36.54-16.392 36.54-36.54c-.001-20.148-16.392-36.54-36.54-36.54zm0 58.08c-11.877 0-21.54-9.663-21.54-21.54s9.663-21.54 21.54-21.54 21.54 9.663 21.54 21.54c-.001 11.877-9.663 21.54-21.54 21.54z"/><path d="m414.041 323.399c-3.356-2.681-7.686-3.672-11.873-2.724l-4.459 1.011v-37.571c0-.327-.029-.648-.07-.964 9.685-12.086 15.497-27.403 15.497-44.06 0-38.925-31.668-70.594-70.594-70.594s-70.594 31.668-70.594 70.594 31.668 70.594 70.594 70.594c2.789 0 5.536-.181 8.242-.497v23.134l-65.666 14.884c-6.443 1.46-10.943 7.095-10.943 13.702v15.985c0 7.747 6.302 14.049 14.049 14.049h23.196v103.87c0 4.142 3.358 7.5 7.5 7.5s7.5-3.358 7.5-7.5v-103.87h16.926v16.223c0 4.142 3.358 7.5 7.5 7.5s7.5-3.358 7.5-7.5v-16.223h46.93c7.747 0 14.049-6.302 14.049-14.049v-42.517c-.003-4.295-1.927-8.296-5.284-10.977zm-127.094-84.308c0-30.654 24.939-55.594 55.594-55.594s55.594 24.939 55.594 55.594-24.939 55.594-55.594 55.594-55.594-24.939-55.594-55.594zm78.836 66.645c6.06-2.12 11.743-5.04 16.926-8.639v27.99l-16.926 3.836zm38.539 70.206h-115.148v-14.275l115.149-26.1v40.375z"/><path d="m350.844 431.627c-4.142 0-7.5 3.358-7.5 7.5v55.685c0 4.142 3.358 7.5 7.5 7.5s7.5-3.358 7.5-7.5v-55.685c0-4.142-3.358-7.5-7.5-7.5z"/></g></g></svg>