<svg id="Capa_1" enable-background="new 0 0 512.049 512.049" height="512" viewBox="0 0 512.049 512.049" width="512" xmlns="http://www.w3.org/2000/svg"><g><g><path d="m412.929 45.983h-315.086v434.809s316.965-1.879 315.086 0 0-434.809 0-434.809z" fill="#cbc4cc"/><path d="m222.546 228.99h65.681v68.636h-65.681z" fill="#e5e1e5"/><g><path d="m336.015 320.549h-161.258v-25.169c0-6.492 5.263-11.754 11.754-11.754h137.749c6.492 0 11.754 5.263 11.754 11.754v25.169z" fill="#a6e7f0"/><g><g><path d="m406.124 347.655c.355 0 .646.29.646.646v61.096c0 .295-.2.552-.486.625l-19.159 4.866-61.316 13.558 24.172 22.865 49.801-8.685 13.887-3.527c13.602-3.454 23.102-15.668 23.102-29.702v-61.096c0-16.898-13.747-30.646-30.646-30.646h-94.035v31.239z" fill="#efedef"/></g></g><g><g id="XMLID_275_"><g><path d="m356.386 342.367-6.38-8.04 5.4-14.71c1.26-3.43-1.28-7.07-4.93-7.07h-190.18c-3.65 0-6.19 3.64-4.93 7.07l5.4 14.71-6.38 8.04c-10.69 13.48-18.66 28.75-23.61 44.98l54.621 25.963h178.368l11.38-39.323c-4.769-11.27-11.059-21.91-18.759-31.62z" fill="#f9f7f8"/><path d="m182.046 380.713c4.95-16.23 12.92-31.5 23.61-44.98 3.963-4.994 5.04-11.69 2.843-17.675l-1.863-5.075c-.053-.145-.09-.291-.13-.436h-46.21c-3.65 0-6.19 3.64-4.93 7.07l5.4 14.71-6.38 8.04c-10.69 13.48-18.66 28.75-23.61 44.98l45.8 21.77c.822-9.669 2.65-19.192 5.47-28.404z" fill="#efedef"/><path d="m385.976 427.327v46.34h-261.18v-46.34c0-13.64 2.04-27.11 5.98-39.98l3.81-1.68 29.54-13.22c30.16-13.51 64.33-15.01 95.56-4.2l23.83 8.25c29.83 10.33 62.4 9.43 91.62-2.51h.01c7.1 16.76 10.83 34.89 10.83 53.34z" fill="#c68d7a"/></g></g></g><path d="m176.066 467.033v-46.34c0-13.64 2.04-27.11 5.98-39.98 1.698-5.567 3.752-11.022 6.148-16.329-8.213 1.882-16.271 4.571-24.068 8.063l-29.54 13.22-3.81 1.68c-3.94 12.87-5.98 26.34-5.98 39.98v46.34h261.18v-6.634z" fill="#bc7c63"/><g id="XMLID_277_"><g><path d="m413.936 24.807-12.07-14.09c-1.75-2.04-4.31-3.22-7-3.22h-278.96c-2.69 0-5.25 1.18-7 3.22l-12.07 14.09c-1.91 2.22-2.64 5.21-1.99 8.06l2.02 8.84 50.4 25.174h239.446l27.144-24.954 2.07-9.06c.65-2.85-.08-5.84-1.99-8.06z" fill="#a6e7f0"/><path d="m131.009 14.282c-.533-2.337-.124-4.762 1.089-6.786h-16.191c-2.69 0-5.25 1.18-7 3.22l-12.07 14.09c-1.91 2.22-2.64 5.21-1.99 8.06l2.02 8.84 45.625 22.789z" fill="#6bd9e7"/><path d="m413.856 41.927-42.76 186.98c-2.02 8.82-9.87 15.08-18.92 15.08h-193.58c-9.05 0-16.9-6.26-18.92-15.08l-42.81-187.2z" fill="#f9f7f8"/></g></g><path d="m371.898 225.403-.802 3.504c-2.018 8.823-9.868 15.08-18.919 15.08h-193.581c-9.05 0-16.9-6.26-18.92-15.08l-42.81-187.2 40.42.028 32.546 141.272c5.684 24.673 27.635 42.166 52.955 42.199z" fill="#efedef"/><path d="m408.85 442.777h-307.974c-13.545 0-24.525 10.98-24.525 24.525v27.388c0 5.445 4.414 9.859 9.859 9.859h337.306c5.445 0 9.859-4.414 9.859-9.859v-27.388c0-13.545-10.981-24.525-24.525-24.525z" fill="#a79ba7"/><path d="m328.861 125.991h-147.997c-5.186 0-9.39-4.204-9.39-9.39v-32.402c0-5.186 4.204-9.39 9.39-9.39h147.997c5.186 0 9.39 4.204 9.39 9.39v32.401c0 5.186-4.204 9.391-9.39 9.391z" fill="#d4f2f6"/><path d="m283.551 206.434h46.21c3.454 0 6.254-2.8 6.254-6.254v-23.63c0-3.454-2.8-6.254-6.254-6.254h-46.21c-3.454 0-6.254 2.8-6.254 6.254v23.631c0 3.453 2.8 6.253 6.254 6.253z" fill="#d4f2f6"/><path d="m169.895 207.517h12.819c-4.005-4.374-7.314-9.426-9.739-15h-3.08c-4.143 0-7.5 3.358-7.5 7.5s3.357 7.5 7.5 7.5z" fill="#efedef"/></g></g><g><path d="m442.296 497.049h-1.422v-29.747c0-10.798-5.377-20.358-13.589-26.162 10.389-6.921 16.984-18.699 16.984-31.743v-61.096c0-15.976-9.876-29.68-23.84-35.352v-17.179c0-4.142-3.357-7.5-7.5-7.5s-7.5 3.358-7.5 7.5v14.385h-44.771c-2.403-3.197-6.167-5.106-10.184-5.106h-6.959v-9.669c0-10.617-8.638-19.254-19.255-19.254h-28.533v-24.636h56.446c12.632 0 23.42-8.6 26.234-20.913l27.021-118.157v151.388c0 4.142 3.357 7.5 7.5 7.5s7.5-3.358 7.5-7.5v-216.978l2.812-12.294c1.176-5.144-.172-10.606-3.605-14.611l-12.07-14.084c-3.182-3.712-7.81-5.841-12.699-5.841h-278.959c-4.889 0-9.518 2.129-12.698 5.84l-12.072 14.084c-3.434 4.005-4.781 9.468-3.605 14.612l2.812 12.294v390.235c-12.499 4.367-21.492 16.268-21.492 30.237v29.806c-3.717.446-6.599 3.604-6.599 7.441 0 4.142 3.357 7.5 7.5 7.5h372.544c4.143 0 7.5-3.358 7.5-7.5s-3.358-7.5-7.501-7.5zm-68.191-141.894h25.164v48.91l-7.408 1.881c-2.696-17.863-8.734-35.138-17.756-50.791zm55.164-6.854v61.096c0 10.599-7.175 19.824-17.448 22.433l-13.572 3.447h-4.777v-7.954c0-2.094-.048-4.186-.14-6.274l14.8-3.759c3.613-.919 6.138-4.165 6.138-7.894v-61.096c0-4.491-3.654-8.146-8.146-8.146h-41.964c-.622-.821-1.253-1.636-1.894-2.444l-3.766-4.75 2.865-7.805h44.758c12.763 0 23.146 10.383 23.146 23.146zm-85.136-9.319 6.377 8.046c5.608 7.075 10.431 14.708 14.416 22.741-25.574 8.587-53.318 8.516-78.959-.36l-23.831-8.25c-33.156-11.477-69.052-9.9-101.076 4.438l-16.815 7.529c4.272-9.266 9.634-18.045 16.017-26.099l6.377-8.046c1.622-2.047 2.063-4.791 1.163-7.243l-4.291-11.69h183.75l-4.291 11.69c-.899 2.454-.459 5.197 1.163 7.244zm-15.618-43.602v9.669h-146.258v-9.669c0-2.346 1.909-4.254 4.255-4.254h36.033 65.682 36.033c2.346 0 4.255 1.909 4.255 4.254zm-47.788-19.254h-50.682v-24.636h50.682zm83.058-48.892c-1.246 5.45-6.021 9.256-11.611 9.256h-193.575c-5.591 0-10.365-3.806-11.611-9.257l-40.764-178.248h298.325zm-261.259-197.547 12.071-14.084h.001c.327-.382.805-.602 1.309-.602h278.959c.504 0 .981.219 1.31.602l12.071 14.085c.354.413.492.976.371 1.506l-.639 2.792h-305.186l-.638-2.792c-.121-.531.017-1.094.371-1.507zm29.839 200.89c2.814 12.313 13.603 20.914 26.234 20.914h56.446v24.636h-28.533c-10.617 0-19.255 8.638-19.255 19.254v9.669h-6.959c-4.165 0-8.074 2.039-10.459 5.453-2.384 3.415-2.951 7.788-1.517 11.699l3.949 10.759-3.766 4.75c-20.123 25.39-31.206 57.215-31.206 89.612v7.954h-11.957v-322.856zm-31.489 219.7h49.829c4.143 0 7.5-3.358 7.5-7.5s-3.357-7.5-7.5-7.5h-18.405v-7.954c0-11.724 1.622-23.363 4.74-34.573.204-.071.409-.145.61-.235l29.54-13.227c28.526-12.774 60.502-14.177 90.039-3.953l23.831 8.25c29.154 10.092 60.737 10.048 89.757.027 5.015 13.957 7.655 28.765 7.655 43.711v7.954h-195.804c-4.143 0-7.5 3.358-7.5 7.5s3.357 7.5 7.5 7.5h226.181c9.388 0 17.025 7.637 17.025 17.025v29.747h-342.023v-29.747c0-9.387 7.638-17.025 17.025-17.025z"/><path d="m328.861 67.309h-98.679c-4.143 0-7.5 3.358-7.5 7.5s3.357 7.5 7.5 7.5h98.679c1.043 0 1.891.848 1.891 1.89v32.402c0 1.042-.848 1.89-1.891 1.89h-147.996c-1.043 0-1.891-.848-1.891-1.89v-32.402c0-1.042.848-1.89 1.891-1.89h17.354c4.143 0 7.5-3.358 7.5-7.5s-3.357-7.5-7.5-7.5h-17.354c-9.313 0-16.891 7.577-16.891 16.89v32.402c0 9.313 7.577 16.89 16.891 16.89h147.996c9.313 0 16.891-7.577 16.891-16.89v-32.402c-.001-9.314-7.578-16.89-16.891-16.89z"/><path d="m329.761 162.796h-46.21c-7.584 0-13.754 6.17-13.754 13.754v23.631c0 7.584 6.17 13.754 13.754 13.754h46.21c7.584 0 13.754-6.17 13.754-13.754v-23.631c0-7.584-6.17-13.754-13.754-13.754zm-1.246 36.139h-43.718v-21.139h43.718z"/><path d="m190.498 177.796c4.143 0 7.5-3.358 7.5-7.5s-3.357-7.5-7.5-7.5h-5.742c-4.143 0-7.5 3.358-7.5 7.5s3.357 7.5 7.5 7.5z"/><path d="m233.053 177.796c4.143 0 7.5-3.358 7.5-7.5s-3.357-7.5-7.5-7.5h-5.742c-4.143 0-7.5 3.358-7.5 7.5s3.357 7.5 7.5 7.5z"/><path d="m247.914 192.517h-78.019c-4.143 0-7.5 3.358-7.5 7.5s3.357 7.5 7.5 7.5h78.019c4.143 0 7.5-3.358 7.5-7.5s-3.358-7.5-7.5-7.5z"/></g></g></svg>