<svg id="Capa_1" enable-background="new 0 0 512.918 512.918" height="512" viewBox="0 0 512.918 512.918" width="512" xmlns="http://www.w3.org/2000/svg"><g><g><path d="m474.086 91.71h-409.121l-36.876 17.86v317.5h457.74v-317.5z" fill="#f9f7f8"/><g><path d="m478.095 433.671h-443.272c-15.09 0-27.322-12.233-27.322-27.322v-3.948c0-2.943 2.386-5.329 5.329-5.329h487.26c2.943 0 5.329 2.386 5.329 5.329v3.948c-.001 15.089-12.234 27.322-27.324 27.322z" fill="#a79ba7"/><g id="XMLID_321_"><path d="m485.829 94.04v15.53h-170.45c-3.25 0-6.17 1.98-7.37 5l-3.03 7.6c-2.85 7.14-9.76 11.83-17.44 11.83h-61.16c-7.68 0-14.59-4.69-17.44-11.83l-3.03-7.6c-1.2-3.02-4.12-5-7.37-5h-170.45v-15.53c0-8.17 6.62-14.79 14.79-14.79h428.16c8.17 0 14.79 6.62 14.79 14.79z" fill="#a79ba7"/></g><g id="XMLID_327_"><g><path d="m75.059 323.15c-12.3-15.74-19.62-35.54-19.62-57.06 0-51.25 41.54-92.79 92.78-92.79 51.25 0 92.79 41.54 92.79 92.79 0 21.52-7.33 41.32-19.62 57.06-16.98 21.74-43.44 35.72-73.17 35.72-29.72 0-56.18-13.98-73.16-35.72z" fill="#a6e7f0"/></g></g><g><path d="m221.389 323.15c-16.98 21.74-43.44 35.72-73.17 35.72-29.72 0-56.18-13.98-73.16-35.72.27-25.57 13.66-47.99 33.76-60.86l20.04-8.64h44l14.77 8.64c20.1 12.87 33.49 35.29 33.76 60.86z" fill="#baafb9"/></g><path d="m149.891 253.65h-21.032l-20.04 8.64c-20.1 12.87-33.49 35.29-33.76 60.86 6.73 8.616 14.953 16.008 24.274 21.799.535-25.24 13.847-47.333 33.739-60.07l16.818-7.251v-23.978z" fill="#aa9ea9"/><g id="XMLID_323_"><g><path d="m148.219 174.05c29.23 0 52.93 23.7 52.93 52.92 0 29.23-23.7 52.93-52.93 52.93-29.22 0-52.92-23.7-52.92-52.93 0-29.22 23.7-52.92 52.92-52.92z" fill="#d7d0d6"/></g></g><g id="XMLID_329_"><g><path d="m438.859 323.15c12.3-15.74 19.62-35.54 19.62-57.06 0-51.25-41.54-92.79-92.78-92.79-51.25 0-92.79 41.54-92.79 92.79 0 21.52 7.33 41.32 19.62 57.06 16.98 21.74 43.44 35.72 73.17 35.72 29.72 0 56.18-13.98 73.16-35.72z" fill="#a6e7f0"/></g></g><g><path d="m438.859 323.15c-16.98 21.74-43.44 35.72-73.16 35.72-29.73 0-56.19-13.98-73.17-35.72.27-25.57 13.66-47.99 33.76-60.86l21.92-14.22h34.28l22.61 14.22c20.1 12.87 33.49 35.29 33.76 60.86z" fill="#baafb9"/></g><path d="m373.195 248.07h-24.986l-21.92 14.22c-20.1 12.87-33.49 35.29-33.76 60.86 6.822 8.734 15.177 16.212 24.656 22.038 1.289-24.252 14.383-45.367 33.651-57.705l21.92-14.22h.438v-25.193z" fill="#aa9ea9"/><circle cx="365.694" cy="226.973" fill="#d7d0d6" r="52.923"/><g fill="#c9bfc8"><path d="m125.021 226.97c0-24.06 16.129-44.367 38.116-50.793-4.717-1.378-9.756-2.127-14.918-2.127-29.22 0-52.92 23.7-52.92 52.92 0 29.23 23.7 52.93 52.92 52.93 5.162 0 10.201-.749 14.918-2.128-21.988-6.426-38.116-26.734-38.116-50.802z"/><path d="m342.493 226.973c0-24.067 16.101-44.38 38.092-50.804-4.716-1.378-9.729-2.119-14.891-2.119-29.229 0-52.923 23.694-52.923 52.923s23.694 52.923 52.923 52.923c5.161 0 10.217-.754 14.934-2.132-21.991-6.423-38.135-26.723-38.135-50.791z"/></g></g></g><g><path d="m505.418 389.572h-12.085v-24.372c0-4.142-3.357-7.5-7.5-7.5s-7.5 3.358-7.5 7.5v24.372h-394.376c-4.143 0-7.5 3.358-7.5 7.5s3.357 7.5 7.5 7.5h413.961v1.776c0 10.93-8.893 19.822-19.822 19.822h-443.274c-10.93 0-19.822-8.892-19.822-19.822v-1.776h36.994c4.143 0 7.5-3.358 7.5-7.5s-3.357-7.5-7.5-7.5h-16.409v-272.498h162.957c.178 0 .335.107.401.272l3.03 7.604c4.006 10.052 13.587 16.547 24.408 16.547h61.154c10.821 0 20.402-6.495 24.408-16.547l3.03-7.604c.066-.165.224-.272.401-.272h162.957v216.164c0 4.142 3.357 7.5 7.5 7.5s7.5-3.358 7.5-7.5v-239.198c0-12.292-10.001-22.293-22.293-22.293h-21.932c-4.143 0-7.5 3.358-7.5 7.5s3.357 7.5 7.5 7.5h21.932c4.021 0 7.293 3.271 7.293 7.293v8.034h-162.955c-6.355 0-11.982 3.814-14.335 9.718l-3.03 7.604c-1.72 4.314-5.831 7.101-10.475 7.101h-61.154c-4.644 0-8.755-2.787-10.475-7.101l-3.03-7.604c-2.353-5.904-7.979-9.718-14.335-9.718h-162.957v-8.034c0-4.021 3.271-7.293 7.293-7.293h374.268c4.143 0 7.5-3.358 7.5-7.5s-3.357-7.5-7.5-7.5h-374.268c-12.292 0-22.293 10-22.293 22.293v295.532h-13.085c-4.143 0-7.5 3.358-7.5 7.5v9.276c0 19.201 15.621 34.822 34.822 34.822h443.273c19.201 0 34.822-15.621 34.822-34.822v-9.276c.001-4.142-3.356-7.5-7.499-7.5z"/><path d="m253.143 100.074c-4.143 0-7.5 3.358-7.5 7.5s3.357 7.5 7.5 7.5h5.674c4.143 0 7.5-3.358 7.5-7.5s-3.357-7.5-7.5-7.5z"/><path d="m148.224 165.796c-55.299 0-100.288 44.989-100.288 100.289 0 55.299 44.989 100.288 100.288 100.288 34.157 0 64.375-17.169 82.492-43.326h52.486c18.117 26.157 48.335 43.326 82.492 43.326 55.299 0 100.288-44.989 100.288-100.288s-44.989-100.289-100.288-100.289-100.288 44.989-100.288 100.289c0 14.974 3.304 29.189 9.213 41.962h-35.321c5.909-12.773 9.213-26.988 9.213-41.962.001-55.299-44.989-100.289-100.287-100.289zm217.47 185.577c-25.152 0-47.788-10.95-63.412-28.326h45.305l-.805.805c-2.929 2.929-2.929 7.678.001 10.606 1.464 1.465 3.384 2.197 5.303 2.197s3.839-.732 5.304-2.197l13.607-13.608c2.929-2.929 2.929-7.678 0-10.606l-13.607-13.607c-2.93-2.929-7.678-2.929-10.607 0s-2.929 7.678 0 10.606l.804.804h-45.616c3.532-14.218 11.753-26.906 23.522-36.016 10.689 9.547 24.776 15.365 40.201 15.365 15.429 0 29.519-5.82 40.208-15.371 15.128 11.711 24.39 29.342 25.367 48.525-15.656 18.819-39.238 30.823-65.575 30.823zm0-169.823c25.046 0 45.423 20.377 45.423 45.423s-20.377 45.423-45.423 45.423-45.423-20.376-45.423-45.423 20.377-45.423 45.423-45.423zm85.288 84.535c0 12.673-2.799 24.698-7.779 35.521-4.607-16.042-14.117-30.34-27.42-40.872 6.522-9.645 10.334-21.266 10.334-33.76 0-9.584-2.253-18.649-6.242-26.708 18.985 15.655 31.107 39.348 31.107 65.819zm-139.469-65.819c-3.989 8.059-6.242 17.123-6.242 26.708 0 12.49 3.809 24.106 10.327 33.75-13.299 10.529-22.814 24.824-27.423 40.861-4.974-10.817-7.769-22.834-7.769-35.499 0-26.472 12.123-50.165 31.107-65.82zm-78.001 65.819c0 12.664-2.795 24.68-7.768 35.497-4.609-16.035-14.128-30.327-27.427-40.855 6.519-9.644 10.33-21.262 10.33-33.754 0-9.584-2.253-18.649-6.242-26.708 18.984 15.656 31.107 39.349 31.107 65.82zm-130.711-39.111c0-25.046 20.377-45.423 45.423-45.423s45.423 20.377 45.423 45.423-20.377 45.423-45.423 45.423-45.423-20.377-45.423-45.423zm-8.758-26.708c-3.989 8.059-6.242 17.123-6.242 26.708 0 12.489 3.809 24.105 10.326 33.749-13.298 10.529-22.815 24.821-27.424 40.857-4.972-10.816-7.767-22.831-7.767-35.494 0-26.472 12.122-50.165 31.107-65.82zm54.181 151.107c-26.337 0-49.919-12.004-65.576-30.823.978-19.183 10.243-36.811 25.372-48.521 10.689 9.549 24.777 15.367 40.204 15.367 15.424 0 29.51-5.817 40.199-15.363 11.77 9.109 19.992 21.796 23.524 36.013h-45.616l.804-.804c2.929-2.929 2.929-7.678 0-10.606-2.93-2.929-7.678-2.929-10.607 0l-13.607 13.607c-2.929 2.929-2.929 7.677 0 10.606l13.607 13.608c1.465 1.465 3.384 2.197 5.304 2.197 1.919 0 3.839-.732 5.303-2.197 2.93-2.929 2.93-7.677.001-10.606l-.805-.805h45.305c-15.625 17.377-38.261 28.327-63.412 28.327z"/></g></g></svg>