<svg id="Capa_1" enable-background="new 0 0 511.313 511.313" height="512" viewBox="0 0 511.313 511.313" width="512" xmlns="http://www.w3.org/2000/svg"><g><path d="m456.788 201.61h-54.04c-32.96 0-63.03-18.8-77.46-48.43l-29.42-60.41c-25.41-52.17-78.35-85.27-136.37-85.27-41.89 0-79.81 16.98-107.26 44.43s-44.43 65.37-44.43 107.26v338.5c0 3.38 2.74 6.12 6.12 6.12h35.05v-12.69h411.72v12.691h36.68c3.39 0 6.13-2.74 6.13-6.12v-249.36c0-25.801-20.92-46.721-46.72-46.721z" fill="#b5adb6"/><g><path d="m448.876 292.53h-292.899c-48.546 0-87.901-39.355-87.901-87.901v-24.822c0-41.89 16.98-79.81 44.43-107.26s65.37-44.43 107.26-44.43c6.013 0 11.999.369 17.877 1.064-23.155-13.915-50.065-21.681-78.145-21.681-41.89 0-79.81 16.98-107.26 44.43s-44.43 65.37-44.43 107.26v338.5c0 3.38 2.74 6.12 6.12 6.12h35.05v-20.728h411.72v20.728h20v-179.458c0-17.575-14.247-31.822-31.822-31.822z" fill="#a79ba7"/><path d="m448.877 312.53h-21.183v.002l-4.215 6.592h-28.492l-7.605-6.592v-.002h-58.799v.002l-3.224 8.899h-30.264l-6.824-8.899v-.002h-65.865v.002l-4.944 9.078h-26.251l-9.118-9.078v-.002h-58.799v.002l-4.479 7.648h-27.753l-8.08-7.648v-.002h-22.183c-6.529 0-11.821 5.292-11.821 11.821v179.459h411.72v-179.459c0-6.528-5.293-11.821-11.821-11.821z" fill="#f9f7f8"/><g fill="#a79ba7"><path d="m115.284 413.727h-24.292c-4.424 0-8.01-3.586-8.01-8.01v-93.187h40.312v93.186c0 4.425-3.586 8.011-8.01 8.011z"/><path d="m214.395 413.727h-24.292c-4.424 0-8.01-3.586-8.01-8.01v-93.187h40.312v93.186c0 4.425-3.586 8.011-8.01 8.011z"/><path d="m395.392 413.723h24.292c4.424 0 8.01-3.586 8.01-8.01v-93.186h-40.312v93.186c0 4.424 3.586 8.01 8.01 8.01z"/><path d="m296.28 413.729h24.292c4.424 0 8.01-3.586 8.01-8.01v-93.186h-40.312v93.186c0 4.424 3.587 8.01 8.01 8.01z"/></g></g><path d="m456.784 194.112h-13.108c-4.142 0-7.5 3.357-7.5 7.5s3.358 7.5 7.5 7.5h13.108c21.627 0 39.223 17.595 39.223 39.223v247.979h-27.806v-127.101c0-4.143-3.358-7.5-7.5-7.5s-7.5 3.357-7.5 7.5v127.101h-38.163v-75.084h4.646c8.552 0 15.51-6.958 15.51-15.511v-85.687h18.007v17.219c0 4.143 3.358 7.5 7.5 7.5s7.5-3.357 7.5-7.5v-24.719c0-4.143-3.358-7.5-7.5-7.5h-411.726c-4.142 0-7.5 3.357-7.5 7.5v126.708c0 4.143 3.358 7.5 7.5 7.5s7.5-3.357 7.5-7.5v-119.208h19.007v85.687c0 8.553 6.958 15.511 15.51 15.511h4.646v75.084h-39.163v-25.111c0-4.143-3.358-7.5-7.5-7.5s-7.5 3.357-7.5 7.5v25.111h-26.168v-337.127c0-79.505 64.682-144.187 144.186-144.187 27.063 0 53.496 7.584 76.442 21.932s41.338 34.792 53.188 59.123l29.42 60.408c7.697 15.804 19.644 29.084 34.549 38.403 14.905 9.32 32.075 14.246 49.654 14.246h8.967c4.142 0 7.5-3.357 7.5-7.5s-3.358-7.5-7.5-7.5h-8.967c-29.877 0-57.635-17.356-70.717-44.218l-29.42-60.408c-13.082-26.861-33.388-49.433-58.721-65.273-25.333-15.84-54.517-24.213-84.395-24.213-87.775 0-159.186 71.411-159.186 159.187v338.502c0 7.513 6.112 13.625 13.625 13.625h483.45c7.513 0 13.625-6.112 13.625-13.625v-249.354c-.001-29.898-24.325-54.223-54.223-54.223zm-36.59 211.607c0 .281-.229.511-.51.511h-24.292c-.281 0-.51-.229-.51-.511v-85.686h25.312zm-24.802 15.51h4.646v75.084h-34.871v-176.281h14.714v85.687c.001 8.552 6.958 15.51 15.511 15.51zm-205.289-15c-.281 0-.51-.229-.51-.511v-85.686h25.312v85.686c0 .281-.229.511-.51.511zm0 15h4.646v75.084h-34.241v-176.281h14.085v85.687c0 8.552 6.958 15.51 15.51 15.51zm19.647 0h4.646c8.552 0 15.51-6.958 15.51-15.511v-85.687h18.251v176.281h-38.407zm53.407-101.197h17.614v85.687c0 8.553 6.958 15.511 15.51 15.511h4.646v75.084h-37.77zm33.123 86.197c-.281 0-.51-.229-.51-.511v-85.686h25.312v85.686c0 .281-.229.511-.51.511zm19.646 15h4.646c8.552 0 15.51-6.958 15.51-15.511v-85.687h14.085v176.281h-34.241zm-225.444-15.51v-85.686h25.312v85.686c0 .281-.229.511-.51.511h-24.292c-.282-.001-.51-.23-.51-.511zm20.156 15.51h4.646c8.552 0 15.51-6.958 15.51-15.511v-85.687h14.714v176.281h-34.871v-75.083z"/></g></svg>