<svg id="Capa_1" enable-background="new 0 0 514.373 514.373" height="512" viewBox="0 0 514.373 514.373" width="512" xmlns="http://www.w3.org/2000/svg"><g><g><path d="m234.006 281.64h45.275v59.401h-45.275z" fill="#e2dee2"/><path d="m191.904 460.601c-4.265 0-7.722-3.457-7.722-7.722v-16.25c0-4.265 3.457-7.722 7.722-7.722h36.731v31.695h-36.731z" fill="#918291"/><g><path d="m462.368 295.64h-410.363c-24.579 0-44.505-19.926-44.505-44.505v-197.6c0-24.579 19.925-44.505 44.505-44.505h410.363c24.579 0 44.505 19.926 44.505 44.505v197.599c0 24.58-19.925 44.506-44.505 44.506z" fill="#b5adb6"/><path d="m462.368 39.03h-410.363c-8.011 0-14.505 6.494-14.505 14.505v31.493c0 1.73.969 3.314 2.508 4.102l14.666 7.506c5.979 2.892 9.778 8.949 9.778 15.592v80.216c0 6.642-3.799 12.699-9.778 15.592l-14.666 7.506c-1.54.788-2.508 2.372-2.508 4.102v31.492c0 8.011 6.494 14.505 14.505 14.505h410.363c8.011 0 14.505-6.494 14.505-14.505v-197.6c0-8.012-6.494-14.506-14.505-14.506z" fill="#f9f7f8"/><path d="m293.801 329.041c5.119 0 9.269 4.15 9.269 9.269v17.596c0 5.374-3.01 10.295-7.794 12.743l-10.824 5.539v13.669c0 3.797 1.508 7.438 4.193 10.122l8.882 8.882c2.685 2.685 4.193 6.326 4.193 10.122v68.414c0 11.016-8.93 19.945-19.945 19.945h-51.26c-11.015 0-19.945-8.93-19.945-19.945v-68.414c0-3.797 1.508-7.438 4.193-10.122l8.882-8.882c2.685-2.685 4.193-6.326 4.193-10.122v-13.669l-10.824-5.539c-4.784-2.448-7.794-7.369-7.794-12.743v-17.596c0-5.119 4.15-9.269 9.269-9.269z" fill="#a79ba7"/><circle cx="256.144" cy="463.114" fill="#918291" r="12.82"/><path d="m303.805 162.997c21.813 21.813 34.067 51.397 34.067 82.244v20.398h-161.371v-20.398c0-30.848 12.254-60.432 34.067-82.244l38.576-38.446h23.529z" fill="#6bd9e7"/><path d="m215.105 247.546c0-30.848 12.254-60.432 34.067-82.244l31.266-31.161-7.766-9.59h-23.529l-38.575 38.446c-21.813 21.813-34.067 51.397-34.067 82.244v20.398h38.604z" fill="#2ed1e2"/><circle cx="257.187" cy="134.761" fill="#d4f2f6" r="54.495"/><path d="m234.006 134.761c0-24.653 16.391-45.479 38.854-52.207-4.96-1.486-10.229-2.287-15.673-2.287-30.097 0-54.495 24.398-54.495 54.495s24.398 54.495 54.495 54.495c5.444 0 10.732-.807 15.692-2.293-22.464-6.73-38.873-27.55-38.873-52.203z" fill="#a6e7f0"/></g></g><g><path d="m462.368 1.53h-339.751c-4.142 0-7.5 3.357-7.5 7.5s3.358 7.5 7.5 7.5h339.751c20.404 0 37.005 16.601 37.005 37.005v197.6c0 20.405-16.601 37.006-37.005 37.006h-410.363c-20.404-.001-37.005-16.601-37.005-37.007v-197.6c0-20.404 16.601-37.004 37.005-37.004h38.649c4.142 0 7.5-3.357 7.5-7.5s-3.358-7.5-7.5-7.5h-38.649c-28.676 0-52.005 23.329-52.005 52.005v197.6c0 28.676 23.329 52.006 52.005 52.006h174.501v18.4h-8.021c-9.246 0-16.769 7.522-16.769 16.77v17.596c0 8.229 4.551 15.67 11.877 19.42l6.741 3.449v9.082c0 1.82-.709 3.531-1.996 4.818l-8.882 8.882c-4.12 4.12-6.389 9.599-6.389 15.426v4.424h-11.164c-8.394 0-15.222 6.829-15.222 15.223v16.249c0 8.394 6.829 15.223 15.222 15.223h11.164v17.297c0 15.134 12.312 27.445 27.445 27.445h51.26c15.134 0 27.445-12.312 27.445-27.445v-11.938c0-4.143-3.357-7.5-7.5-7.5s-7.5 3.357-7.5 7.5v11.938c0 6.862-5.583 12.445-12.445 12.445h-51.26c-6.862 0-12.445-5.583-12.445-12.445v-68.415c0-1.82.709-3.532 1.996-4.818l8.882-8.882c4.121-4.121 6.39-9.599 6.39-15.426v-13.669c0-2.815-1.577-5.395-4.083-6.677l-10.824-5.539c-2.289-1.171-3.711-3.496-3.711-6.066v-17.598c0-.976.793-1.77 1.769-1.77h75.316c.976 0 1.769.794 1.769 1.77v17.596c0 2.57-1.422 4.896-3.711 6.066l-10.824 5.539c-2.506 1.283-4.083 3.861-4.083 6.677v13.669c0 5.827 2.269 11.306 6.389 15.426l8.882 8.882c1.287 1.286 1.996 2.998 1.996 4.818v24.514c0 4.143 3.357 7.5 7.5 7.5s7.5-3.357 7.5-7.5v-24.514c0-5.827-2.269-11.306-6.389-15.426l-8.882-8.882c-1.287-1.286-1.996-2.998-1.996-4.818v-9.082l6.741-3.449c7.326-3.749 11.877-11.19 11.877-19.42v-17.596c0-9.247-7.522-16.77-16.769-16.77h-7.021v-18.4h175.587c28.676 0 52.005-23.33 52.005-52.006v-197.6c0-28.675-23.329-52.004-52.005-52.004zm-270.464 451.571c-.123 0-.222-.1-.222-.223v-16.249c0-.123.1-.223.222-.223h11.164v16.694h-11.164zm79.877-131.56h-30.275v-18.4h30.275z"/><path d="m441.836 273.139h20.532c12.134 0 22.005-9.871 22.005-22.005v-197.6c0-12.134-9.871-22.005-22.005-22.005h-410.363c-12.133.001-22.005 9.872-22.005 22.006v31.492c0 4.567 2.525 8.697 6.591 10.779l14.666 7.506c.05.025.1.05.151.075 3.368 1.629 5.544 5.099 5.544 8.84v80.216c0 3.741-2.176 7.211-5.544 8.84-.051.024-.101.05-.151.075l-14.665 7.506c-4.066 2.081-6.592 6.211-6.592 10.778v31.492c0 12.134 9.872 22.005 22.005 22.005h357.869c4.143 0 7.5-3.357 7.5-7.5s-3.357-7.5-7.5-7.5h-64.502v-12.897c0-31.191-11.469-60.611-32.391-83.476 3.969-8.168 6.2-17.33 6.2-27.005 0-34.185-27.811-61.995-61.995-61.995s-61.995 27.811-61.995 61.995c0 9.672 2.229 18.832 6.197 26.997-20.923 22.865-32.387 52.29-32.387 83.483v12.897h-116.996c-3.862 0-7.005-3.143-7.005-7.005v-29.723l13.023-6.666c8.464-4.135 13.929-12.879 13.929-22.303v-80.216c0-9.425-5.465-18.169-13.931-22.304l-13.021-6.662v-29.724c0-3.862 3.143-7.005 7.005-7.005h410.363c3.862 0 7.005 3.143 7.005 7.005v197.6c0 3.862-3.143 7.005-7.005 7.005h-20.532c-4.143 0-7.5 3.357-7.5 7.5s3.357 7.499 7.5 7.499zm-184.649-185.373c25.913 0 46.995 21.082 46.995 46.995s-21.082 46.994-46.995 46.994-46.995-21.081-46.995-46.994 21.081-46.995 46.995-46.995zm-73.186 157.476c0-26.108 9.139-50.809 25.893-70.459 11.381 13.427 28.353 21.973 47.292 21.973 18.94 0 35.912-8.546 47.293-21.974 16.755 19.652 25.892 44.353 25.892 70.46v12.897h-146.37z"/><path d="m36.5 182.667c4.142 0 7.5-3.357 7.5-7.5v-45.663c0-4.143-3.358-7.5-7.5-7.5s-7.5 3.357-7.5 7.5v45.663c0 4.142 3.358 7.5 7.5 7.5z"/><path d="m235.824 463.114c0 11.205 9.115 20.32 20.32 20.32s20.32-9.115 20.32-20.32-9.115-20.32-20.32-20.32c-11.205-.001-20.32 9.115-20.32 20.32zm20.32-5.321c2.934 0 5.32 2.387 5.32 5.32s-2.387 5.32-5.32 5.32-5.32-2.387-5.32-5.32 2.386-5.32 5.32-5.32z"/><path d="m264.144 423.259v-20.811c0-4.143-3.357-7.5-7.5-7.5-4.142 0-7.5 3.357-7.5 7.5v20.811c0 4.143 3.358 7.5 7.5 7.5s7.5-3.357 7.5-7.5z"/><path d="m359.234 71.563c-4.143 0-7.5 3.357-7.5 7.5s3.357 7.5 7.5 7.5h6.127c4.143 0 7.5-3.357 7.5-7.5s-3.357-7.5-7.5-7.5z"/><path d="m442.258 79.063c0-4.143-3.357-7.5-7.5-7.5h-40.66c-4.143 0-7.5 3.357-7.5 7.5s3.357 7.5 7.5 7.5h40.66c4.142 0 7.5-3.357 7.5-7.5z"/></g></g></svg>