<svg id="Capa_1" enable-background="new 0 0 502.223 502.223" height="512" viewBox="0 0 502.223 502.223" width="512" xmlns="http://www.w3.org/2000/svg"><g><g><g id="XMLID_341_"><g><path d="m474.788 405.002-32.38-14.85-55.43-55.44c-.97-.96-1.13-2.47-.4-3.63 19.11-30.58 28.19-66.21 27.46-102.64l-29.017-36.409-187.292 156.391 30.698 65.629c36.43.73 72.06-8.35 102.64-27.46 1.16-.73 2.67-.57 3.63.4l55.44 55.43 14.85 32.38c9.92 21.63 38.36 26.74 55.19 9.92l24.53-24.53c16.821-16.831 11.711-45.271-9.919-55.191z" fill="#fdd79b"/><path d="m414.038 228.442-185.61 185.61c-54.11-1.06-109.96-23.76-153.54-67.34-83.5-83.51-90.35-212.05-15.29-287.1 75.05-75.06 203.59-68.21 287.1 15.29 43.58 43.58 66.28 99.43 67.34 153.54z" fill="#fd8087"/></g></g><path d="m18.664 256.546c10.881 32.496 29.67 63.609 56.224 90.166 23.045 23.045 49.523 40.248 77.359 51.503 3.075-2.418 6.026-5.033 8.835-7.842 18.465-18.466 28.634-43.016 28.634-69.129s-10.169-50.663-28.634-69.129c-18.466-18.465-43.016-28.634-69.129-28.634-26.114 0-50.664 10.169-69.13 28.634-1.439 1.44-2.822 2.92-4.159 4.431z" fill="#fe646f"/><circle cx="91.953" cy="321.245" fill="#fef056" r="77.763"/><path d="m78.016 350.525c-28.695-28.695-30.25-74.233-4.718-104.784-13.309 3.277-25.932 10.118-36.332 20.517-30.368 30.368-30.368 79.605 0 109.973s79.605 30.368 109.973 0c1.674-1.674 3.263-3.422 4.752-5.204-25.557 6.293-53.706-.534-73.675-20.502z" fill="#fee903"/></g><g><path d="m13.401 252.782c.624.162 1.257.241 1.886.241 1.979 0 3.909-.785 5.336-2.229l.434-.444c2.699-2.7 2.91-6.946.633-9.889-17.218-65.741-1.176-131.164 43.208-175.549 34.776-34.778 82.609-52.418 134.681-49.628 52.375 2.789 102.739 25.846 141.813 64.92 3.51 3.511 7.002 7.241 10.38 11.089 2.732 3.112 7.473 3.422 10.584.688 3.112-2.732 3.421-7.472.688-10.584-3.59-4.09-7.306-8.06-11.044-11.799-41.697-41.697-95.545-66.306-151.623-69.293-56.362-2.997-108.259 16.174-146.086 54-24.399 24.399-41.44 55.456-49.281 89.812-7.573 33.183-6.518 68.941 3.051 103.412.715 2.578 2.75 4.58 5.34 5.253z"/><path d="m501.553 428.68c-2.409-13.415-11.245-24.816-23.635-30.498l-31.156-14.286-17.121-17.12c-2.928-2.928-7.677-2.929-10.606.001-2.929 2.929-2.929 7.678.001 10.606l18.073 18.072c.63.63 1.367 1.143 2.177 1.514l32.381 14.848c8.046 3.689 13.559 10.803 15.123 19.515s-1.128 17.298-7.387 23.556l-24.529 24.529c-6.259 6.26-14.847 8.952-23.556 7.387-8.712-1.564-15.825-7.077-19.515-15.123l-14.848-32.381c-.371-.81-.884-1.547-1.514-2.178l-55.435-55.434c-3.45-3.453-8.759-4.053-12.91-1.461-24.029 15.016-51.436 23.694-80.109 25.873l159.058-159.058c-2.174 28.483-10.747 55.929-25.829 80.067-2.596 4.149-1.997 9.458 1.456 12.911l14.763 14.762c1.464 1.464 3.384 2.196 5.303 2.196s3.839-.732 5.304-2.197c2.929-2.929 2.929-7.678-.001-10.606l-12.213-12.212c39.486-66.081 35.028-153.696-11.705-224.314-2.287-3.454-6.941-4.402-10.394-2.116-3.455 2.286-4.401 6.939-2.116 10.394 22.491 33.985 34.512 72.121 35.856 109.479l-181.111 181.108c-19.839-.734-40.021-4.489-59.889-11.354-3.912-1.351-8.185.724-9.538 4.64-1.353 3.914.725 8.185 4.64 9.538 59.426 20.535 121.66 15.222 171.377-14.497l51.935 51.935 14.286 31.156c5.682 12.39 17.082 21.226 30.497 23.635 2.45.44 4.911.656 7.357.656 10.946-.001 21.58-4.322 29.458-12.199l24.528-24.529c9.637-9.638 13.953-23.4 11.544-36.815z"/><path d="m152.243 260.954c-7.637-7.636-16.53-13.679-26.435-17.96-3.801-1.646-8.218.106-9.86 3.907-1.645 3.803.105 8.217 3.907 9.86 8.161 3.528 15.488 8.508 21.78 14.8 27.396 27.395 27.396 71.971.001 99.366-13.7 13.699-31.689 20.548-49.685 20.547-17.99-.002-35.987-6.851-49.683-20.546-27.396-27.396-27.396-71.973 0-99.367 13.154-13.155 30.651-20.46 49.269-20.569 4.143-.024 7.48-3.402 7.456-7.544-.024-4.127-3.377-7.456-7.499-7.456-.015 0-.03 0-.045 0-22.591.133-43.823 8.998-59.788 24.962-33.243 33.244-33.243 87.336.001 120.581 16.621 16.621 38.455 24.932 60.289 24.932s43.669-8.311 60.291-24.933c33.244-33.244 33.244-87.335.001-120.58z"/></g></g></svg>