<svg id="Capa_1" enable-background="new 0 0 503.553 503.553" height="512" viewBox="0 0 503.553 503.553" width="512" xmlns="http://www.w3.org/2000/svg"><g><g><path d="m467.66 465.925c-38.159 38.159-100.028 38.159-138.187 0l-292.12-292.12c-38.159-38.159-38.159-100.028 0-138.187 38.159-38.159 100.028-38.159 138.187 0l292.12 292.12c38.159 38.159 38.159 100.027 0 138.187z" fill="#fd8087"/><path d="m74.758 87.151 14.128-14.128c27.231-27.231 66.532-35.014 100.678-23.38l-14.025-14.025c-38.159-38.159-100.028-38.159-138.187 0-38.159 38.159-38.159 100.028 0 138.187l14.025 14.025c-11.633-34.147-3.85-73.448 23.381-100.679z" fill="#fe646f"/><path d="m398.566 463.544c-17.819 0-34.573-6.939-47.173-19.539l-292.12-292.121c-12.601-12.601-19.54-29.354-19.54-47.173 0-17.82 6.939-34.573 19.54-47.174 12.6-12.6 29.354-19.539 47.173-19.539s34.573 6.939 47.173 19.539l292.121 292.12c26.011 26.012 26.011 68.336 0 94.348-12.601 12.6-29.354 19.539-47.174 19.539z" fill="#fdd79b"/><path d="m88.886 73.023c14.163-14.163 31.593-23.052 49.862-26.698-9.775-5.427-20.814-8.327-32.303-8.327-17.819 0-34.573 6.939-47.173 19.539-12.601 12.601-19.54 29.354-19.54 47.174 0 11.489 2.9 22.527 8.327 32.302 3.646-18.27 12.535-35.699 26.698-49.862z" fill="#fccd7f"/><g><g><path d="m145.654 195.866c7.462 7.462 19.561 7.462 27.023 0l23.189-23.189c7.462-7.462 7.462-19.561 0-27.023l-53.183-53.183c-7.462-7.462-19.561-7.462-27.023 0l-23.189 23.189c-7.462 7.462-7.462 19.561 0 27.023z" fill="#fccd7f"/></g><g><path d="m197.318 105.515-30.497 30.497c6.079 8.637 5.278 20.638-2.445 28.362s-19.726 8.525-28.362 2.445l-30.498 30.498-15.01 18.328-24.906-26.898 15.85-15.495 91.803-91.803 16.211-18.227 23.577 23.652z" fill="#efedef"/></g><g><path d="m360.87 411.082c7.462 7.462 19.561 7.462 27.023 0l23.189-23.189c7.462-7.462 7.462-19.561 0-27.023l-53.183-53.183c-7.462-7.462-19.561-7.462-27.023 0l-23.189 23.189c-7.462 7.462-7.462 19.561 0 27.023z" fill="#fccd7f"/></g><g><path d="m422.104 330.301-91.803 91.803-18.837 22.101-24.317-27.526 19.087-18.641 30.498-30.498c-6.079-8.637-5.278-20.638 2.445-28.362 7.724-7.724 19.726-8.525 28.362-2.445l30.497-30.497 18.64-19.394 22.969 23.622z" fill="#efedef"/></g></g><g fill="#b5adb6"><path d="m111.576 225.725-8.323 8.323c-6.171 6.171-16.176 6.171-22.346 0l-36.077-36.077c-6.171-6.171-6.171-16.176 0-22.346l8.323-8.323c6.171-6.171 16.176-6.171 22.346 0l36.077 36.077c6.17 6.17 6.17 16.175 0 22.346z"/><path d="m225.725 111.575 8.323-8.323c6.171-6.171 6.171-16.176 0-22.346l-36.077-36.077c-6.171-6.171-16.176-6.171-22.346 0l-8.323 8.323c-6.171 6.171-6.171 16.176 0 22.346l36.077 36.077c6.17 6.171 16.175 6.171 22.346 0z"/><path d="m391.977 277.828 8.323-8.323c6.171-6.171 16.176-6.171 22.346 0l36.077 36.077c6.171 6.171 6.171 16.176 0 22.346l-8.323 8.323c-6.171 6.171-16.176 6.171-22.346 0l-36.077-36.077c-6.17-6.17-6.17-16.175 0-22.346z"/><path d="m277.828 391.977-8.323 8.323c-6.171 6.171-6.171 16.176 0 22.346l36.077 36.077c6.171 6.171 16.176 6.171 22.346 0l8.323-8.323c6.171-6.171 6.171-16.176 0-22.346l-36.077-36.077c-6.17-6.171-16.175-6.171-22.346 0z"/></g></g><g><path d="m41.789 41.788c29.327-29.329 74.814-35.257 110.615-14.415 3.579 2.084 8.171.872 10.255-2.708s.872-8.171-2.708-10.255c-41.678-24.263-94.631-17.367-128.769 16.771-34.139 34.139-41.035 87.091-16.772 128.769 1.393 2.393 3.906 3.728 6.488 3.728 1.281 0 2.58-.328 3.767-1.02 3.58-2.084 4.792-6.675 2.708-10.255-20.841-35.8-14.913-81.287 14.416-110.615z"/><path d="m378.12 248.805c1.464 1.464 3.384 2.196 5.303 2.196s3.839-.732 5.303-2.196c2.929-2.93 2.929-7.678 0-10.607l-123.372-123.373c-2.929-2.928-7.678-2.928-10.606 0-2.929 2.93-2.929 7.678 0 10.607z"/><path d="m489.143 343.602c-2.083-3.579-6.675-4.793-10.255-2.708-3.58 2.084-4.792 6.675-2.708 10.255 20.841 35.8 14.914 81.287-14.415 110.615-29.33 29.329-74.816 35.255-110.615 14.416-3.579-2.086-8.171-.873-10.255 2.708-2.083 3.58-.871 8.171 2.708 10.255 16.647 9.691 35.085 14.41 53.412 14.41 27.557 0 54.854-10.68 75.357-31.182 34.138-34.138 41.034-87.09 16.771-128.769z"/><path d="m125.433 254.747c-2.929-2.928-7.678-2.928-10.606 0-2.929 2.93-2.929 7.678 0 10.607l123.372 123.372c1.464 1.464 3.384 2.196 5.303 2.196s3.839-.732 5.303-2.196c2.929-2.93 2.929-7.678 0-10.607z"/><path d="m116.88 231.028c9.084-9.085 9.084-23.867 0-32.953l-.757-.757 10.188-10.188 14.041 14.041c5.188 5.188 12 7.78 18.814 7.78 6.813 0 13.628-2.594 18.815-7.78l23.189-23.189c10.375-10.375 10.375-27.255 0-37.63l-14.04-14.041 10.189-10.188.758.758c4.401 4.4 10.252 6.824 16.477 6.824s12.076-2.424 16.476-6.824l8.324-8.324c9.084-9.085 9.084-23.867 0-32.953l-6.738-6.738c-2.929-2.928-7.678-2.928-10.606 0-2.929 2.93-2.929 7.678 0 10.607l6.738 6.737c3.237 3.237 3.237 8.504 0 11.74l-8.324 8.324c-1.567 1.567-3.652 2.431-5.869 2.431s-4.302-.863-5.87-2.432l-36.077-36.077c-3.237-3.236-3.237-8.503 0-11.739l8.323-8.323c3.236-3.239 8.503-3.238 11.74-.001l6.738 6.738c2.929 2.929 7.678 2.93 10.607.001s2.929-7.678 0-10.606l-6.738-6.739c-9.085-9.084-23.868-9.084-32.953 0l-8.323 8.323c-9.085 9.086-9.085 23.868 0 32.954l.646.646-10.189 10.189-4.47-4.47c-10.375-10.374-27.255-10.375-37.629 0l-23.19 23.189c-10.374 10.375-10.374 27.256 0 37.63l4.469 4.469-10.188 10.188-.647-.647c-9.085-9.084-23.868-9.084-32.953 0l-8.323 8.323c-9.085 9.086-9.085 23.868 0 32.954l36.077 36.077c4.401 4.4 10.252 6.824 16.477 6.824s12.076-2.424 16.476-6.824l8.322-8.324c-.001.001-.001 0 0 0zm73.683-80.07c4.526 4.525 4.526 11.89 0 16.415l-23.189 23.189c-4.525 4.527-11.89 4.525-16.417 0l-14.041-14.041.439-.438c10.884 4.551 23.674 2.243 32.322-6.405 8.648-8.647 10.957-21.438 6.406-32.322l.439-.439zm-92.789-13.579c-4.526-4.525-4.525-11.891 0-16.416l23.189-23.188c4.526-4.527 11.89-4.527 16.416 0l4.469 4.469-39.605 39.605zm75.478-45.324 13.459 13.459-25.194 25.194c-2.579 2.579-2.929 6.639-.83 9.62 4.1 5.825 3.42 13.707-1.616 18.743-5.036 5.034-12.917 5.715-18.741 1.615-2.982-2.1-7.042-1.749-9.621.829l-25.194 25.195-13.459-13.459zm-66.98 128.367-8.324 8.323c-1.567 1.567-3.652 2.431-5.869 2.431s-4.302-.863-5.87-2.432l-36.077-36.077c-3.237-3.236-3.237-8.503 0-11.739l8.323-8.323c1.619-1.619 3.744-2.428 5.87-2.428s4.251.809 5.87 2.428l36.077 36.076c3.237 3.237 3.237 8.504 0 11.741z"/><path d="m341.555 422.75-.647-.647 10.189-10.189 4.47 4.469c5.025 5.026 11.708 7.795 18.815 7.795s13.79-2.769 18.814-7.794l23.189-23.188c10.374-10.374 10.374-27.255 0-37.631l-4.47-4.469 10.188-10.188.647.647c4.542 4.542 10.51 6.813 16.477 6.813s11.934-2.271 16.477-6.813l8.323-8.323c9.085-9.086 9.085-23.868 0-32.954l-36.077-36.078c-4.401-4.4-10.252-6.824-16.477-6.824s-12.076 2.424-16.476 6.824l-8.324 8.323c-9.085 9.086-9.085 23.868 0 32.954l.757.757-10.188 10.189-14.041-14.041c-10.375-10.374-27.255-10.374-37.629 0l-23.189 23.189c-10.374 10.375-10.374 27.256 0 37.63l14.041 14.04-10.188 10.189-.758-.758c-9.085-9.084-23.868-9.084-32.953 0l-8.323 8.323c-9.085 9.086-9.085 23.868 0 32.954l36.077 36.077c4.542 4.542 10.51 6.813 16.477 6.813s11.934-2.271 16.477-6.813l8.323-8.323c9.084-9.085 9.084-23.867-.001-32.953zm64.223-56.578c4.526 4.526 4.526 11.892 0 16.417l-23.19 23.189c-2.192 2.192-5.107 3.4-8.208 3.4s-6.015-1.208-8.208-3.401l-4.47-4.469 39.605-39.605zm-8.498-83.041 8.324-8.324c1.567-1.567 3.652-2.431 5.869-2.431s4.302.863 5.87 2.432l36.077 36.077c3.237 3.236 3.237 8.503 0 11.739l-8.323 8.323c-3.237 3.238-8.503 3.238-11.74 0l-36.077-36.077c-3.236-3.236-3.236-8.503 0-11.739zm-84.29 69.464c-4.526-4.525-4.525-11.891 0-16.416l23.189-23.188c4.526-4.527 11.891-4.525 16.417 0l14.04 14.04-.438.438c-10.884-4.55-23.674-2.243-32.322 6.405s-10.958 21.438-6.406 32.322l-.439.439zm29.046 20.248c2.579-2.578 2.929-6.638.83-9.619-4.1-5.825-3.42-13.707 1.616-18.742 5.037-5.037 12.917-5.716 18.742-1.616 2.982 2.1 7.042 1.749 9.621-.829l25.194-25.195 13.459 13.459-81.196 81.196-13.459-13.459zm-11.088 72.254-8.323 8.323c-3.237 3.238-8.503 3.238-11.74 0l-36.077-36.077c-3.237-3.236-3.237-8.503 0-11.739l8.323-8.323c1.619-1.619 3.744-2.428 5.87-2.428s4.251.809 5.87 2.428l36.077 36.077c3.237 3.236 3.237 8.503 0 11.739z"/><path d="m287.518 191.197c-2.929 2.93-2.929 7.678 0 10.607l69.751 69.751c1.464 1.464 3.384 2.196 5.303 2.196s3.839-.732 5.303-2.196c2.929-2.93 2.929-7.678 0-10.607l-69.751-69.751c-2.928-2.928-7.677-2.928-10.606 0z"/><path d="m275.524 168.595-32.92-32.919c-2.929-2.928-7.678-2.929-10.606.001-2.929 2.929-2.929 7.677 0 10.606l32.92 32.919c1.464 1.464 3.384 2.196 5.303 2.196s3.839-.732 5.303-2.197c2.929-2.928 2.929-7.676 0-10.606z"/><path d="m370.698 451.645c-3.729-1.801-8.214-.237-10.015 3.492-1.802 3.73-.238 8.214 3.492 10.016 10.495 5.068 21.744 7.53 32.904 7.53 19.643 0 39.01-7.63 53.492-22.111 22.711-22.712 28.571-57.433 14.582-86.397-1.801-3.73-6.285-5.292-10.015-3.492-3.73 1.802-5.293 6.286-3.492 10.016 11.217 23.227 6.523 51.063-11.681 69.267-18.204 18.201-46.04 22.899-69.267 11.679z"/><path d="m240.541 336.861c-2.929 2.93-2.929 7.678 0 10.607l20.408 20.408c1.464 1.464 3.384 2.196 5.303 2.196s3.839-.732 5.303-2.196c2.929-2.93 2.929-7.678 0-10.607l-20.408-20.408c-2.929-2.928-7.678-2.928-10.606 0z"/><path d="m146.283 231.996c-2.929-2.928-7.678-2.928-10.606 0-2.929 2.93-2.929 7.678 0 10.607l82.241 82.241c1.464 1.464 3.384 2.196 5.303 2.196s3.839-.732 5.303-2.196c2.929-2.93 2.929-7.678 0-10.607z"/><path d="m45.159 143.618c1.094 0 2.205-.24 3.256-.748 3.73-1.802 5.293-6.286 3.492-10.016-11.217-23.227-6.523-51.063 11.681-69.266 18.205-18.206 46.041-22.9 69.267-11.682 3.729 1.802 8.214.238 10.015-3.492 1.802-3.729.238-8.214-3.492-10.016-28.965-13.99-63.685-8.128-86.396 14.582-22.711 22.711-28.571 57.431-14.582 86.396 1.294 2.681 3.971 4.242 6.759 4.242z"/></g></g></svg>