<svg id="Capa_1" enable-background="new 0 0 512.354 512.354" height="512" viewBox="0 0 512.354 512.354" width="512" xmlns="http://www.w3.org/2000/svg"><g><g><path d="m431.71 37.033c0-7.552-6.122-13.674-13.674-13.674h-322.718c-7.552 0-13.674 6.122-13.674 13.674v257.247h350.066z" fill="#f9f7f8"/><path d="m81.644 128.824h350.066v165.456h-350.066z" fill="#efedef"/><path d="m382.55 60.491h-251.746c-4.934 0-8.934 4-8.934 8.934v171.261c0 4.934 4 8.934 8.934 8.934h251.746c4.934 0 8.934-4 8.934-8.934v-171.261c-.001-4.934-4-8.934-8.934-8.934z" fill="#a79ba7"/><path d="m121.87 128.824v111.862c0 4.934 4 8.934 8.934 8.934h251.746c4.934 0 8.934-4 8.934-8.934v-111.862z" fill="#918291"/><g><g><g><path d="m474.017 148.823h-435.68c-17.03 0-30.84 13.8-30.84 30.83v83.97l97.338 79.817h357.75l42.272-79.817v-83.97c0-17.029-13.81-30.83-30.84-30.83z" fill="#f9f7f8"/></g></g><path d="m69.595 155.024c0-2.124.215-4.198.624-6.201h-31.882c-17.03 0-30.84 13.8-30.84 30.83v83.97l62.098 50.92z" fill="#efedef"/><path d="m504.857 263.624v194.54c0 17.03-13.81 30.83-30.84 30.83h-435.68c-17.03 0-30.84-13.8-30.84-30.83v-194.54z" fill="#a6e7f0"/><circle cx="256.677" cy="331.676" fill="#b5adb6" r="114.438"/><circle cx="256.677" cy="331.675" fill="#a79ba7" r="84.438"/><circle cx="256.677" cy="331.675" fill="#918291" r="37.396"/><circle cx="441.925" cy="208.262" fill="#e5e1e5" r="26.413"/><path d="m136.035 464.364c-.058 0-.116 0-.175 0-4.618-.012-8.038-4.494-6.766-8.934.626-2.184.961-4.49.961-6.872v-24.623c0-13.806-11.192-24.997-24.997-24.997h-28.315c-2.792-2.792-4.357-4.357-7.148-7.148v-128.166h-62.098v194.54c0 17.027 13.803 30.83 30.83 30.83h435.69c14.906 0 27.345-10.573 30.216-24.629h-368.198z" fill="#6bd9e7"/><path d="m105.058 458.556h-56.847c-5.521 0-9.997-4.476-9.997-9.997v-24.623c0-5.521 4.476-9.997 9.997-9.997h56.847c5.521 0 9.997 4.476 9.997 9.997v24.623c.001 5.521-4.475 9.997-9.997 9.997z" fill="#f3f0f3"/></g></g><g><path d="m504.854 413.747c4.143 0 7.5-3.357 7.5-7.5v-226.593c0-21.138-17.196-38.334-38.334-38.334h-34.81v-104.287c0-11.676-9.499-21.175-21.174-21.175h-26.553c-4.143 0-7.5 3.357-7.5 7.5s3.357 7.5 7.5 7.5h26.553c3.404 0 6.174 2.77 6.174 6.175v104.287h-25.227v-80.829c0-4.143-3.357-7.5-7.5-7.5h-269.613c-4.143 0-7.5 3.357-7.5 7.5v80.829h-25.226v-104.287c0-3.405 2.77-6.175 6.174-6.175h264.203c4.143 0 7.5-3.357 7.5-7.5s-3.357-7.5-7.5-7.5h-264.204c-11.676 0-21.174 9.499-21.174 21.175v104.287h-35.81c-21.137 0-38.333 17.196-38.333 38.334v278.508c0 21.138 17.196 38.334 38.334 38.334h435.686c21.138 0 38.334-17.196 38.334-38.334v-19.952c0-4.143-3.357-7.5-7.5-7.5s-7.5 3.357-7.5 7.5v19.952c0 12.866-10.468 23.334-23.334 23.334h-435.686c-12.866 0-23.334-10.468-23.334-23.334v-187.038h34.681c4.143 0 7.5-3.357 7.5-7.5s-3.357-7.5-7.5-7.5h-34.681v-76.47c0-12.866 10.468-23.334 23.334-23.334h435.686c12.866 0 23.334 10.468 23.334 23.334v76.47h-145.033c-22.353-28.237-56.917-46.387-95.645-46.387s-73.292 18.15-95.645 46.387h-79.387c-4.143 0-7.5 3.357-7.5 7.5s3.357 7.5 7.5 7.5h69.22c-10.255 17.852-16.125 38.529-16.125 60.552 0 67.237 54.701 121.938 121.938 121.938s121.938-54.701 121.938-121.938c0-22.023-5.87-42.7-16.125-60.552h134.863v135.123c.001 4.142 3.358 7.5 7.501 7.5zm-375.484-345.756h254.613v73.329h-254.613zm127.307 370.623c-58.966 0-106.938-47.973-106.938-106.938s47.973-106.938 106.938-106.938 106.938 47.973 106.938 106.938-47.972 106.938-106.938 106.938z"/><path d="m256.677 239.737c-50.695 0-91.938 41.243-91.938 91.938s41.243 91.938 91.938 91.938 91.938-41.243 91.938-91.938-41.243-91.938-91.938-91.938zm0 168.877c-42.424 0-76.938-34.515-76.938-76.938s34.515-76.938 76.938-76.938 76.938 34.515 76.938 76.938-34.514 76.938-76.938 76.938z"/><path d="m256.677 286.779c-24.756 0-44.896 20.141-44.896 44.896s20.141 44.896 44.896 44.896 44.896-20.141 44.896-44.896-20.14-44.896-44.896-44.896zm0 74.793c-16.485 0-29.896-13.411-29.896-29.896s13.411-29.896 29.896-29.896 29.896 13.411 29.896 29.896-13.411 29.896-29.896 29.896z"/><path d="m475.838 208.262c0-18.699-15.213-33.912-33.913-33.912-18.699 0-33.912 15.213-33.912 33.912 0 18.7 15.213 33.913 33.912 33.913 18.7 0 33.913-15.213 33.913-33.913zm-52.825 0c0-10.428 8.484-18.912 18.912-18.912 10.429 0 18.913 8.484 18.913 18.912 0 10.429-8.484 18.913-18.913 18.913-10.428 0-18.912-8.484-18.912-18.913z"/><path d="m385.654 215.762c4.143 0 7.5-3.357 7.5-7.5s-3.357-7.5-7.5-7.5h-4.594c-4.143 0-7.5 3.357-7.5 7.5s3.357 7.5 7.5 7.5z"/><path d="m48.211 406.438c-9.647 0-17.497 7.85-17.497 17.497v24.623c0 9.647 7.85 17.497 17.497 17.497h56.848c9.647 0 17.497-7.85 17.497-17.497v-24.623c0-9.647-7.85-17.497-17.497-17.497zm59.345 17.497v24.623c0 1.377-1.12 2.497-2.497 2.497h-56.848c-1.377 0-2.497-1.12-2.497-2.497v-24.623c0-1.377 1.12-2.497 2.497-2.497h56.848c1.377 0 2.497 1.12 2.497 2.497z"/></g></g></svg>