<svg id="Capa_1" enable-background="new 0 0 511.387 511.387" height="512" viewBox="0 0 511.387 511.387" width="512" xmlns="http://www.w3.org/2000/svg"><g><g><path d="m338.656 299.046-2.195-3.873-25.671-37.902c-26.032-38.436-82.323-39.373-109.619-1.824l-24.541 33.758-36.191 47.229h198.217z" fill="#d1a08f"/><path d="m425.301 287.401c9.673-9.673 9.6-25.541-.073-35.215-9.673-9.673-25.357-9.673-35.03 0l-46.319 46.319-71.414 68.259 59.575 30.544z" fill="#ffbd86"/><g><g id="XMLID_467_"><g><path d="m338.656 299.046-2.195-3.873-14.317-21.138h-68.477l-13.698-3.692c-11.481-3.091-23.306-4.659-35.146-4.659-3.849 0-7.669.181-11.458.501l-16.735 23.021-36.191 47.229h198.217z" fill="#c68d7a"/><path d="m328.41 352.055h23.64c5.5 0 10.78-2.19 14.68-6.08l76.57-76.58c5.17-5.17 11.94-7.75 18.71-7.75 6.78 0 13.55 2.58 18.72 7.75 10.33 10.34 10.33 27.09 0 37.43l-121.248 121.248c-7.493 7.493-17.656 11.703-28.253 11.703h-112.369l-60.427 60.417c-2.176 2.176-5.546 2.612-8.205 1.062l-119.721-69.791c-3.84-2.238-4.522-7.504-1.379-10.647l74.042-74.042c25.2-47.38 79.79-71.07 131.6-57.12l16.25 4.38h77.39c8.01 0 15.26 3.25 20.51 8.5s8.5 12.5 8.5 20.51c0 16.02-12.99 29.01-29.01 29.01z" fill="#fed2a4"/></g><g><g><path d="m328.41 359.556h-73.36c-4.142 0-7.5-3.357-7.5-7.5s3.358-7.5 7.5-7.5h73.36c4.142 0 7.5 3.357 7.5 7.5s-3.358 7.5-7.5 7.5z" fill="#ffbd86"/></g></g></g><path d="m295.62 161.334h-39.075v-25.286c0-14.355 11.637-25.992 25.992-25.992h34.5c2.527 0 4.575 2.048 4.575 4.575v20.711c0 14.355-11.637 25.992-25.992 25.992z" fill="#97da7b"/><path d="m217.471 161.334h39.075v-25.286c0-14.355-11.637-25.992-25.992-25.992h-34.5c-2.527 0-4.575 2.048-4.575 4.575v20.711c0 14.355 11.637 25.992 25.992 25.992z" fill="#97da7b"/><path d="m295.62 110.056h-39.075v-25.286c0-14.355 11.637-25.992 25.992-25.992h34.5c2.527 0 4.575 2.048 4.575 4.575v20.711c0 14.355-11.637 25.992-25.992 25.992z" fill="#ade194"/><path d="m217.471 110.056h39.075v-25.286c0-14.355-11.637-25.992-25.992-25.992h-34.5c-2.527 0-4.575 2.048-4.575 4.575v20.711c0 14.355 11.637 25.992 25.992 25.992z" fill="#ade194"/><g fill="#c1e9af"><path d="m295.62 58.778h-39.075v-25.286c0-14.355 11.637-25.992 25.992-25.992h34.5c2.527 0 4.575 2.048 4.575 4.575v20.711c0 14.355-11.637 25.992-25.992 25.992z"/><path d="m217.471 58.778h39.075v-25.286c0-14.355-11.637-25.992-25.992-25.992h-34.5c-2.527 0-4.575 2.048-4.575 4.575v20.711c0 14.355 11.637 25.992 25.992 25.992z"/></g></g></g><g><path d="m59.727 379.606-42.123 42.123c-2.929 2.93-2.929 7.678 0 10.607 1.464 1.464 3.384 2.196 5.303 2.196s3.839-.732 5.303-2.196l42.123-42.123c2.929-2.93 2.929-7.678 0-10.607-2.929-2.927-7.678-2.927-10.606 0z"/><path d="m486.032 264.094c-12.827-12.825-33.446-13.227-46.761-1.207-1.282-5.865-4.184-11.448-8.74-16.003-6.095-6.096-14.199-9.452-22.818-9.452s-16.724 3.356-22.817 9.451l-7.66 7.659c-2.929 2.929-2.93 7.678-.001 10.606 2.929 2.93 7.677 2.929 10.606.001l7.661-7.66c3.262-3.262 7.598-5.058 12.211-5.058s8.949 1.796 12.211 5.059c6.8 6.799 6.837 17.828.086 24.595l-58.586 58.586c-.632.632-1.318 1.192-2.046 1.677 3.651-5.836 5.709-12.767 5.533-20.183-.221-9.336-4.019-17.743-10.043-24.043l10.277-10.277c2.929-2.93 2.929-7.678 0-10.607-2.929-2.928-7.678-2.928-10.606 0l-12.241 12.241c-.291-.122-.583-.24-.877-.355l-24.421-36.058c-12.385-18.286-31.399-29.755-52.955-32.208v-52.023h31.575c18.467 0 33.492-15.024 33.492-33.491v-20.712c0-4.661-2.659-8.706-6.536-10.718 4.104-5.559 6.536-12.424 6.536-19.849v-20.712c0-4.661-2.659-8.706-6.536-10.717 4.104-5.559 6.536-12.424 6.536-19.849v-20.712c0-6.658-5.417-12.075-12.075-12.075h-34.5c-10.479 0-19.846 4.841-25.992 12.4-6.145-7.559-15.512-12.4-25.991-12.4h-34.5c-6.658 0-12.075 5.417-12.075 12.075v20.711c0 7.425 2.432 14.29 6.536 19.849-3.877 2.012-6.536 6.056-6.536 10.717v20.712c0 7.424 2.432 14.29 6.536 19.849-3.877 2.012-6.536 6.057-6.536 10.718v20.712c0 18.467 15.024 33.491 33.492 33.491h31.575v51.777c-21.588 1.745-40.966 12.58-53.94 30.426l-23.007 31.647c-5.472 1.51-10.856 3.38-16.092 5.653-25.01 10.854-45.894 29.973-58.918 53.909l-9.426 9.425c-2.929 2.929-2.929 7.678 0 10.607 2.929 2.929 7.678 2.929 10.607 0l10.205-10.205c.525-.525.969-1.126 1.318-1.781 11.395-21.42 29.929-38.536 52.187-48.195 22.257-9.659 47.417-11.505 70.847-5.196l16.248 4.374c.636.171 1.291.258 1.949.258h77.389c12.137 0 21.958 10.103 21.496 22.341-.44 11.641-10.375 20.682-22.024 20.682h-72.83c-4.218 0-7.623 3.482-7.497 7.729.123 4.105 3.704 7.271 7.811 7.271h96.68c7.549 0 14.646-2.939 19.984-8.277l76.577-76.577c7.394-7.395 19.425-7.395 26.818 0 3.582 3.581 5.554 8.343 5.554 13.408s-1.973 9.828-5.554 13.409l-21.325 21.325c-2.929 2.93-2.929 7.678 0 10.607 2.929 2.928 7.678 2.928 10.606 0l21.325-21.326c6.415-6.414 9.948-14.943 9.948-24.016s-3.535-17.6-9.95-24.015zm-171.92-197.816v17.786c0 10.196-8.295 18.491-18.492 18.491h-31.575v-17.785c0-10.196 8.295-18.491 18.492-18.491h31.575zm-115.133 0h31.575c10.196 0 18.492 8.295 18.492 18.491v17.786h-31.575c-10.196 0-18.492-8.295-18.492-18.491zm115.133 69.065c0 10.196-8.295 18.491-18.492 18.491h-31.575v-17.786c0-10.196 8.295-18.492 18.492-18.492h31.575zm-31.575-120.343h31.575v17.786c0 10.196-8.295 18.492-18.492 18.492h-31.575v-17.787c0-10.196 8.296-18.491 18.492-18.491zm-83.558 0h31.575c10.196 0 18.492 8.295 18.492 18.491v17.787h-31.575c-10.196 0-18.492-8.296-18.492-18.492zm0 120.343v-17.787h31.575c10.196 0 18.492 8.296 18.492 18.492v17.786h-31.575c-10.197 0-18.492-8.295-18.492-18.491zm37.745 147.074c-14.123-3.802-28.797-4.978-43.242-3.637l13.756-18.922c11.554-15.894 29.473-24.813 49.092-24.493 19.646.326 37.232 9.845 48.25 26.113l16.97 25.056h-69.536z"/><path d="m431.482 345.462-77.309 77.31c-6.129 6.128-14.277 9.503-22.943 9.503h-112.374c-1.989 0-3.897.79-5.303 2.196l-64.112 64.112c-2.929 2.93-2.929 7.678 0 10.607 1.464 1.464 3.384 2.196 5.303 2.196s3.839-.732 5.303-2.196l61.915-61.916h109.269c12.672 0 24.587-4.935 33.549-13.896l77.309-77.31c2.929-2.93 2.929-7.678 0-10.607-2.929-2.927-7.678-2.927-10.607.001z"/></g></g></svg>