<svg id="Capa_1" enable-background="new 0 0 511.544 511.544" height="512" viewBox="0 0 511.544 511.544" width="512" xmlns="http://www.w3.org/2000/svg"><g><g><path d="m504.044 345.668v-58.006c0-2.605-2.112-4.717-4.717-4.717h-87.808v67.44h87.808c2.605 0 4.717-2.112 4.717-4.717z" fill="#a6e7f0"/><path d="m7.5 288.137v57.056c0 2.868 2.325 5.192 5.192 5.192h126.458v-67.44h-126.458c-2.867 0-5.192 2.325-5.192 5.192z" fill="#a6e7f0"/><g><path d="m341.343 444.079h39.662c44.491 0 80.558-36.067 80.558-80.558v-69.332c0-42.918-34.792-77.71-77.71-77.71h-256.16c-42.918 0-77.71 34.792-77.71 77.71v69.332c0 44.491 36.067 80.558 80.558 80.558h40.227c26.654 0 51.583-13.184 66.585-35.215l.632-.928c8.737-12.83 27.686-12.726 36.282.198 14.932 22.453 40.11 35.945 67.076 35.945z" fill="#dcf5f8"/><g><path d="m113.048 363.521v-69.332c0-42.918 34.792-77.71 77.71-77.71h-63.066c-42.918 0-77.71 34.792-77.71 77.71v69.332c0 44.491 36.067 80.558 80.558 80.558h40.227c3.85 0 7.662-.284 11.416-.821-39.079-5.55-69.135-39.126-69.135-79.737z" fill="#d4f2f6"/></g><path d="m341.343 414.079c-16.965 0-32.702-8.434-42.097-22.559-9.64-14.492-25.786-23.144-43.19-23.144-17.175 0-33.201 8.476-42.869 22.672l-.64.941c-9.416 13.827-25.038 22.089-41.781 22.089h-40.226c-27.878 0-50.558-22.68-50.558-50.558v-69.332c0-26.308 21.403-47.71 47.71-47.71h256.16c26.308 0 47.71 21.402 47.71 47.71v69.332c0 27.878-22.68 50.558-50.558 50.558h-39.661z" fill="#a6e7f0"/><path d="m129.414 246.475-1.722.004c-26.308 0-47.71 21.402-47.71 47.71v69.332c0 27.878 22.68 50.558 50.558 50.558h.362c-11.164-13.821-17.853-31.405-17.853-50.558v-69.332c-.001-17.99 6.102-34.543 16.365-47.714z" fill="#6bd9e7"/></g></g><g><path d="m357.41 238.979h-229.718c-30.443 0-55.21 24.768-55.21 55.21v29.058c0 4.143 3.358 7.5 7.5 7.5s7.5-3.357 7.5-7.5v-29.058c0-22.172 18.039-40.21 40.21-40.21h229.718c4.142 0 7.5-3.357 7.5-7.5s-3.358-7.5-7.5-7.5z"/><path d="m79.981 347.708c-4.142 0-7.5 3.357-7.5 7.5v8.313c0 32.013 26.045 58.058 58.058 58.058h40.227c19.227 0 37.164-9.483 47.983-25.372l.637-.937c8.27-12.144 21.978-19.394 36.669-19.394 14.888 0 28.699 7.401 36.945 19.797 10.788 16.221 28.86 25.905 48.341 25.905h39.662c32.013 0 58.058-26.045 58.058-58.058v-69.332c0-28.035-20.991-51.607-48.828-54.831-4.111-.484-7.837 2.473-8.313 6.588-.477 4.114 2.473 7.836 6.587 8.313 20.269 2.347 35.553 19.514 35.553 39.931v69.332c0 23.742-19.316 43.058-43.058 43.058h-39.662c-14.448 0-27.851-7.182-35.852-19.213-11.034-16.587-29.514-26.489-49.435-26.489-19.659 0-38.001 9.701-49.071 25.955l-.637.937c-8.021 11.778-21.323 18.811-35.582 18.811h-40.223c-23.742 0-43.058-19.315-43.058-43.058v-8.313c-.001-4.143-3.358-7.501-7.501-7.501z"/><path d="m109.944 339.497c1.435 1.297 3.233 1.936 5.026 1.936 2.047 0 4.086-.833 5.566-2.471l5.588-6.183c2.941 1.615 5.968 3.056 9.071 4.311l-2.981 7.266c-1.573 3.832.259 8.213 4.091 9.785.932.383 1.896.563 2.844.563 2.952 0 5.751-1.755 6.941-4.655l3.515-8.567c3.294.693 6.63 1.208 10.001 1.508v7.415c0 4.143 3.358 7.5 7.5 7.5s7.5-3.357 7.5-7.5v-7.415c3.371-.299 6.708-.814 10.001-1.508l3.515 8.567c1.19 2.901 3.989 4.655 6.941 4.655.948 0 1.913-.181 2.844-.563 3.832-1.572 5.664-5.953 4.091-9.785l-2.981-7.266c3.075-1.244 6.075-2.669 8.99-4.266l5.668 6.271c1.481 1.639 3.52 2.472 5.567 2.472 1.792 0 3.592-.639 5.026-1.936 3.073-2.777 3.313-7.521.536-10.593l-4.206-4.654c.551-.446 1.109-.881 1.65-1.341 3.155-2.684 3.538-7.417.854-10.572s-7.418-3.537-10.572-.854c-26.321 22.385-64.53 22.385-90.852 0-3.155-2.684-7.887-2.301-10.572.854-2.683 3.155-2.301 7.889.854 10.572.518.44 1.052.857 1.58 1.284l-4.136 4.576c-2.773 3.074-2.533 7.817.54 10.594z"/><path d="m300.01 311.618c-3.155-2.684-7.887-2.301-10.572.854-2.683 3.155-2.301 7.889.854 10.572.541.46 1.099.896 1.65 1.341l-4.206 4.654c-2.777 3.072-2.538 7.815.536 10.593 1.435 1.297 3.233 1.936 5.026 1.936 2.047 0 4.086-.833 5.567-2.472l5.668-6.271c2.93 1.605 5.947 3.037 9.038 4.285l-3.029 7.381c-1.573 3.832.259 8.213 4.091 9.785.932.383 1.896.563 2.844.563 2.952 0 5.751-1.755 6.941-4.655l3.566-8.691c3.277.688 6.597 1.2 9.95 1.498v7.549c0 4.143 3.358 7.5 7.5 7.5s7.5-3.357 7.5-7.5v-7.549c3.353-.297 6.673-.81 9.95-1.498l3.566 8.691c1.19 2.901 3.989 4.655 6.941 4.655.948 0 1.913-.181 2.844-.563 3.832-1.572 5.664-5.953 4.091-9.785l-3.029-7.381c3.091-1.248 6.107-2.68 9.037-4.285l5.669 6.272c1.48 1.638 3.519 2.471 5.566 2.471 1.792 0 3.592-.639 5.026-1.936 3.073-2.777 3.313-7.521.536-10.594l-4.206-4.653c.551-.445 1.109-.881 1.65-1.341 3.155-2.684 3.538-7.417.854-10.572s-7.418-3.537-10.572-.854c-26.317 22.384-64.526 22.384-90.847 0z"/><path d="m504.044 342.885h-34.981v-48.696c0-1.256-.041-2.501-.095-3.744h35.076c4.142 0 7.5-3.357 7.5-7.5s-3.358-7.5-7.5-7.5h-37.084c-8.566-37.994-42.563-66.466-83.108-66.466h-219.084c-4.142 0-7.5 3.357-7.5 7.5s3.358 7.5 7.5 7.5h219.084c38.714 0 70.21 31.496 70.21 70.21v69.332c0 40.284-32.774 73.058-73.058 73.058h-39.662c-24.515 0-47.255-12.187-60.831-32.599-5.422-8.151-14.503-13.051-24.293-13.104-.054-.001-.107-.001-.162-.001-9.728 0-18.793 4.791-24.274 12.841l-.63.926c-13.618 19.998-36.192 31.937-60.386 31.937h-40.226c-40.284 0-73.058-32.773-73.058-73.058v-69.332c0-38.714 31.496-70.21 70.21-70.21h5.113c4.142 0 7.5-3.357 7.5-7.5s-3.358-7.5-7.5-7.5h-5.113c-40.544 0-74.542 28.472-83.108 66.466h-37.084c-4.142 0-7.5 3.357-7.5 7.5s3.358 7.5 7.5 7.5h35.076c-.054 1.243-.095 2.488-.095 3.744v48.696h-34.981c-4.142 0-7.5 3.357-7.5 7.5s3.358 7.5 7.5 7.5h34.981v5.636c0 48.555 39.502 88.058 88.058 88.058h40.227c29.161 0 56.37-14.39 72.787-38.496l.63-.926c2.721-3.995 7.043-6.281 11.871-6.281h.083c4.861.027 9.193 2.363 11.885 6.411 16.363 24.604 43.773 39.292 73.321 39.292h39.662c48.556 0 88.058-39.503 88.058-88.058v-5.636h34.981c4.142 0 7.5-3.357 7.5-7.5s-3.358-7.5-7.5-7.5z"/><path d="m319.205 168.61c1.002 3.092 3.883 5.187 7.134 5.187h44.329c4.142 0 7.5-3.357 7.5-7.5s-3.358-7.5-7.5-7.5h-21.196l25.596-18.547c2.633-1.907 3.737-5.294 2.734-8.387-1.002-3.092-3.883-5.187-7.134-5.187h-44.329c-4.142 0-7.5 3.357-7.5 7.5s3.358 7.5 7.5 7.5h21.196l-25.596 18.547c-2.633 1.907-3.737 5.294-2.734 8.387z"/><path d="m418.331 126.457c1.002 3.092 3.883 5.187 7.134 5.187h78.221c4.142 0 7.5-3.357 7.5-7.5s-3.358-7.5-7.5-7.5h-55.088l59.488-43.104c2.633-1.907 3.737-5.294 2.734-8.387-1.002-3.092-3.883-5.187-7.134-5.187h-78.221c-4.142 0-7.5 3.357-7.5 7.5s3.358 7.5 7.5 7.5h55.088l-59.488 43.104c-2.633 1.907-3.737 5.294-2.734 8.387z"/></g></g></svg>