<svg id="Capa_1" enable-background="new 0 0 511.819 511.819" height="512" viewBox="0 0 511.819 511.819" width="512" xmlns="http://www.w3.org/2000/svg"><g><g><path d="m346.895 446.346c0 32.018-25.955 57.973-57.973 57.973h-206.742c-32.018 0-57.973-25.956-57.973-57.973v-380.873c0-32.018 25.955-57.973 57.973-57.973h213.91c28.059 0 50.805 22.746 50.805 50.805z" fill="#a79ba7"/><path d="m296.09 7.5h-5.692c-7.11 8.972-11.372 20.3-11.372 32.61v147.636c0 6.933 2.908 13.572 7.979 18.216 4.593 4.205 10.56 6.521 16.801 6.521 8.337 0 16.053-4.187 20.641-11.197l11.55-17.65h10.898v-125.331c0-28.059-22.746-50.805-50.805-50.805z" fill="#918291"/><path d="m316.895 446.346c0 15.449-12.524 27.974-27.974 27.974h-206.741c-15.449 0-27.974-12.524-27.974-27.974v-380.872c0-15.449 12.524-27.974 27.974-27.974h31.712c5.472 0 10.464 3.127 12.851 8.052l5.899 12.17c2.488 5.132 7.689 8.391 13.392 8.391h79.034c5.703 0 10.904-3.259 13.392-8.391l5.899-12.17c2.387-4.924 7.378-8.052 12.851-8.052h41.076c10.278 0 18.61 8.332 18.61 18.61v390.236z" fill="#f9f7f8"/><path d="m298.285 37.5h-19.189c-.043.865-.07 1.734-.07 2.61v147.636c0 6.933 2.908 13.572 7.979 18.216 4.593 4.205 10.56 6.521 16.801 6.521 4.713 0 9.226-1.339 13.088-3.769v-152.604c.001-10.278-8.331-18.61-18.609-18.61z" fill="#efedef"/><path d="m170.637 282.746-11.23-9.796-26.079-4.543c-3.664-.638-6.338-3.819-6.338-7.538v-25.919c0-3.719 2.674-6.9 6.338-7.538l26.079-4.543 11.23-9.796c5.057-4.411 12.955-.82 12.955 5.89v57.892c0 6.711-7.898 10.302-12.955 5.891z" fill="#6bd9e7"/><circle cx="189.375" cy="390.109" fill="#fd8087" r="54.797"/><path d="m178.139 378.967v21.813c0 5.262 5.703 8.546 10.254 5.905l18.791-10.906c4.533-2.631 4.533-9.178 0-11.809l-18.791-10.906c-4.551-2.643-10.254.641-10.254 5.903z" fill="#f9f7f8"/><path d="m455.002 163.636h-129.819l-17.471 26.7c-2.573 3.933-8.686 2.11-8.686-2.589v-147.636c0-18.01 14.6-32.611 32.611-32.611h123.365c18.01 0 32.611 14.6 32.611 32.611v90.914c0 18.01-14.601 32.611-32.611 32.611z" fill="#fd8087"/><ellipse cx="377.907" cy="118.343" fill="#f9f7f8" rx="19.031" ry="14.698" transform="matrix(.842 -.54 .54 .842 -4.1 222.696)"/><g id="XMLID_587_"><g><path d="m431.049 64.536v32.89c0 2.91-3.51 4.36-5.56 2.31l-29.71-29.71v-33.89c0-3.03 3.66-4.55 5.81-2.41l28.51 28.51c.61.61.95 1.44.95 2.3z" fill="#f9f7f8"/></g></g></g><g><path d="m346.895 186.136c-4.143 0-7.5 3.357-7.5 7.5v182.02c0 4.143 3.357 7.5 7.5 7.5s7.5-3.357 7.5-7.5v-182.02c0-4.143-3.358-7.5-7.5-7.5z"/><path d="m346.895 400.118c-4.143 0-7.5 3.357-7.5 7.5v38.728c0 27.831-22.642 50.474-50.473 50.474h-206.742c-27.831 0-50.473-22.643-50.473-50.474v-380.872c0-27.831 22.642-50.474 50.473-50.474h196.032c4.143 0 7.5-3.357 7.5-7.5s-3.357-7.5-7.5-7.5h-196.032c-36.102 0-65.473 29.371-65.473 65.474v380.872c0 36.103 29.371 65.474 65.473 65.474h206.742c36.102 0 65.473-29.371 65.473-65.474v-38.728c0-4.142-3.358-7.5-7.5-7.5z"/><path d="m46.707 446.346c0 19.561 15.913 35.474 35.473 35.474h206.742c19.56 0 35.473-15.913 35.473-35.474v-226.437c0-4.143-3.357-7.5-7.5-7.5s-7.5 3.357-7.5 7.5v226.437c0 11.289-9.184 20.474-20.473 20.474h-206.742c-11.289 0-20.473-9.185-20.473-20.474v-320.84c0-4.143-3.357-7.5-7.5-7.5s-7.5 3.357-7.5 7.5z"/><path d="m139.391 54.45-5.899-12.171c-3.618-7.459-11.311-12.279-19.6-12.279h-31.712c-19.56 0-35.473 15.913-35.473 35.474v28.069c0 4.143 3.357 7.5 7.5 7.5s7.5-3.357 7.5-7.5v-28.069c0-11.289 9.184-20.474 20.473-20.474h31.712c2.581 0 4.977 1.501 6.103 3.823l5.899 12.171c3.716 7.665 11.622 12.618 20.141 12.618h79.034c8.52 0 16.425-4.953 20.141-12.619l5.899-12.17c1.126-2.322 3.521-3.823 6.102-3.823h11.883c4.143 0 7.5-3.357 7.5-7.5s-3.357-7.5-7.5-7.5h-11.884c-8.29 0-15.983 4.82-19.6 12.28l-5.899 12.17c-1.226 2.528-3.833 4.162-6.643 4.162h-79.034c-2.809 0-5.418-1.633-6.643-4.162z"/><path d="m216.974 45c4.143 0 7.5-3.357 7.5-7.5s-3.357-7.5-7.5-7.5h-61.005c-4.143 0-7.5 3.357-7.5 7.5s3.357 7.5 7.5 7.5z"/><path d="m165.706 288.397c2.872 2.506 6.413 3.803 10.019 3.803 2.149 0 4.322-.461 6.39-1.401 5.538-2.518 8.978-7.86 8.978-13.943v-57.893c0-6.082-3.439-11.425-8.977-13.942-5.538-2.519-11.824-1.599-16.409 2.401l-9.65 8.418-24.014 4.184c-7.273 1.266-12.553 7.543-12.553 14.927v25.919c0 7.382 5.278 13.659 12.552 14.927l24.015 4.184zm-31.217-27.528v-25.919c0-.074.053-.137.126-.149l26.079-4.543c1.351-.235 2.61-.836 3.644-1.737l11.229-9.796c.065-.057.109-.095.178-.095.041 0 .092.014.161.045.186.085.186.148.186.288v57.893c0 .14 0 .204-.186.288-.185.085-.233.043-.339-.049l-11.229-9.796c-1.033-.901-2.293-1.502-3.644-1.737l-26.078-4.543c-.073-.013-.127-.076-.127-.15z"/><path d="m210.037 256.604c-2.929 2.93-2.929 7.678 0 10.607 1.465 1.464 3.385 2.196 5.304 2.196s3.839-.732 5.304-2.196l.565-.565c10.331-10.332 10.331-27.142 0-37.474-2.93-2.928-7.678-2.928-10.607 0-2.929 2.93-2.929 7.678 0 10.607 2.172 2.171 3.368 5.059 3.368 8.129 0 3.071-1.196 5.959-3.368 8.13z"/><path d="m247.556 212.277c-2.93-2.928-7.678-2.928-10.607 0-2.929 2.93-2.929 7.678 0 10.607 13.454 13.453 13.454 35.345 0 48.798l-1.251 1.251c-2.929 2.93-2.929 7.678 0 10.607 1.465 1.464 3.385 2.196 5.304 2.196s3.839-.732 5.304-2.196l1.251-1.251c19.3-19.302 19.3-50.709-.001-70.012z"/><path d="m189.375 452.406c34.351 0 62.297-27.946 62.297-62.297s-27.946-62.297-62.297-62.297c-34.352 0-62.298 27.946-62.298 62.297s27.946 62.297 62.298 62.297zm0-109.593c26.08 0 47.297 21.217 47.297 47.297s-21.217 47.297-47.297 47.297-47.298-21.217-47.298-47.297 21.218-47.297 47.298-47.297z"/><path d="m177.816 413.195c2.239 1.29 4.695 1.935 7.15 1.935 2.471 0 4.941-.652 7.191-1.959l18.791-10.906c4.468-2.593 7.135-7.224 7.135-12.39.001-5.166-2.666-9.799-7.135-12.393l-18.791-10.906c-4.485-2.605-9.849-2.614-14.342-.024-4.494 2.588-7.178 7.229-7.178 12.415v21.813c.002 5.187 2.684 9.827 7.179 12.415zm7.823-33.059 16.778 9.738-16.778 9.737z"/><path d="m272.091 382.609c-4.143 0-7.5 3.357-7.5 7.5s3.357 7.5 7.5 7.5h8.936c4.143 0 7.5-3.357 7.5-7.5s-3.357-7.5-7.5-7.5z"/><path d="m106.658 382.609h-8.936c-4.143 0-7.5 3.357-7.5 7.5s3.357 7.5 7.5 7.5h8.936c4.143 0 7.5-3.357 7.5-7.5s-3.357-7.5-7.5-7.5z"/><path d="m455.002 0h-9.627c-4.143 0-7.5 3.357-7.5 7.5s3.357 7.5 7.5 7.5h9.627c13.846 0 25.11 11.265 25.11 25.11v90.914c0 13.847-11.265 25.111-25.11 25.111h-129.818c-2.53 0-4.891 1.276-6.275 3.394l-12.382 18.92v-138.339c0-13.846 11.265-25.11 25.11-25.11h81.776c4.143 0 7.5-3.357 7.5-7.5s-3.357-7.5-7.5-7.5h-81.776c-22.117 0-40.11 17.993-40.11 40.11v147.636c0 5.452 3.511 10.162 8.735 11.719 1.176.351 2.366.521 3.539.521 4.04 0 7.874-2.009 10.187-5.544l15.252-23.306h125.763c22.117 0 40.11-17.994 40.11-40.111v-90.915c-.001-22.117-17.994-40.11-40.111-40.11z"/><path d="m395.008 28.06c-4.091 1.694-6.733 5.649-6.733 10.076v57.416c-1.284-.339-2.618-.578-3.994-.699-6.168-.54-12.687 1.162-18.354 4.798-12.315 7.895-16.96 22.702-10.354 33.008 3.874 6.04 10.767 9.212 18.29 9.212 5.308 0 10.931-1.58 16.025-4.847 8.425-5.4 13.257-14.036 13.356-22.252.018-.21.03-.423.03-.638v-24.005l16.909 16.909c2.064 2.063 4.804 3.157 7.598 3.156 1.388 0 2.79-.27 4.128-.824 4.035-1.671 6.642-5.572 6.642-9.939v-32.893c0-2.874-1.119-5.576-3.15-7.608l-28.507-28.507c-3.13-3.129-7.797-4.059-11.886-2.363zm-13.216 96.336c-5.722 3.666-11.756 3.03-13.592.165-1.838-2.866.101-8.616 5.822-12.284 2.537-1.627 5.402-2.522 8.004-2.522.319 0 .634.014.943.041 1.25.109 3.516.556 4.645 2.317 1.837 2.867-.102 8.616-5.822 12.283zm41.759-35.205-20.276-20.275v-20.897l20.276 20.275z"/></g></g></svg>