<svg id="Capa_1" enable-background="new 0 0 513.649 513.649" height="512" viewBox="0 0 513.649 513.649" width="512" xmlns="http://www.w3.org/2000/svg"><g><g><path d="m341.962 448.601v30.475l44.736 27.073h-259.746l44.735-27.073v-30.475-29.995h170.083z" fill="#c9bfc8"/><g><g><path d="m406.821 513.649h-299.169c-4.142 0-7.5-3.357-7.5-7.5s3.358-7.5 7.5-7.5h299.169c4.142 0 7.5 3.357 7.5 7.5s-3.358 7.5-7.5 7.5z" fill="#a79ba7"/></g><g id="XMLID_730_"><g><path d="m476.255 117.457h-438.86c-15.45 0-27.97 12.52-27.97 27.96v260.19l59.746 19.146h412.519l22.535-19.146v-260.19c0-15.44-12.52-27.96-27.97-27.96z" fill="#f9f7f8"/><path d="m504.225 405.607v15.03c0 15.44-12.52 27.96-27.97 27.96h-438.86c-15.45 0-27.97-12.52-27.97-27.96v-15.03z" fill="#a79ba7"/></g></g><g><path d="m356.633 117.457h-144.958-151.019c-.817 6.31-1.242 12.741-1.242 19.27 0 82.286 66.944 149.23 149.23 149.23 33.649 0 64.729-11.2 89.719-30.061h122.041c13.211 0 23.96-10.748 23.96-23.959v-114.48z" fill="#efedef"/><path d="m406.892 172.785h-148.258l-26.96 27.182v35.93h188.73c2.19 0 3.96-1.77 3.96-3.96v-31.97z" fill="#d7d0d6"/><path d="m420.405 67.937h-188.73v35.92l25.15 18.529h147.921l19.619-18.529v-31.96c0-2.19-1.77-3.96-3.96-3.96z" fill="#d7d0d6"/><path d="m389.905 235.697v.2h-34.03v-.2-45.66h34.03z" fill="#c9bfc8"/><g><g id="XMLID_736_"><g><path d="m355.875 67.937h34.03v41.75h-34.03z" fill="#c9bfc8"/></g></g></g><path d="m231.675 103.857h192.69v96.11h-192.69z" fill="#a79ba7"/></g><g id="XMLID_733_"><g><circle cx="208.645" cy="136.727" fill="#e5e1e5" r="129.23"/></g></g><path d="m128.007 136.727c0-63.064 45.211-115.581 104.966-126.95-7.87-1.498-16.022-2.28-24.328-2.28-71.37 0-129.23 57.86-129.23 129.23s57.86 129.23 129.23 129.23c8.306 0 16.457-.785 24.328-2.282-59.755-11.369-104.966-63.884-104.966-126.948z" fill="#d7d0d6"/><g fill="#baafb9"><circle cx="208.643" cy="136.727" r="32.865"/><circle cx="208.643" cy="57.965" r="17.064"/><circle cx="287.405" cy="136.727" r="17.064"/><circle cx="208.643" cy="215.488" r="17.064"/><circle cx="129.882" cy="136.727" r="17.064"/></g><path d="m228.016 345.825v-28.16c0-10.718 11.308-17.667 20.87-12.824l27.8 14.08c10.506 5.321 10.506 20.326 0 25.647l-27.8 14.08c-9.562 4.843-20.87-2.105-20.87-12.823z" fill="#6bd9e7"/></g></g><g><path d="m476.259 109.955h-19.843c-4.142 0-7.5 3.357-7.5 7.5s3.358 7.5 7.5 7.5h19.843c11.283 0 20.462 9.18 20.462 20.463v252.691h-47.748c-4.142 0-7.5 3.357-7.5 7.5s3.358 7.5 7.5 7.5h47.748v7.529c0 11.283-9.179 20.462-20.462 20.462h-438.869c-11.283 0-20.462-9.179-20.462-20.462v-7.529h400.083c4.142 0 7.5-3.357 7.5-7.5s-3.358-7.5-7.5-7.5h-400.083v-21.91c0-4.143-3.358-7.5-7.5-7.5s-7.5 3.357-7.5 7.5v44.439c0 19.554 15.908 35.462 35.462 35.462h126.797v18.748l-39.328 23.801h-17.207c-4.142 0-7.5 3.357-7.5 7.5s3.358 7.5 7.5 7.5h299.169c4.142 0 7.5-3.357 7.5-7.5s-3.358-7.5-7.5-7.5h-18.031l-39.328-23.801v-18.748h126.797c19.554 0 35.462-15.908 35.462-35.462v-275.22c.001-19.555-15.908-35.463-35.462-35.463zm-138.18 375.537 21.74 13.157h-205.989l21.74-13.157c2.245-1.358 3.617-3.792 3.617-6.416v-22.976h155.275v22.976c0 2.624 1.372 5.058 3.617 6.416z"/><path d="m9.428 351.736c4.142 0 7.5-3.357 7.5-7.5v-198.818c0-11.283 9.179-20.463 20.462-20.463h11.134c4.142 0 7.5-3.357 7.5-7.5s-3.358-7.5-7.5-7.5h-11.134c-19.554 0-35.462 15.908-35.462 35.463v198.818c0 4.143 3.358 7.5 7.5 7.5z"/><path d="m208.643 273.454c32.296 0 62.006-11.263 85.427-30.057h126.338c6.32 0 11.461-5.142 11.461-11.461v-160.042c0-6.319-5.142-11.461-11.461-11.461h-98.349c-5.814-8.661-12.635-16.692-20.381-23.888-3.034-2.821-7.78-2.645-10.6.39-2.819 3.034-2.645 7.78.39 10.599 24.723 22.97 38.902 55.479 38.902 89.193 0 67.121-54.607 121.728-121.728 121.728s-121.726-54.607-121.726-121.728 54.606-121.727 121.727-121.727c20.395 0 40.571 5.143 58.35 14.872 3.635 1.99 8.192.655 10.18-2.979 1.989-3.634.655-8.191-2.979-10.18-19.98-10.934-42.647-16.713-65.551-16.713-75.392 0-136.727 61.335-136.727 136.727s61.335 136.727 136.727 136.727zm136.728-136.727c0-8.561-.822-17.051-2.402-25.365h73.901v81.107h-83.388c7.635-17.033 11.889-35.9 11.889-55.742zm18.007-40.366v-20.928h19.024v20.929h-19.024zm19.024 111.108v20.929h-19.024v-20.929zm-56.793 0h22.77v20.929h-38.38c5.838-6.45 11.072-13.455 15.61-20.929zm71.793 20.928v-20.929h19.467v20.929zm19.467-132.036h-19.467v-20.928h19.467zm-68.491-20.928v20.929h-9.152c-2.232-7.196-5.046-14.198-8.421-20.929z"/><path d="m249.008 136.727c0-22.258-18.108-40.365-40.365-40.365s-40.365 18.107-40.365 40.365 18.107 40.365 40.365 40.365 40.365-18.108 40.365-40.365zm-40.365 25.365c-13.986 0-25.365-11.379-25.365-25.365s11.378-25.365 25.365-25.365 25.365 11.379 25.365 25.365-11.379 25.365-25.365 25.365z"/><path d="m233.208 57.965c0-13.545-11.02-24.564-24.564-24.564s-24.564 11.02-24.564 24.564 11.02 24.564 24.564 24.564 24.564-11.019 24.564-24.564zm-34.129 0c0-5.273 4.291-9.564 9.564-9.564 5.274 0 9.564 4.291 9.564 9.564s-4.291 9.564-9.564 9.564-9.564-4.291-9.564-9.564z"/><path d="m262.841 136.727c0 13.545 11.02 24.564 24.564 24.564s24.564-11.02 24.564-24.564-11.02-24.564-24.564-24.564c-13.545-.001-24.564 11.019-24.564 24.564zm24.564-9.565c5.273 0 9.564 4.291 9.564 9.564s-4.291 9.564-9.564 9.564c-5.274 0-9.564-4.291-9.564-9.564s4.29-9.564 9.564-9.564z"/><path d="m184.079 215.488c0 13.545 11.02 24.564 24.564 24.564 13.545 0 24.564-11.02 24.564-24.564s-11.02-24.563-24.564-24.563-24.564 11.019-24.564 24.563zm34.129 0c0 5.273-4.291 9.564-9.564 9.564s-9.564-4.291-9.564-9.564 4.291-9.563 9.564-9.563 9.564 4.29 9.564 9.563z"/><path d="m105.317 136.727c0 13.545 11.02 24.564 24.564 24.564 13.545 0 24.564-11.02 24.564-24.564s-11.02-24.564-24.564-24.564c-13.544-.001-24.564 11.019-24.564 24.564zm34.129 0c0 5.273-4.291 9.564-9.564 9.564s-9.564-4.291-9.564-9.564 4.291-9.564 9.564-9.564c5.273-.001 9.564 4.29 9.564 9.564z"/><path d="m252.274 298.15c-6.833-3.462-14.809-3.134-21.336.877-6.526 4.01-10.422 10.978-10.422 18.638v28.16c0 7.659 3.896 14.627 10.422 18.637 3.526 2.167 7.476 3.259 11.439 3.259 3.372 0 6.755-.791 9.896-2.382l27.8-14.08c7.396-3.746 11.991-11.224 11.991-19.514 0-8.291-4.595-15.769-11.991-19.515zm21.023 39.728-27.8 14.08c-3.096 1.567-5.721.329-6.706-.276-.985-.604-3.275-2.387-3.275-5.856v-28.16c0-3.471 2.291-5.253 3.276-5.857.632-.389 1.941-1.039 3.617-1.039.934 0 1.981.202 3.088.763l27.8 14.08c3.401 1.723 3.769 4.863 3.769 6.134-.001 1.268-.368 4.408-3.769 6.131z"/><path d="m51.321 324.245c-4.142 0-7.5 3.357-7.5 7.5s3.358 7.5 7.5 7.5h128.481c4.142 0 7.5-3.357 7.5-7.5s-3.358-7.5-7.5-7.5z"/><path d="m325.279 331.745c0 4.143 3.358 7.5 7.5 7.5h128.481c4.142 0 7.5-3.357 7.5-7.5s-3.358-7.5-7.5-7.5h-128.481c-4.142 0-7.5 3.358-7.5 7.5z"/></g></g></svg>