<svg id="Capa_1" enable-background="new 0 0 512.475 512.475" height="512" viewBox="0 0 512.475 512.475" width="512" xmlns="http://www.w3.org/2000/svg"><g><g><path d="m371.914 49.718c0-23.317-18.902-42.218-42.218-42.218h-233.821c-23.317 0-42.218 18.902-42.218 42.218v413.038c0 23.316 18.902 42.218 42.218 42.218h237.576c21.242 0 38.463-17.22 38.463-38.463z" fill="#a79ba7"/><path d="m321.302 209.562c-86.854 0-157.516 70.661-157.516 157.516 0 59.289 32.932 111.024 81.46 137.897h88.206c21.242 0 38.463-17.22 38.463-38.463v-248.609c-15.893-5.406-32.916-8.341-50.613-8.341z" fill="#918291"/><path d="m341.914 49.718c0-6.748-5.471-12.219-12.219-12.219h-31.717c-2.473 0-4.862.901-6.719 2.533l-17.464 15.352c-2.256 1.983-5.157 3.077-8.161 3.077h-105.697c-3.004 0-5.905-1.094-8.161-3.077l-17.464-15.352c-1.857-1.633-4.246-2.533-6.719-2.533h-31.718c-6.748 0-12.218 5.47-12.218 12.218v413.039c0 6.748 5.471 12.219 12.219 12.219h229.482c9.144 0 16.557-7.413 16.557-16.557v-408.7z" fill="#f9f7f8"/><path d="m321.302 209.562c-86.854 0-157.516 70.661-157.516 157.516 0 41.722 16.323 79.688 42.897 107.897h118.675c9.144 0 16.557-7.413 16.557-16.557v-247.506c-6.749-.886-13.628-1.35-20.613-1.35z" fill="#efedef"/><path d="m126.64 419.602c-1.786 0-3.234-1.448-3.234-3.234v-139.561c0-1.786 1.448-3.234 3.234-3.234h145.128v146.029z" fill="#6bd9e7"/><path d="m271.768 273.573h-77.146c-19.368 26.17-30.837 58.521-30.837 93.504 0 18.412 3.183 36.091 9.019 52.524h98.964z" fill="#2ed1e2"/><circle cx="321.301" cy="367.078" fill="#fd8087" r="137.516"/><path d="m295.603 168.778h-161.646c-5.827 0-10.55-4.724-10.55-10.55v-38.039c0-5.827 4.724-10.55 10.55-10.55h161.646c5.827 0 10.55 4.724 10.55 10.55v38.039c0 5.826-4.723 10.55-10.55 10.55z" fill="#6bd9e7"/></g><g><path d="m157.705 15h171.99c19.144 0 34.719 15.574 34.719 34.718v157.665c0 4.143 3.358 7.5 7.5 7.5s7.5-3.357 7.5-7.5v-157.665c0-27.414-22.303-49.718-49.718-49.718h-171.99c-4.142 0-7.5 3.357-7.5 7.5s3.357 7.5 7.499 7.5z"/><path d="m226.306 497.475h-130.431c-19.144 0-34.718-15.575-34.718-34.719v-413.038c0-19.144 15.575-34.718 34.718-34.718h29.868c4.142 0 7.5-3.357 7.5-7.5s-3.358-7.5-7.5-7.5h-29.868c-27.414 0-49.718 22.304-49.718 49.718v413.038c0 27.415 22.304 49.719 49.718 49.719h130.431c4.142 0 7.5-3.357 7.5-7.5s-3.358-7.5-7.5-7.5z"/><path d="m83.657 414.32c-4.142 0-7.5 3.357-7.5 7.5v40.936c0 10.873 8.846 19.719 19.719 19.719h97.396c4.142 0 7.5-3.357 7.5-7.5s-3.358-7.5-7.5-7.5h-97.396c-2.602 0-4.719-2.117-4.719-4.719v-40.936c0-4.142-3.358-7.5-7.5-7.5z"/><path d="m95.875 29.999c-10.873 0-19.718 8.846-19.718 19.718v340.142c0 4.143 3.358 7.5 7.5 7.5s7.5-3.357 7.5-7.5v-340.142c0-2.602 2.117-4.718 4.718-4.718h31.718c.651 0 1.278.236 1.767.666l17.465 15.354c3.627 3.188 8.284 4.942 13.111 4.942h105.697c4.828 0 9.485-1.755 13.113-4.943l17.464-15.353c.489-.43 1.116-.666 1.767-.666h31.717c2.602 0 4.719 2.117 4.719 4.719v151.112c0 4.143 3.358 7.5 7.5 7.5s7.5-3.357 7.5-7.5v-151.112c0-10.873-8.846-19.719-19.719-19.719h-31.717c-4.298 0-8.442 1.563-11.67 4.4l-17.462 15.352c-.889.78-2.029 1.21-3.211 1.21h-105.697c-1.182 0-2.322-.43-3.209-1.209l-17.464-15.353c-3.228-2.838-7.373-4.4-11.67-4.4z"/><path d="m181.288 24.506c-4.142 0-7.5 3.357-7.5 7.5s3.358 7.5 7.5 7.5h66.984c4.142 0 7.5-3.357 7.5-7.5s-3.358-7.5-7.5-7.5z"/><path d="m421.468 262.216c-2.994-2.86-7.742-2.753-10.604.241-2.861 2.995-2.753 7.743.242 10.604 25.931 24.776 40.212 58.166 40.212 94.017 0 71.69-58.325 130.016-130.016 130.016s-130.016-58.325-130.016-130.016 58.325-130.017 130.016-130.017c23.118 0 45.824 6.15 65.664 17.785 3.572 2.095 8.168.898 10.264-2.676 2.095-3.573.897-8.168-2.676-10.264-22.138-12.983-47.469-19.846-73.252-19.846-79.962 0-145.016 65.054-145.016 145.017 0 79.962 65.054 145.016 145.016 145.016s145.016-65.054 145.016-145.016c0-39.986-15.929-77.227-44.85-104.861z"/><path d="m410.907 302.64h-21.015c-3.075 0-5.837 1.876-6.971 4.734l-1.412 3.56h-138.343c-4.311 0-8.249 2.183-10.534 5.838-2.285 3.654-2.522 8.15-.635 12.025l24.426 50.147c2.067 4.242 6.451 6.982 11.168 6.982h84.164l-6.836 17.231h-93.24c-4.142 0-7.5 3.357-7.5 7.5 0 3.585 2.517 6.578 5.879 7.319-1.038 2.637-1.614 5.503-1.614 8.504 0 12.86 10.463 23.323 23.324 23.323s23.324-10.463 23.324-23.323c0-2.933-.552-5.736-1.544-8.323h15.582c-.994 2.586-1.545 5.391-1.545 8.323 0 12.86 10.463 23.323 23.324 23.323s23.324-10.463 23.324-23.323c0-3.102-.616-6.06-1.721-8.769 2.002-.71 3.659-2.24 4.472-4.289l38.001-95.784h15.922c4.142 0 7.5-3.357 7.5-7.5s-3.358-7.498-7.5-7.498zm-41.299 38.29h-25.095l3.394-14.996h27.651zm-71.315 29.997-3.394-14.997h30.84l-3.394 14.997zm-6.79-29.997-3.394-14.996h44.418l-3.394 14.996zm-18.773-14.996 3.394 14.996h-21.533l-7.304-14.996zm-10.832 29.996h17.622l3.394 14.997h-13.711zm75.825 14.997 3.394-14.997h22.539l-5.95 14.997zm-57.631 55.554c0 4.59-3.734 8.323-8.324 8.323s-8.324-3.733-8.324-8.323 3.734-8.323 8.324-8.323 8.324 3.734 8.324 8.323zm50.817 8.324c-4.59 0-8.324-3.733-8.324-8.323s3.734-8.323 8.324-8.323 8.324 3.733 8.324 8.323-3.734 8.323-8.324 8.323z"/><path d="m395.332 435.544c4.142 0 7.5-3.357 7.5-7.5v-8.724h8.724c4.142 0 7.5-3.357 7.5-7.5s-3.358-7.5-7.5-7.5h-8.724v-8.724c0-4.143-3.358-7.5-7.5-7.5s-7.5 3.357-7.5 7.5v8.724h-8.724c-4.142 0-7.5 3.357-7.5 7.5s3.358 7.5 7.5 7.5h8.724v8.724c0 4.143 3.358 7.5 7.5 7.5z"/><path d="m313.654 158.228v-38.039c0-9.953-8.097-18.051-18.05-18.051h-161.647c-9.953 0-18.05 8.098-18.05 18.051v38.039c0 9.953 8.097 18.05 18.05 18.05h161.646c9.953-.001 18.051-8.097 18.051-18.05zm-182.747 0v-38.039c0-1.683 1.368-3.051 3.05-3.051h161.646c1.682 0 3.05 1.368 3.05 3.051v38.039c0 1.682-1.368 3.05-3.05 3.05h-161.646c-1.682-.001-3.05-1.369-3.05-3.05z"/><path d="m160.041 412.102h-29.134v-131.029h27.033c4.142 0 7.5-3.357 7.5-7.5s-3.358-7.5-7.5-7.5h-31.3c-5.918 0-10.733 4.815-10.733 10.733v139.562c0 5.918 4.815 10.733 10.733 10.733h33.401c4.142 0 7.5-3.357 7.5-7.5s-3.358-7.499-7.5-7.499z"/></g></g></svg>