<svg id="Capa_1" enable-background="new 0 0 512.475 512.475" height="512" viewBox="0 0 512.475 512.475" width="512" xmlns="http://www.w3.org/2000/svg"><path d="m475.637 425.925v25.42c0 3.12-2.53 5.65-5.66 5.65h-427.48c-3.13 0-5.66-2.53-5.66-5.65v-25.42c0-3.12 2.53-5.65 5.66-5.65h427.48c3.13 0 5.66 2.53 5.66 5.65z" fill="#c68d7a"/><g><g><path d="m82.531 503.322c-.613 1.025-1.719 1.652-2.913 1.652h-22.437c-2.304 0-3.939-2.247-3.23-4.439l46.079-142.466h70.985z" fill="#d1a08f"/><path d="m421.861 384.126 37.662 116.41c.709 2.192-.925 4.439-3.229 4.439h-22.437c-1.194 0-2.3-.627-2.913-1.652l-71.284-119.197-16.475-28.505 71.379-1.67z" fill="#d1a08f"/><g><path d="m470.54 345.078h-428.605c-2.815 0-5.097-2.282-5.097-5.097v-327.385c0-2.815 2.282-5.097 5.097-5.097h428.605c2.815 0 5.097 2.282 5.097 5.097v327.385c-.001 2.815-2.283 5.097-5.097 5.097z" fill="#f9f7f8"/><path d="m140.037 330.678c-23.279 0-42.15-18.871-42.15-42.15v-281.028h-55.952c-2.815 0-5.097 2.282-5.097 5.097v327.383c0 2.815 2.282 5.097 5.097 5.097h428.605c2.815 0 5.097-2.282 5.097-5.097v-9.303h-335.6z" fill="#efedef"/><g id="XMLID_737_"><g><path d="m66.837 42.818v225.657l134.57 17.806 244.23-33.396v-210.067c0-2.94-2.383-5.323-5.323-5.323h-368.154c-2.94.001-5.323 2.384-5.323 5.323z" fill="#d4f2f6"/><path d="m66.837 42.818v225.657l134.57 17.806 244.23-33.396v-210.067c0-2.94-2.383-5.323-5.323-5.323h-368.154c-2.94.001-5.323 2.384-5.323 5.323z" fill="#a6e7f0"/><path d="m97.887 37.496h-25.727c-2.94 0-5.323 2.383-5.323 5.323v225.657l31.05 4.108z" fill="#6bd9e7"/><path d="m349.207 194.706c-3.1-1.91-6.98-2-10.17-.24l-66.43 36.65-27.658 14.093 3.53 58.008 144.347 3.145 14.181 8.714h33.001c3.109 0 5.629-2.52 5.629-5.629v-56.561z" fill="#80d261"/><path d="m407.007 315.075h-334.541c-3.109 0-5.629-2.52-5.629-5.629v-40.971l134.15-74.01c3.18-1.76 7.06-1.67 10.16.24l60.85 37.4z" fill="#ade194"/><path d="m72.466 315.075h34.839c-5.886-7.248-9.418-16.483-9.418-26.547v-37.183l-31.05 17.13v40.971c0 3.109 2.52 5.629 5.629 5.629z" fill="#97da7b"/></g></g><circle cx="272.611" cy="129.025" fill="#fef056" r="24.653"/><path d="m421.861 384.125-7.297-30.174-71.38 1.67 16.475 28.504 10.535 17.616h57.366z" fill="#bc7c63"/><path d="m85.906 401.741h58.506l26.604-43.672h-70.985z" fill="#bc7c63"/><path d="m492.429 345.078h-472.383c-3.43 0-6.211 2.781-6.211 6.211v24.242c0 3.43 2.781 6.211 6.211 6.211h472.383c3.43 0 6.211-2.781 6.211-6.211v-24.242c0-3.431-2.781-6.211-6.211-6.211z" fill="#c68d7a"/></g></g><g><path d="m402.317 37.499c0-4.143-3.357-7.5-7.5-7.5h-327.979c-4.142 0-7.5 3.357-7.5 7.5v277.578c0 4.143 3.358 7.5 7.5 7.5h378.798c4.143 0 7.5-3.357 7.5-7.5v-277.578c0-4.143-3.357-7.5-7.5-7.5h-18.857c-4.143 0-7.5 3.357-7.5 7.5s3.357 7.5 7.5 7.5h11.357v195.557l-85.003-52.244c-5.389-3.313-12.178-3.473-17.718-.415l-63.77 35.184-56.57-34.769c-5.39-3.313-12.179-3.471-17.717-.415l-54.196 29.902c-3.627 2.001-4.945 6.563-2.944 10.189s6.563 4.944 10.19 2.943l54.197-29.902c.817-.453 1.821-.429 2.617.062l173.258 106.486h-306.142v-34.675l47.659-26.294c3.627-2.001 4.945-6.563 2.944-10.189s-6.563-4.945-10.19-2.943l-40.413 22.296v-210.773h320.479c4.143 0 7.5-3.357 7.5-7.5zm-115.983 194.608 56.328-31.078c.82-.453 1.823-.429 2.618.062l92.856 57.071v49.415h-29.01z"/><path d="m240.458 129.024c0 17.729 14.423 32.153 32.152 32.153s32.153-14.424 32.153-32.153-14.424-32.152-32.153-32.152-32.152 14.424-32.152 32.152zm49.306 0c0 9.458-7.695 17.153-17.153 17.153s-17.152-7.695-17.152-17.153 7.694-17.152 17.152-17.152 17.153 7.694 17.153 17.152z"/><path d="m492.429 337.577h-9.292v-324.981c0-6.946-5.651-12.596-12.597-12.596h-428.605c-6.946 0-12.597 5.65-12.597 12.596v70.463c0 4.143 3.358 7.5 7.5 7.5s7.5-3.357 7.5-7.5v-68.059h423.799v322.577h-423.799v-222.556c0-4.143-3.358-7.5-7.5-7.5s-7.5 3.357-7.5 7.5v222.556h-9.292c-7.56 0-13.71 6.15-13.71 13.711v24.242c0 7.561 6.15 13.711 13.71 13.711h62.031l-7.613 23.53h-31.966c-7.256 0-13.159 5.902-13.159 13.158v25.411c0 7.256 5.903 13.159 13.159 13.159h15.23l-10.912 33.728c-1.068 3.305-.487 6.954 1.557 9.763 2.043 2.808 5.336 4.484 8.809 4.484h22.437c3.811 0 7.393-2.031 9.35-5.303l25.52-42.672h284.501l25.521 42.675c1.957 3.269 5.539 5.3 9.348 5.3h22.437c3.474 0 6.768-1.677 8.811-4.486s2.624-6.459 1.555-9.762l-10.915-33.726h14.231c7.256 0 13.159-5.903 13.159-13.159v-25.411c0-7.256-5.903-13.158-13.159-13.158h-30.966l-7.613-23.53h61.03c7.561 0 13.711-6.15 13.711-13.711v-24.242c0-7.561-6.151-13.712-13.711-13.712zm-448.09 111.923v-21.729h25.271l-7.03 21.729zm32.95 47.975h-14.464l35.017-108.233h44.176zm276.69-108.234 14.072 23.53h-222.628l14.072-23.53zm-230.521 60.259 12.995-21.729h240.57l12.995 21.729zm344.679-21.729v21.729h-17.243l-7.03-21.729zm-17.488 69.704h-14.464l-64.729-108.233h44.177zm40.491-123.234h-469.805v-21.664h469.805z"/></g></g></svg>