<svg id="Capa_1" enable-background="new 0 0 511.319 511.319" height="512" viewBox="0 0 511.319 511.319" width="512" xmlns="http://www.w3.org/2000/svg"><g><g><path d="m414.557 488.867c0 8.258-6.694 14.952-14.952 14.952h-288.89c-8.258 0-14.952-6.694-14.952-14.952v-234.575h318.794z" fill="#f9f7f8"/><g fill="#6bd9e7"><path d="m322.504 68.52-17.274-48.733c-2.611-7.365-9.577-12.287-17.391-12.287h-69.259c-7.814 0-14.781 4.922-17.392 12.287l-17.274 48.733-14.006 36.794h165.047z"/><path d="m408.395 46.31c-.771-4.983-5.061-8.659-10.103-8.659h-13.346c-5.042 0-9.331 3.676-10.103 8.659l-3.438 22.211v13.971h40.427v-3.012-10.96z"/><path d="m146.273 37.65h-29.913c-5.95 0-10.773 4.823-10.773 10.773v33.097h51.46v-33.097c-.001-5.949-4.824-10.773-10.774-10.773z"/></g><path d="m100.875 254.292c9.466 77 75.267 136.819 154.784 136.819s145.319-59.819 154.784-136.819z" fill="#efedef"/><path d="m445.66 169.827v-70.21c0-17.17-13.93-31.1-31.1-31.1h-317.8c-17.17 0-31.1 13.93-31.1 31.1v70.21l10.175 19.152v82.134l-10.175 9.604v18.91c0 17.17 13.93 31.1 31.1 31.1h317.8c17.17 0 31.1-13.93 31.1-31.1v-18.91l-20.55-12.682v-71.435z" fill="#a6e7f0"/><g><path d="m255.66 79.191c-85.997 0-155.96 69.963-155.96 155.96 0 35.984 12.256 69.157 32.804 95.575h246.311c20.549-26.418 32.804-59.591 32.804-95.575.001-85.997-69.962-155.96-155.959-155.96z" fill="#6bd9e7"/><g><g id="XMLID_755_"><g><path d="m65.66 169.827h380v110.89h-380z" fill="#d4f2f6"/></g></g></g><path d="m99.7 235.151c0 15.846 2.379 31.146 6.794 45.565h298.332c4.415-14.419 6.794-29.719 6.794-45.565 0-23.313-5.151-45.442-14.36-65.325h-283.201c-9.208 19.883-14.359 42.012-14.359 65.325z" fill="#a6e7f0"/><g id="XMLID_757_"><g><path d="m384.56 364.432v104.321c0 2.796-2.267 5.063-5.063 5.063h-248.674c-2.796 0-5.063-2.267-5.063-5.063v-104.321c0-2.047 1.659-3.706 3.706-3.706h251.389c2.046.001 3.705 1.66 3.705 3.706z" fill="#a79ba7"/></g></g><path d="m348.039 360.727h-184.759c25.875 19.088 57.831 30.385 92.38 30.385s66.505-11.298 92.379-30.385z" fill="#918291"/><g id="XMLID_759_"><g><path d="m293.55 409.707-8.932-9.007h-48.968l-17.881 9.007c-15.69 11.62-25.87 30.25-25.87 51.27 0 4.4.45 8.69 1.29 12.84h124.94c.84-4.15 1.29-8.44 1.29-12.84.001-21.02-10.179-39.65-25.869-51.27z" fill="#e2dee2"/><path d="m293.55 409.707c-8.91 11.08-22.57 18.17-37.89 18.17s-28.98-7.09-37.89-18.17c-6.68-8.32-10.69-18.89-10.69-30.41 0-5.65 2.75-18.57 2.75-18.57h91.66s2.75 12.92 2.75 18.57c0 11.52-4.01 22.09-10.69 30.41z" fill="#f3f0f3"/><path d="m304.064 383.413c.114-1.357.175-2.729.175-4.116 0-5.65-2.75-18.57-2.75-18.57h-91.66s-2.75 12.92-2.75 18.57c0 1.387.061 2.759.175 4.116 15.244 4.991 31.513 7.698 48.405 7.698s33.161-2.707 48.405-7.698z" fill="#e2dee2"/></g></g><circle cx="255.66" cy="235.151" fill="#cbc4cc" r="135.96"/><circle cx="255.66" cy="235.151" fill="#b5adb6" r="105.96"/><path d="m407.876 126.135h-13.763c-4.298 0-7.782-3.484-7.782-7.782v-13.763c0-4.298 3.484-7.782 7.782-7.782h13.763c4.298 0 7.782 3.484 7.782 7.782v13.763c-.001 4.298-3.485 7.782-7.782 7.782z" fill="#f9f7f8"/></g><circle cx="255.66" cy="235.151" fill="#a79ba7" r="49.931"/><circle cx="255.66" cy="235.151" fill="#918291" r="20.931"/><circle cx="276.59" cy="202.416" fill="#f9f7f8" r="36.374"/></g><g><path d="m255.66 348.611c62.563 0 113.46-50.897 113.46-113.46s-50.897-113.46-113.46-113.46-113.46 50.898-113.46 113.46 50.897 113.46 113.46 113.46zm0-211.92c54.291 0 98.46 44.169 98.46 98.46s-44.169 98.46-98.46 98.46-98.46-44.169-98.46-98.46 44.169-98.46 98.46-98.46z"/><path d="m255.66 292.768c22.024 0 42.427-12.86 51.977-32.765 1.792-3.734.218-8.214-3.518-10.006-3.73-1.79-8.213-.219-10.006 3.518-7.069 14.733-22.163 24.253-38.453 24.253-23.499 0-42.616-19.117-42.616-42.616 0-10.211 3.684-20.095 10.372-27.831 2.709-3.134 2.364-7.87-.769-10.579-3.132-2.707-7.869-2.365-10.579.769-9.044 10.461-14.024 23.829-14.024 37.642-.001 31.768 25.846 57.615 57.616 57.615z"/><path d="m255.66 263.582c11.738 0 21.993-7.135 26.283-17.63 21.675-2.65 38.521-21.156 38.521-43.536 0-24.192-19.682-43.875-43.874-43.875s-43.874 19.683-43.874 43.875c0 4.686.746 9.199 2.113 13.436-4.828 5.208-7.6 12.083-7.6 19.299 0 15.677 12.754 28.431 28.431 28.431zm-13.431-28.431c0-1.559.286-3.081.804-4.514 5.664 6.724 13.305 11.724 22.02 14.103-2.435 2.393-5.763 3.842-9.393 3.842-7.406 0-13.431-6.025-13.431-13.431zm34.361-61.61c15.921 0 28.874 12.953 28.874 28.875 0 15.921-12.953 28.874-28.874 28.874s-28.874-12.953-28.874-28.874c0-15.922 12.953-28.875 28.874-28.875z"/><path d="m445.658 124.113c4.143 0 7.5-3.357 7.5-7.5v-16.991c0-20.025-15.328-36.533-34.868-38.418l-2.483-16.042c-1.347-8.698-8.713-15.012-17.515-15.012h-13.346c-8.802 0-16.168 6.313-17.515 15.012l-2.455 15.858h-37.174l-15.504-43.739c-3.663-10.336-13.493-17.281-24.46-17.281h-69.258c-10.966 0-20.796 6.944-24.461 17.281l-15.503 43.739h-14.069v-12.596c0-10.076-8.197-18.273-18.273-18.273h-29.914c-10.076 0-18.273 8.197-18.273 18.273v12.597h-1.323c-21.285 0-38.602 17.316-38.602 38.602v200c0 18.363 12.894 33.763 30.102 37.646v80.002c0 4.143 3.357 7.5 7.5 7.5s7.5-3.357 7.5-7.5v-79.048h52.721c5.668 5.483 11.785 10.502 18.291 15h-48.511c-4.143 0-7.5 3.357-7.5 7.5v113.096c0 4.143 3.357 7.5 7.5 7.5h258.793c4.143 0 7.5-3.357 7.5-7.5v-113.096c0-4.143-3.357-7.5-7.5-7.5h-47.511c6.505-4.498 12.623-9.517 18.291-15h51.721v150.644c0 4.109-3.343 7.453-7.451 7.453h-288.894c-4.108 0-7.451-3.344-7.451-7.453v-39.633c0-4.143-3.357-7.5-7.5-7.5s-7.5 3.357-7.5 7.5v39.633c0 12.381 10.071 22.453 22.451 22.453h288.891c12.38 0 22.451-10.072 22.451-22.453v-151.382c17.707-3.501 31.102-19.145 31.102-37.863v-151.047c0-4.143-3.357-7.5-7.5-7.5s-7.5 3.357-7.5 7.5v13.752h-29.945c-4.143 0-7.5 3.357-7.5 7.5s3.357 7.5 7.5 7.5h29.945v95.89h-22.899c-4.143 0-7.5 3.357-7.5 7.5s3.357 7.5 7.5 7.5h22.899v11.405c0 13.014-10.588 23.601-23.602 23.601h-45.732c18.975-24.326 30.296-54.9 30.296-88.071 0-79.104-64.355-143.459-143.46-143.459-32.488 0-63.13 10.592-88.61 30.63-3.257 2.561-3.82 7.275-1.26 10.531s7.275 3.821 10.531 1.26c22.812-17.938 50.247-27.421 79.339-27.421 70.833 0 128.46 57.626 128.46 128.459s-57.627 128.458-128.46 128.458-128.46-57.626-128.46-128.459c0-29.261 9.587-56.825 27.724-79.713 2.573-3.247 2.026-7.964-1.22-10.536-3.248-2.574-7.964-2.026-10.536 1.22-20.26 25.566-30.968 56.353-30.968 89.029 0 33.171 11.321 63.745 30.296 88.071h-45.733c-13.014 0-23.602-10.587-23.602-23.601v-11.405h22.899c4.143 0 7.5-3.357 7.5-7.5s-3.357-7.5-7.5-7.5h-22.898v-95.89h29.945c4.143 0 7.5-3.357 7.5-7.5s-3.357-7.5-7.5-7.5h-29.945v-62.704c0-13.014 10.588-23.602 23.602-23.602h317.793c13.014 0 23.602 10.588 23.602 23.602v16.991c-.001 4.143 3.356 7.5 7.499 7.5zm-151.464 295.873c11.338 10.6 17.726 25.211 17.726 40.995 0 1.783-.092 3.565-.258 5.337h-112.004c-.167-1.771-.258-3.554-.258-5.337 0-15.783 6.387-30.395 17.726-40.996 10.056 9.53 23.619 15.394 38.534 15.394 14.915.001 28.477-5.863 38.534-15.393zm-160.931-51.763h67.43c-.736 3.635-1.112 7.339-1.112 11.079 0 10.611 2.964 20.543 8.105 29.013-14.692 13.423-23.287 32.62-23.287 52.667 0 1.782.079 3.563.215 5.337h-51.352v-98.096zm243.793 98.095h-50.36c.134-1.775.223-3.555.223-5.337 0-20.047-8.596-39.243-23.287-52.666 5.142-8.47 8.105-18.402 8.105-29.014 0-3.74-.379-7.443-1.112-11.079h66.43v98.096zm-80.845-93.553c.349 2.154.526 4.337.526 6.537 0 22.65-18.428 41.078-41.078 41.078s-41.078-18.428-41.078-41.078c0-2.2.18-4.383.529-6.537 12.864 3.797 26.471 5.845 40.55 5.845s27.686-2.048 40.551-5.845zm86.045-325.308c.206-1.337 1.338-2.307 2.69-2.307h13.346c1.353 0 2.484.97 2.69 2.307l2.1 13.563h-22.927zm-174-25.164c1.547-4.362 5.696-7.293 10.324-7.293h69.259c4.628 0 8.776 2.931 10.322 7.293l13.728 38.728h-117.359zm-95.17 26.131c0-1.805 1.469-3.273 3.273-3.273h29.913c1.805 0 3.273 1.469 3.273 3.273v12.597h-36.46v-12.597z"/><path d="m282.583 30.51h-54.336c-4.143 0-7.5 3.357-7.5 7.5s3.357 7.5 7.5 7.5h54.336c4.143 0 7.5-3.357 7.5-7.5s-3.357-7.5-7.5-7.5z"/><path d="m109.121 114.405c-4.143 0-7.5 3.357-7.5 7.5s3.357 7.5 7.5 7.5h4.468c4.143 0 7.5-3.357 7.5-7.5s-3.357-7.5-7.5-7.5z"/><path d="m394.113 89.309c-8.427 0-15.282 6.855-15.282 15.282v13.763c0 8.427 6.855 15.282 15.282 15.282h13.763c8.427 0 15.282-6.855 15.282-15.282v-13.763c0-8.427-6.855-15.282-15.282-15.282zm14.045 15.282v13.763c0 .155-.127.282-.282.282h-13.763c-.155 0-.282-.127-.282-.282v-13.763c0-.155.127-.282.282-.282h13.763c.155 0 .282.127.282.282z"/></g></g></svg>