<svg width="157" height="54" viewBox="0 0 157 54" fill="none" xmlns="http://www.w3.org/2000/svg">
<path d="M27.0001 53.2069C41.4737 53.2069 53.2069 41.4737 53.2069 27.0001C53.2069 12.5264 41.4737 0.793243 27.0001 0.793243C12.5264 0.793243 0.793243 12.5264 0.793243 27.0001C0.793243 41.4737 12.5264 53.2069 27.0001 53.2069Z" fill="#F9F7F8"/>
<path d="M43.8688 15.7403L45.0409 14.5683C45.6723 13.9369 46.02 13.0973 46.02 12.2043C46.02 11.3114 45.6723 10.4718 45.0409 9.84051L44.1596 8.95929C43.5282 8.32788 42.6887 7.98013 41.7957 7.98013C40.9027 7.98013 40.0632 8.32788 39.4318 8.95929L38.2597 10.1314C35.036 7.97251 31.1626 6.7117 27 6.7117C15.8129 6.7117 6.71158 15.813 6.71158 27.0001C6.71158 38.1871 15.8129 47.2884 27 47.2884C38.187 47.2884 47.2883 38.1871 47.2883 27.0001C47.2884 22.8373 46.0275 18.964 43.8688 15.7403Z" fill="#EFEDEF"/>
<path d="M41.0921 15.5256L43.5451 13.0724C44.0247 12.5929 44.0247 11.8155 43.5451 11.3361L42.664 10.4549C42.1845 9.97536 41.4071 9.97536 40.9276 10.4549L38.4745 12.908L35.9832 15.5255L38.5102 18.0932L41.0921 15.5256Z" fill="#C9BFC8"/>
<path d="M27.0001 45.1732C37.0368 45.1732 45.1732 37.0368 45.1732 27.0001C45.1732 16.9633 37.0368 8.82697 27.0001 8.82697C16.9633 8.82697 8.82697 16.9633 8.82697 27.0001C8.82697 37.0368 16.9633 45.1732 27.0001 45.1732Z" fill="#F9F7F8"/>
<path d="M27.0001 42.0002C35.2844 42.0002 42.0002 35.2844 42.0002 27.0001C42.0002 18.7157 35.2844 11.9999 27.0001 11.9999C18.7157 11.9999 11.9999 18.7157 11.9999 27.0001C11.9999 35.2844 18.7157 42.0002 27.0001 42.0002Z" fill="#ADE194"/>
<path d="M17.662 27.0001C17.662 19.6967 22.9126 13.5954 29.8347 12.2678C28.9175 12.0919 27.9677 11.9998 27 11.9998C18.7288 11.9998 11.9998 18.7289 11.9998 27C11.9998 35.271 18.7289 42.0001 27 42.0001C27.9677 42.0001 28.9175 41.9079 29.8347 41.732C22.9126 40.4045 17.662 34.3035 17.662 27.0001Z" fill="#97DA7B"/>
<path d="M50.9807 14.5833C49.0697 10.901 46.2856 7.65615 42.9293 5.19957C42.5757 4.94087 42.0795 5.01765 41.8206 5.37122C41.5619 5.72479 41.6387 6.22114 41.9923 6.47984C45.1524 8.79279 47.7737 11.8476 49.5726 15.314C51.4577 18.9467 52.4136 22.8783 52.4136 27.0001C52.4136 33.7883 49.7702 40.1701 44.9702 44.9702C40.1702 49.7702 33.7883 52.4136 27.0001 52.4136C20.2118 52.4136 13.83 49.7702 9.02991 44.9702C4.22992 40.1701 1.58646 33.7882 1.58646 27.0001C1.58646 20.2119 4.22992 13.8299 9.02991 9.02991C13.8299 4.22992 20.2118 1.58646 27.0001 1.58646C31.2737 1.58646 35.5007 2.66842 39.2241 4.71538C39.6081 4.92648 40.0903 4.78635 40.3015 4.40242C40.5126 4.0185 40.3724 3.53622 39.9885 3.32511C36.0314 1.14987 31.5401 0 27.0001 0C19.788 0 13.0078 2.80846 7.90808 7.90808C2.80835 13.0077 0 19.788 0 27.0001C0 34.2121 2.80846 40.9923 7.90808 46.0919C13.0077 51.1915 19.788 54 26.9999 54C34.2119 54 40.9923 51.1915 46.0919 46.0919C51.1915 40.9923 54 34.212 54 27.0001C54 22.6832 52.956 18.3895 50.9807 14.5833Z" fill="black"/>
<path d="M44.6979 12.2043C44.6979 11.6645 44.4877 11.1569 44.106 10.7752L43.2249 9.894C42.4369 9.10596 41.1546 9.10596 40.3667 9.894L38.405 11.8558C35.2286 9.45773 31.2777 8.03372 27 8.03372C24.3288 8.03372 21.7457 8.57841 19.3225 9.65276C16.9826 10.6902 14.9056 12.1679 13.1492 14.0451C12.8499 14.365 12.8666 14.867 13.1864 15.1663C13.5063 15.4655 14.0083 15.4489 14.3076 15.129C17.5835 11.6281 22.2096 9.62018 27 9.62018C36.5833 9.62018 44.3799 17.4168 44.3799 27C44.3799 36.5833 36.5833 44.3799 27 44.3799C17.4168 44.3799 9.62007 36.5833 9.62007 27C9.62007 23.6878 10.5557 20.4666 12.3256 17.6845C12.5607 17.3148 12.4517 16.8246 12.0822 16.5894C11.7124 16.3543 11.2224 16.4632 10.9871 16.8329C9.05498 19.8698 8.03372 23.3856 8.03372 26.9999C8.03372 37.458 16.542 45.9663 27 45.9663C37.4581 45.9663 45.9664 37.458 45.9664 26.9999C45.9664 22.7223 44.5424 18.7715 42.1443 15.5951L44.106 13.6333C44.4877 13.2516 44.6979 12.7441 44.6979 12.2043ZM42.9843 12.5116L41.1314 14.3644C40.6607 13.8387 40.1614 13.3393 39.6356 12.8686L41.4884 11.0157C41.658 10.8462 41.9336 10.8463 42.1031 11.0157L42.9843 11.897C43.0663 11.979 43.1116 12.0882 43.1116 12.2042C43.1115 12.3203 43.0662 12.4295 42.9843 12.5116Z" fill="black"/>
<path d="M27 42.7935C35.7085 42.7935 42.7935 35.7085 42.7935 27C42.7935 18.2915 35.7085 11.2066 27 11.2066C18.2915 11.2066 11.2066 18.2915 11.2066 27C11.2066 35.7085 18.2914 42.7935 27 42.7935ZM27 12.793C34.8338 12.793 41.207 19.1662 41.207 26.9999C41.207 34.8337 34.8338 41.2069 27 41.2069C19.1663 41.2069 12.7931 34.8337 12.7931 26.9999C12.7931 19.1662 19.1662 12.793 27 12.793Z" fill="black"/>
<path d="M26.2068 36.2762V37.6174C26.2068 38.0555 26.562 38.4106 27 38.4106C27.4381 38.4106 27.7933 38.0555 27.7933 37.6174V36.276C29.4836 36.1147 31.0967 35.4424 32.4029 34.3405C32.7378 34.0581 32.7803 33.5576 32.4978 33.2228C32.2153 32.8878 31.7148 32.8454 31.38 33.1279C30.3598 33.9884 29.1088 34.5252 27.7933 34.6803V22.0956C27.7933 21.6575 27.4381 21.3024 27 21.3024C26.562 21.3024 26.2068 21.6575 26.2068 22.0956V34.6805C22.8303 34.2863 20.2009 31.4098 20.2009 27.9292C20.2009 25.4201 23.6444 21.0076 26.8669 17.7147C26.912 17.6685 26.9642 17.6588 27 17.6588C27.0359 17.6588 27.088 17.6685 27.1332 17.7146C30.3557 21.0075 33.7992 25.4201 33.7992 27.9292C33.7992 28.8848 33.6032 29.811 33.2167 30.6821C33.0391 31.0827 33.2197 31.5513 33.6201 31.7289C34.0207 31.9065 34.4893 31.7259 34.6669 31.3255C35.1438 30.2504 35.3856 29.1077 35.3856 27.9292C35.3856 24.4052 30.9257 19.3216 28.2671 16.6051C27.9309 16.2615 27.4808 16.0723 27 16.0723C26.5192 16.0723 26.0692 16.2615 25.733 16.6051C24.8117 17.5465 23.0379 19.4365 21.5097 21.5173C19.5885 24.1333 18.6144 26.2906 18.6144 27.9292C18.6144 32.2854 21.9537 35.8751 26.2068 36.2762Z" fill="black"/>
<path d="M33.8789 18.4256C35.1343 19.4348 36.1715 20.7291 36.8785 22.1685C37.0164 22.4492 37.2981 22.6122 37.5911 22.6122C37.7085 22.6122 37.8277 22.586 37.9403 22.5308C38.3335 22.3376 38.4956 21.8623 38.3025 21.469C37.4938 19.8228 36.3079 18.3427 34.8729 17.1891C34.5314 16.9145 34.0321 16.9688 33.7577 17.3103C33.4832 17.6518 33.5374 18.1511 33.8789 18.4256Z" fill="black"/>
<path d="M15.6976 32.531C16.5063 34.1773 17.6922 35.6572 19.1271 36.8108C19.2736 36.9286 19.4491 36.9859 19.6236 36.9859C19.8556 36.9859 20.0856 36.8845 20.2423 36.6896C20.5167 36.3482 20.4626 35.8489 20.1211 35.5744C18.8658 34.5652 17.8285 33.271 17.1214 31.8315C16.9283 31.4383 16.4529 31.2762 16.0597 31.4693C15.6666 31.6624 15.5044 32.1377 15.6976 32.531Z" fill="black"/>
<path d="M67.6914 19.9375L71.5 31.8086L75.2969 19.9375H80.7109V37H76.5859V33.0156L76.9844 24.8594L72.8594 37H70.1406L66.0039 24.8477L66.4023 33.0156V37H62.2891V19.9375H67.6914ZM90.2969 37C90.1562 36.7422 90.0312 36.3633 89.9219 35.8633C89.1953 36.7773 88.1797 37.2344 86.875 37.2344C85.6797 37.2344 84.6641 36.875 83.8281 36.1562C82.9922 35.4297 82.5742 34.5195 82.5742 33.4258C82.5742 32.0508 83.082 31.0117 84.0977 30.3086C85.1133 29.6055 86.5898 29.2539 88.5273 29.2539H89.7461V28.5859C89.7461 27.4219 89.2422 26.8398 88.2344 26.8398C87.2969 26.8398 86.8281 27.3008 86.8281 28.2227H82.8789C82.8789 26.9961 83.3984 26 84.4375 25.2344C85.4844 24.4688 86.8164 24.0859 88.4336 24.0859C90.0508 24.0859 91.3281 24.4805 92.2656 25.2695C93.2031 26.0586 93.6836 27.1406 93.707 28.5156V34.1289C93.7227 35.293 93.9023 36.1836 94.2461 36.8008V37H90.2969ZM87.8242 34.4219C88.3164 34.4219 88.7227 34.3164 89.043 34.1055C89.3711 33.8945 89.6055 33.6562 89.7461 33.3906V31.3633H88.5977C87.2227 31.3633 86.5352 31.9805 86.5352 33.2148C86.5352 33.5742 86.6562 33.8672 86.8984 34.0938C87.1406 34.3125 87.4492 34.4219 87.8242 34.4219ZM99.5312 24.3203L99.6602 25.8086C100.535 24.6602 101.742 24.0859 103.281 24.0859C104.602 24.0859 105.586 24.4805 106.234 25.2695C106.891 26.0586 107.23 27.2461 107.254 28.832V37H103.293V28.9961C103.293 28.3555 103.164 27.8867 102.906 27.5898C102.648 27.2852 102.18 27.1328 101.5 27.1328C100.727 27.1328 100.152 27.4375 99.7773 28.0469V37H95.8281V24.3203H99.5312ZM113.617 37H109.656V24.3203H113.617V37ZM109.422 21.0508C109.422 20.4883 109.625 20.0273 110.031 19.668C110.438 19.3086 110.965 19.1289 111.613 19.1289C112.262 19.1289 112.789 19.3086 113.195 19.668C113.602 20.0273 113.805 20.4883 113.805 21.0508C113.805 21.6133 113.602 22.0742 113.195 22.4336C112.789 22.793 112.262 22.9727 111.613 22.9727C110.965 22.9727 110.438 22.793 110.031 22.4336C109.625 22.0742 109.422 21.6133 109.422 21.0508ZM116.934 37V27.0625H115.094V24.3203H116.934V23.3125C116.934 21.8672 117.359 20.7461 118.211 19.9492C119.062 19.1523 120.258 18.7539 121.797 18.7539C122.359 18.7539 122.977 18.8359 123.648 19L123.66 21.9062C123.418 21.8359 123.094 21.8008 122.688 21.8008C121.492 21.8008 120.895 22.3164 120.895 23.3477V24.3203H123.367V27.0625H120.895V37H116.934ZM130.609 37.2344C128.664 37.2344 127.09 36.6562 125.887 35.5C124.684 34.3359 124.082 32.8242 124.082 30.9648V30.6367C124.082 29.3398 124.32 28.1953 124.797 27.2031C125.281 26.2109 125.984 25.4453 126.906 24.9062C127.828 24.3594 128.922 24.0859 130.188 24.0859C131.969 24.0859 133.375 24.6406 134.406 25.75C135.438 26.8516 135.953 28.3906 135.953 30.3672V31.9023H128.102C128.242 32.6133 128.551 33.1719 129.027 33.5781C129.504 33.9844 130.121 34.1875 130.879 34.1875C132.129 34.1875 133.105 33.75 133.809 32.875L135.613 35.0078C135.121 35.6875 134.422 36.2305 133.516 36.6367C132.617 37.0352 131.648 37.2344 130.609 37.2344ZM130.164 27.1328C129.008 27.1328 128.32 27.8984 128.102 29.4297H132.086V29.125C132.102 28.4922 131.941 28.0039 131.605 27.6602C131.27 27.3086 130.789 27.1328 130.164 27.1328ZM144.191 33.4375C144.191 33.1016 144.016 32.832 143.664 32.6289C143.312 32.4258 142.645 32.2148 141.66 31.9961C140.676 31.7773 139.863 31.4922 139.223 31.1406C138.582 30.7812 138.094 30.3477 137.758 29.8398C137.422 29.332 137.254 28.75 137.254 28.0938C137.254 26.9297 137.734 25.9727 138.695 25.2227C139.656 24.4648 140.914 24.0859 142.469 24.0859C144.141 24.0859 145.484 24.4648 146.5 25.2227C147.516 25.9805 148.023 26.9766 148.023 28.2109H144.062C144.062 27.1953 143.527 26.6875 142.457 26.6875C142.043 26.6875 141.695 26.8047 141.414 27.0391C141.133 27.2656 140.992 27.5508 140.992 27.8945C140.992 28.2461 141.164 28.5312 141.508 28.75C141.852 28.9688 142.398 29.1484 143.148 29.2891C143.906 29.4297 144.57 29.5977 145.141 29.793C147.047 30.4492 148 31.625 148 33.3203C148 34.4766 147.484 35.418 146.453 36.1445C145.43 36.8711 144.102 37.2344 142.469 37.2344C141.383 37.2344 140.414 37.0391 139.562 36.6484C138.711 36.2578 138.047 35.7266 137.57 35.0547C137.094 34.3828 136.855 33.6758 136.855 32.9336H140.547C140.562 33.5195 140.758 33.9492 141.133 34.2227C141.508 34.4883 141.988 34.6211 142.574 34.6211C143.113 34.6211 143.516 34.5117 143.781 34.293C144.055 34.0742 144.191 33.7891 144.191 33.4375ZM154.457 21.168V24.3203H156.543V27.0625H154.457V32.8633C154.457 33.3398 154.543 33.6719 154.715 33.8594C154.887 34.0469 155.227 34.1406 155.734 34.1406C156.125 34.1406 156.453 34.1172 156.719 34.0703V36.8945C156.008 37.1211 155.266 37.2344 154.492 37.2344C153.133 37.2344 152.129 36.9141 151.48 36.2734C150.832 35.6328 150.508 34.6602 150.508 33.3555V27.0625H148.891V24.3203H150.508V21.168H154.457Z" fill="black"/>
</svg>
