<svg width="330" height="330" viewBox="0 0 330 330" fill="none" xmlns="http://www.w3.org/2000/svg">
<path d="M218.536 192.976L217.12 190.476L200.554 166.018C183.755 141.215 147.431 140.61 129.816 164.841L113.98 186.625L90.6258 217.102H218.536V192.976Z" fill="#D1A08F"/>
<path d="M274.448 185.461C280.69 179.219 280.643 168.979 274.401 162.737C268.159 156.495 258.038 156.495 251.796 162.737L221.906 192.626L175.823 236.674L214.267 256.384L274.448 185.461Z" fill="#FFBD86"/>
<path d="M218.536 192.976L217.12 190.476L207.881 176.836H163.692L154.853 174.453C147.444 172.459 139.813 171.447 132.173 171.447C129.689 171.447 127.224 171.564 124.779 171.77L113.98 186.626L90.6258 217.103H218.536V192.976Z" fill="#C68D7A"/>
<path d="M211.924 227.182H227.179C230.728 227.182 234.136 225.769 236.652 223.259L286.063 173.842C289.399 170.505 293.768 168.841 298.137 168.841C302.512 168.841 306.881 170.505 310.217 173.842C316.883 180.514 316.883 191.323 310.217 197.995L231.975 276.237C227.14 281.072 220.582 283.789 213.743 283.789H141.231L102.237 322.776C100.833 324.181 98.6586 324.462 96.9427 323.462L19.6863 278.425C17.2083 276.981 16.7682 273.583 18.7964 271.555L66.576 223.775C82.8377 193.201 118.065 177.914 151.498 186.915L161.984 189.742H211.924C217.093 189.742 221.772 191.839 225.159 195.227C228.547 198.615 230.644 203.293 230.644 208.462C230.644 218.8 222.262 227.182 211.924 227.182Z" fill="#FED2A4"/>
<path d="M211.924 232.023H164.585C161.912 232.023 159.745 229.857 159.745 227.183C159.745 224.51 161.912 222.343 164.585 222.343H211.924C214.597 222.343 216.764 224.51 216.764 227.183C216.764 229.857 214.597 232.023 211.924 232.023Z" fill="#FFBD86"/>
<path d="M190.765 104.109H165.549V87.7923C165.549 78.529 173.059 71.0196 182.322 71.0196H204.585C206.216 71.0196 207.537 72.3412 207.537 73.9718V87.3367C207.537 96.6001 200.028 104.109 190.765 104.109Z" fill="#97DA7B"/>
<path d="M140.335 104.109H165.55V87.7923C165.55 78.529 158.041 71.0196 148.777 71.0196H126.514C124.884 71.0196 123.562 72.3412 123.562 73.9718V87.3367C123.562 96.6001 131.072 104.109 140.335 104.109Z" fill="#97DA7B"/>
<path d="M190.765 71.0196H165.549V54.7024C165.549 45.4391 173.059 37.9297 182.322 37.9297H204.585C206.216 37.9297 207.537 39.2513 207.537 40.882V54.2468C207.537 63.5102 200.028 71.0196 190.765 71.0196Z" fill="#ADE194"/>
<path d="M140.335 71.0196H165.55V54.7024C165.55 45.4391 158.041 37.9297 148.777 37.9297H126.514C124.884 37.9297 123.562 39.2513 123.562 40.882V54.2468C123.562 63.5102 131.072 71.0196 140.335 71.0196Z" fill="#ADE194"/>
<path d="M190.765 37.9297H165.549V21.6125C165.549 12.3492 173.059 4.8398 182.322 4.8398H204.585C206.216 4.8398 207.537 6.16138 207.537 7.79206V21.1569C207.537 30.4203 200.028 37.9297 190.765 37.9297Z" fill="#C1E9AF"/>
<path d="M140.335 37.9297H165.55V21.6125C165.55 12.3492 158.041 4.8398 148.777 4.8398H126.514C124.884 4.8398 123.562 6.16138 123.562 7.79206V21.1569C123.562 30.4203 131.072 37.9297 140.335 37.9297Z" fill="#C1E9AF"/>
<path d="M38.5421 244.961L11.3599 272.143C9.46984 274.034 9.46984 277.098 11.3599 278.988C12.3047 279.933 13.5436 280.405 14.782 280.405C16.0203 280.405 17.2593 279.933 18.204 278.988L45.3862 251.806C47.2763 249.915 47.2763 246.851 45.3862 244.961C43.4961 243.072 40.4315 243.072 38.5421 244.961Z" fill="black"/>
<path d="M313.638 170.421C305.361 162.145 292.055 161.885 283.463 169.642C282.636 165.857 280.763 162.255 277.823 159.315C273.89 155.381 268.661 153.216 263.099 153.216C257.537 153.216 252.307 155.381 248.375 159.315L243.432 164.257C241.542 166.147 241.541 169.212 243.431 171.101C245.321 172.992 248.385 172.991 250.275 171.102L255.219 166.159C257.324 164.054 260.122 162.895 263.099 162.895C266.076 162.895 268.874 164.054 270.979 166.159C275.367 170.547 275.391 177.664 271.034 182.031L233.228 219.836C232.82 220.244 232.378 220.605 231.908 220.918C234.264 217.152 235.592 212.68 235.478 207.894C235.336 201.87 232.885 196.445 228.998 192.379L235.629 185.747C237.52 183.857 237.52 180.793 235.629 178.903C233.739 177.013 230.675 177.013 228.785 178.903L220.886 186.802C220.698 186.723 220.51 186.647 220.32 186.573L204.561 163.304C196.569 151.504 184.299 144.103 170.389 142.521V108.95H190.765C202.682 108.95 212.377 99.2548 212.377 87.338V73.9725C212.377 70.9647 210.661 68.3545 208.16 67.0561C210.808 63.4689 212.377 59.0389 212.377 54.2475V40.8819C212.377 37.8742 210.661 35.2639 208.16 33.9662C210.808 30.379 212.377 25.949 212.377 21.1576V7.79206C212.377 3.49563 208.882 1.52588e-05 204.585 1.52588e-05H182.322C175.56 1.52588e-05 169.516 3.12393 165.549 8.00178C161.584 3.12393 155.54 1.52588e-05 148.777 1.52588e-05H126.514C122.218 1.52588e-05 118.722 3.49563 118.722 7.79206V21.1569C118.722 25.9483 120.292 30.3783 122.94 33.9656C120.438 35.2639 118.722 37.8735 118.722 40.8813V54.2468C118.722 59.0376 120.292 63.4682 122.94 67.0555C120.438 68.3538 118.722 70.9641 118.722 73.9718V87.3374C118.722 99.2542 128.417 108.949 140.335 108.949H160.71V142.361C146.78 143.487 134.275 150.479 125.903 161.995L111.056 182.417C107.525 183.391 104.051 184.598 100.672 186.065C84.5329 193.069 71.0563 205.407 62.6519 220.853L56.5693 226.935C54.6792 228.825 54.6792 231.889 56.5693 233.779C58.4594 235.669 61.5239 235.669 63.414 233.779L69.9993 227.194C70.3381 226.855 70.6246 226.467 70.8498 226.045C78.2031 212.222 90.1631 201.177 104.526 194.944C118.889 188.711 135.125 187.52 150.244 191.591L160.729 194.414C161.139 194.524 161.562 194.58 161.987 194.58H211.926C219.758 194.58 226.096 201.1 225.798 208.997C225.514 216.509 219.103 222.343 211.585 222.343H164.588C161.866 222.343 159.669 224.59 159.75 227.331C159.83 229.98 162.14 232.023 164.791 232.023H227.179C232.05 232.023 236.63 230.126 240.074 226.682L289.49 177.266C294.261 172.494 302.025 172.494 306.796 177.266C309.107 179.577 310.38 182.65 310.38 185.918C310.38 189.187 309.106 192.261 306.796 194.571L293.034 208.332C291.144 210.223 291.144 213.287 293.034 215.177C294.925 217.067 297.989 217.067 299.879 215.177L313.64 201.415C317.779 197.276 320.059 191.773 320.059 185.918C320.059 180.063 317.778 174.56 313.638 170.421ZM202.698 42.7695V54.2468C202.698 60.8264 197.345 66.1791 190.765 66.1791H170.389V54.7024C170.389 48.1229 175.742 42.7701 182.322 42.7701H202.698V42.7695ZM128.402 42.7695H148.777C155.357 42.7695 160.71 48.1223 160.71 54.7018V66.1791H140.335C133.755 66.1791 128.402 60.8264 128.402 54.2468V42.7695ZM202.698 87.3374C202.698 93.9169 197.345 99.2697 190.765 99.2697H170.389V87.7923C170.389 81.2128 175.742 75.8593 182.322 75.8593H202.698V87.3374ZM182.322 9.67957H202.698V21.1569C202.698 27.7365 197.345 33.0899 190.765 33.0899H170.389V21.6119C170.389 15.0324 175.743 9.67957 182.322 9.67957ZM128.402 9.67957H148.777C155.357 9.67957 160.71 15.0324 160.71 21.6119V33.0899H140.335C133.755 33.0899 128.402 27.7365 128.402 21.1569V9.67957ZM128.402 87.3374V75.8593H148.777C155.357 75.8593 160.71 81.2128 160.71 87.7923V99.2697H140.335C133.755 99.2697 128.402 93.9169 128.402 87.3374ZM152.759 182.245C143.645 179.791 134.176 179.032 124.855 179.898L133.731 167.687C141.187 157.431 152.751 151.675 165.411 151.882C178.088 152.092 189.437 158.235 196.547 168.733L207.497 184.901H162.626L152.759 182.245Z" fill="black"/>
<path d="M278.437 222.928L228.549 272.816C224.594 276.771 219.336 278.949 213.744 278.949H141.229C139.945 278.949 138.714 279.459 137.807 280.366L96.4349 321.738C94.5448 323.628 94.5448 326.692 96.4349 328.582C97.3796 329.527 98.6186 329.999 99.8569 329.999C101.095 329.999 102.334 329.527 103.279 328.582L143.233 288.628H213.745C221.922 288.628 229.611 285.443 235.394 279.66L285.282 229.772C287.172 227.881 287.172 224.817 285.282 222.927C283.392 221.039 280.327 221.039 278.437 222.928Z" fill="black"/>
</svg>
