<svg width="226" height="266" viewBox="0 0 226 266" fill="none" xmlns="http://www.w3.org/2000/svg">
<path d="M59.576 82.6666C44.2289 77.5393 27.6679 75.9745 11.1645 78.417L12.9398 83.1863L10.3849 86.7592C27.8934 116.472 59.0126 135.752 93.632 138.019L102.529 138.606L111.306 140.436V103.258L59.576 82.6666Z" fill="#97DA7B"/>
<path d="M118.421 86.4816L89.7135 50.9034C80.6796 40.4082 69.7271 31.4788 57.2441 24.6729L54.6009 28.475L49.4835 26.5028C44.3583 66.0945 59.8867 105.591 90.6801 131.082L100.752 139.417L121.165 156.38L118.421 86.4816Z" fill="#ADE194"/>
<path d="M219.157 83.5911L216.954 80.3363L216.508 77.2883C200.534 75.1747 184.546 76.8008 169.694 81.7629L110.155 126.368V139.94L126.742 137.703L135.639 137.115C170.829 134.811 202.409 114.933 219.747 84.3816L219.157 83.5911Z" fill="#97DA7B"/>
<path d="M175.946 26.6088L169.922 27.616L168.189 24.6657C155.7 31.4721 144.743 40.4041 135.706 50.9029L103.057 118.108L107.64 147.337L124.668 139.417L134.74 131.081C165.505 105.614 181.034 66.1653 175.946 26.6088Z" fill="#ADE194"/>
<path d="M116.608 6.92908L112.71 9.49688L108.812 7.05952C94.2857 28.0478 86.8292 52.6626 86.8292 77.4748C86.8292 93.5645 89.9629 109.737 96.3447 125.053L101.692 137.884L109.628 155.366H115.963L123.208 137.884L128.789 124.497C144.937 85.7447 140.314 41.4845 116.608 6.92908Z" fill="#97DA7B"/>
<path d="M184.23 163.204V243.481C184.23 253.251 176.31 261.171 166.545 261.171H58.3552C48.5902 261.171 40.67 253.251 40.67 243.481V163.204C40.67 150.066 51.3186 139.418 64.4564 139.418H160.444C173.582 139.418 184.23 150.066 184.23 163.204Z" fill="#EFEDEF"/>
<path d="M71.0071 243.481V163.204C71.0071 150.066 81.6556 139.418 94.7935 139.418H64.4564C51.3186 139.418 40.67 150.066 40.67 163.204V243.481C40.67 253.251 48.5902 261.171 58.3552 261.171H88.6923C78.9272 261.171 71.0071 253.251 71.0071 243.481Z" fill="#E5E1E5"/>
<path d="M168.639 163.204V243.481C168.639 244.64 167.699 245.58 166.545 245.58H58.3552C57.2015 245.58 56.2608 244.64 56.2608 243.481V163.204C56.2608 158.697 59.9486 155.008 64.4564 155.008H67.4212C68.5188 155.008 69.4091 154.119 69.4091 153.02V139.937V139.418H156.011V139.937V153.02C156.011 154.118 156.9 155.008 157.999 155.008H160.444C164.952 155.008 168.639 158.696 168.639 163.204Z" fill="#C68D7A"/>
<path d="M69.4091 153.02C69.4091 154.119 68.5194 155.008 67.4212 155.008H64.4564C59.9491 155.008 56.2608 158.696 56.2608 163.204V243.481C56.2608 244.64 57.2015 245.58 58.3552 245.58H71.1355C71.0539 244.891 71.0071 244.192 71.0071 243.481V163.204C71.0071 150.066 67.5855 139.418 80.7233 139.418H69.4091V139.937V153.02Z" fill="#BC7C63"/>
<path d="M224.714 77.4348C223.746 75.5 221.892 74.1456 219.759 73.812L219.578 73.7834C205.021 71.5046 190.017 72.2654 175.744 75.9334C180.677 59.4305 182.031 41.9522 179.648 24.8502C179.336 22.6072 177.95 20.6422 175.942 19.5945C173.934 18.5468 171.53 18.5354 169.513 19.5618L169.334 19.6527C157.47 25.69 146.833 33.5436 137.622 43.0425C136.88 40.349 136.051 37.672 135.129 35.0164C134.422 32.9828 132.203 31.906 130.167 32.6139C128.134 33.3201 127.059 35.5413 127.765 37.5748C137.446 65.4392 136.532 95.7768 125.19 122.998L119.973 135.52H116.348V103.046C116.348 100.894 114.604 99.1486 112.451 99.1486C110.297 99.1486 108.553 100.894 108.553 103.046V135.52H104.928L99.942 123.552C92.1009 104.733 89.1828 84.0796 91.5038 63.8251C93.5223 46.2085 99.4717 29.1953 108.813 14.1674V67.1553C108.813 69.3078 110.558 71.0529 112.711 71.0529C114.864 71.0529 116.609 69.3078 116.609 67.1553V14.0821C118.309 16.8422 119.9 19.6688 121.363 22.5412C122.34 24.4599 124.689 25.2228 126.605 24.2458C128.524 23.2687 129.287 20.9218 128.31 19.0036C125.53 13.5442 122.323 8.23454 118.778 3.22158L118.657 3.05008C117.312 1.14904 115.119 0.00831509 112.791 0C112.782 0 112.773 0 112.764 0C110.446 0 108.256 1.12254 106.903 3.00642C98.2115 15.1044 91.7174 28.6564 87.697 42.9386C78.5083 33.4885 67.9071 25.6687 56.0857 19.6527L55.909 19.5628C53.891 18.5354 51.4869 18.5478 49.4783 19.595C47.4707 20.6427 46.0852 22.6072 45.7724 24.8502C43.3901 41.9496 44.7434 59.4253 49.6737 75.9256C35.4019 72.2592 20.3973 71.5051 5.83863 73.7839L5.66609 73.8115C3.52912 74.1456 1.67537 75.5 0.707184 77.4343C-0.260485 79.3686 -0.233981 81.6646 0.779941 83.5755C9.42711 99.8824 22.1882 113.803 37.6849 123.831C45.3421 128.786 53.5943 132.738 62.204 135.62C47.9904 136.772 36.7749 148.699 36.7749 163.204V216.679C36.7749 218.831 38.5195 220.576 40.6726 220.576C42.8257 220.576 44.5703 218.831 44.5703 216.679V163.205C44.5703 152.238 53.4924 143.316 64.459 143.316H65.5103V151.111H64.459C57.7908 151.111 52.3657 156.536 52.3657 163.205V243.483C52.3657 246.787 55.0541 249.476 58.3583 249.476H166.544C169.848 249.476 172.536 246.787 172.536 243.483V163.205C172.536 156.536 167.112 151.111 160.443 151.111H159.911V143.316H160.443C171.41 143.316 180.332 152.238 180.332 163.205V243.483C180.332 251.086 174.146 257.271 166.544 257.271H58.3573C50.7547 257.271 44.5693 251.086 44.5693 243.483V233.29C44.5693 231.137 42.8247 229.392 40.6716 229.392C38.5185 229.392 36.7739 231.137 36.7739 233.29V243.483C36.7739 255.384 46.4563 265.066 58.3573 265.066H166.543C178.444 265.066 188.126 255.384 188.126 243.483V163.205C188.126 148.828 177.11 136.98 163.076 135.649C171.017 133.002 178.661 129.452 185.801 125.042C187.632 123.91 188.2 121.509 187.069 119.678C185.937 117.847 183.535 117.279 181.704 118.41C168.641 126.48 153.774 131.484 138.524 132.972C143.865 128.419 148.796 123.419 153.247 118.027L213.164 87.707C208.058 95.5513 201.892 102.631 194.751 108.821C193.124 110.231 192.949 112.692 194.359 114.319C195.13 115.208 196.215 115.663 197.305 115.663C198.21 115.663 199.12 115.35 199.857 114.711C210.019 105.901 218.358 95.4266 224.64 83.5765C225.654 81.6651 225.681 79.3696 224.714 77.4348ZM165.012 31.0002L142.202 76.5019C142.175 68.3604 141.374 60.2142 139.781 52.173C147.151 43.8668 155.605 36.7693 165.012 31.0002ZM92.7459 126.551L93.4958 128.351L93.1653 128.077C78.4257 115.875 66.9732 99.9978 60.0457 82.1609C53.9975 66.5862 51.5124 49.7861 52.7347 33.158L84.5311 97.5531C86.1125 107.482 88.8612 117.228 92.7459 126.551ZM85.4993 52.0156C84.7628 55.6248 84.1787 59.2689 83.7583 62.9385C83.2334 67.5211 82.9626 72.1225 82.9377 76.7202L60.3425 30.9592C69.7172 36.6997 78.1456 43.7576 85.4993 52.0156ZM52.7492 84.9043C52.7596 84.9303 52.769 84.9568 52.7789 84.9828C55.3992 91.73 58.6368 98.2074 62.4093 104.349L15.3786 80.5493C27.9604 79.6534 40.7033 81.1293 52.7492 84.9043ZM12.274 87.7153L72.1712 118.025C76.6229 123.418 81.5537 128.418 86.8957 132.971C70.9078 131.415 55.4194 126.023 41.9183 117.287C30.0745 109.622 19.9608 99.5004 12.274 87.7153ZM156.013 158.907H160.442C162.812 158.907 164.74 160.835 164.74 163.205V202.464H102.549C100.396 202.464 98.6511 204.209 98.6511 206.362C98.6511 208.514 100.396 210.259 102.549 210.259H164.74V241.681H60.1601V163.205C60.1601 160.835 62.0881 158.907 64.4579 158.907H69.407C71.5601 158.907 73.3047 157.161 73.3047 155.009V143.316H152.115V155.009C152.115 157.162 153.86 158.907 156.013 158.907ZM132.254 128.077L131.131 129.007L132.385 125.998C136.282 116.646 139.016 106.947 140.596 97.1041L172.681 33.0977C173.914 49.7455 171.43 66.5675 165.375 82.1609C158.446 99.9978 146.994 115.875 132.254 128.077ZM172.641 84.9828C172.651 84.9568 172.66 84.9314 172.67 84.9054C184.717 81.1293 197.463 79.6534 210.042 80.5493L163.01 104.349C166.783 98.2079 170.02 91.73 172.641 84.9828Z" fill="black"/>
<path d="M112.45 79.6954C110.297 79.6954 108.552 81.4406 108.552 83.5931V87.9674C108.552 90.12 110.297 91.8651 112.45 91.8651C114.603 91.8651 116.348 90.12 116.348 87.9674V83.5931C116.348 81.44 114.603 79.6954 112.45 79.6954Z" fill="black"/>
<path d="M86.826 202.464H83.4553C81.3022 202.464 79.5576 204.209 79.5576 206.361C79.5576 208.514 81.3022 210.259 83.4553 210.259H86.826C88.9791 210.259 90.7237 208.514 90.7237 206.361C90.7237 204.209 88.9786 202.464 86.826 202.464Z" fill="black"/>
<path d="M109.975 175.148H78.1513C75.9982 175.148 74.2536 176.893 74.2536 179.046C74.2536 181.198 75.9982 182.943 78.1513 182.943H109.975C112.128 182.943 113.873 181.198 113.873 179.046C113.873 176.893 112.128 175.148 109.975 175.148Z" fill="black"/>
<path d="M146.042 175.148H129.335C127.182 175.148 125.437 176.893 125.437 179.046C125.437 181.198 127.182 182.943 129.335 182.943H146.042C148.195 182.943 149.94 181.198 149.94 179.046C149.94 176.893 148.194 175.148 146.042 175.148Z" fill="black"/>
<path d="M100.753 162.523H105.731C107.885 162.523 109.629 160.778 109.629 158.625C109.629 156.473 107.885 154.728 105.731 154.728H100.753C98.5997 154.728 96.8551 156.473 96.8551 158.625C96.8551 160.778 98.6002 162.523 100.753 162.523Z" fill="black"/>
</svg>
