<svg width="1152" height="472" viewBox="0 0 1152 472" fill="none" xmlns="http://www.w3.org/2000/svg">
<rect width="1152" height="472" fill="#D4F1C6"/>
<path d="M221.156 181H204.797L180.609 138.531V181H164.156V112.75H180.609L204.75 155.219V112.75H221.156V181ZM259.406 181C258.844 179.969 258.344 178.453 257.906 176.453C255 180.109 250.938 181.938 245.719 181.938C240.938 181.938 236.875 180.5 233.531 177.625C230.188 174.719 228.516 171.078 228.516 166.703C228.516 161.203 230.547 157.047 234.609 154.234C238.672 151.422 244.578 150.016 252.328 150.016H257.203V147.344C257.203 142.688 255.188 140.359 251.156 140.359C247.406 140.359 245.531 142.203 245.531 145.891H229.734C229.734 140.984 231.812 137 235.969 133.938C240.156 130.875 245.484 129.344 251.953 129.344C258.422 129.344 263.531 130.922 267.281 134.078C271.031 137.234 272.953 141.562 273.047 147.062V169.516C273.109 174.172 273.828 177.734 275.203 180.203V181H259.406ZM249.516 170.688C251.484 170.688 253.109 170.266 254.391 169.422C255.703 168.578 256.641 167.625 257.203 166.562V158.453H252.609C247.109 158.453 244.359 160.922 244.359 165.859C244.359 167.297 244.844 168.469 245.812 169.375C246.781 170.25 248.016 170.688 249.516 170.688ZM300.234 117.672V130.281H308.578V141.25H300.234V164.453C300.234 166.359 300.578 167.688 301.266 168.438C301.953 169.188 303.312 169.562 305.344 169.562C306.906 169.562 308.219 169.469 309.281 169.281V180.578C306.438 181.484 303.469 181.938 300.375 181.938C294.938 181.938 290.922 180.656 288.328 178.094C285.734 175.531 284.438 171.641 284.438 166.422V141.25H277.969V130.281H284.438V117.672H300.234ZM345.047 175.516C341.703 179.797 337.188 181.938 331.5 181.938C325.938 181.938 321.719 180.328 318.844 177.109C316 173.859 314.578 169.203 314.578 163.141V130.281H330.375V163.234C330.375 167.578 332.484 169.75 336.703 169.75C340.328 169.75 342.906 168.453 344.438 165.859V130.281H360.328V181H345.516L345.047 175.516ZM399.703 144.578L394.5 144.203C389.531 144.203 386.344 145.766 384.938 148.891V181H369.141V130.281H383.953L384.469 136.797C387.125 131.828 390.828 129.344 395.578 129.344C397.266 129.344 398.734 129.531 399.984 129.906L399.703 144.578ZM429 181.938C421.219 181.938 414.922 179.625 410.109 175C405.297 170.344 402.891 164.297 402.891 156.859V155.547C402.891 150.359 403.844 145.781 405.75 141.812C407.688 137.844 410.5 134.781 414.188 132.625C417.875 130.438 422.25 129.344 427.312 129.344C434.438 129.344 440.062 131.562 444.188 136C448.312 140.406 450.375 146.562 450.375 154.469V160.609H418.969C419.531 163.453 420.766 165.688 422.672 167.312C424.578 168.938 427.047 169.75 430.078 169.75C435.078 169.75 438.984 168 441.797 164.5L449.016 173.031C447.047 175.75 444.25 177.922 440.625 179.547C437.031 181.141 433.156 181.938 429 181.938ZM427.219 141.531C422.594 141.531 419.844 144.594 418.969 150.719H434.906V149.5C434.969 146.969 434.328 145.016 432.984 143.641C431.641 142.234 429.719 141.531 427.219 141.531Z" fill="#78C2A4"/>
<path d="M166.049 244.449H177.668V248H161.602V222.406H166.049V244.449ZM179.865 238.314C179.865 236.451 180.234 234.775 180.973 233.287C181.711 231.787 182.748 230.639 184.084 229.842C185.42 229.033 186.955 228.629 188.689 228.629C191.256 228.629 193.336 229.455 194.93 231.107C196.535 232.76 197.402 234.951 197.531 237.682L197.549 238.684C197.549 240.559 197.186 242.234 196.459 243.711C195.744 245.188 194.713 246.33 193.365 247.139C192.029 247.947 190.482 248.352 188.725 248.352C186.041 248.352 183.891 247.461 182.273 245.68C180.668 243.887 179.865 241.502 179.865 238.525V238.314ZM184.137 238.684C184.137 240.641 184.541 242.176 185.35 243.289C186.158 244.391 187.283 244.941 188.725 244.941C190.166 244.941 191.285 244.379 192.082 243.254C192.891 242.129 193.295 240.482 193.295 238.314C193.295 236.393 192.879 234.869 192.047 233.744C191.227 232.619 190.107 232.057 188.689 232.057C187.295 232.057 186.188 232.613 185.367 233.727C184.547 234.828 184.137 236.48 184.137 238.684ZM211.119 232.883C210.557 232.789 209.977 232.742 209.379 232.742C207.422 232.742 206.104 233.492 205.424 234.992V248H201.152V228.98H205.23L205.336 231.107C206.367 229.455 207.797 228.629 209.625 228.629C210.234 228.629 210.738 228.711 211.137 228.875L211.119 232.883ZM221.842 248.352C219.135 248.352 216.938 247.502 215.25 245.803C213.574 244.092 212.736 241.818 212.736 238.982V238.455C212.736 236.557 213.1 234.863 213.826 233.375C214.564 231.875 215.596 230.709 216.92 229.877C218.244 229.045 219.721 228.629 221.35 228.629C223.939 228.629 225.938 229.455 227.344 231.107C228.762 232.76 229.471 235.098 229.471 238.121V239.844H217.043C217.172 241.414 217.693 242.656 218.607 243.57C219.533 244.484 220.693 244.941 222.088 244.941C224.045 244.941 225.639 244.15 226.869 242.568L229.172 244.766C228.41 245.902 227.391 246.787 226.113 247.42C224.848 248.041 223.424 248.352 221.842 248.352ZM221.332 232.057C220.16 232.057 219.211 232.467 218.484 233.287C217.77 234.107 217.312 235.25 217.113 236.715H225.252V236.398C225.158 234.969 224.777 233.891 224.109 233.164C223.441 232.426 222.516 232.057 221.332 232.057ZM236.818 228.98L236.941 230.967C238.277 229.408 240.105 228.629 242.426 228.629C244.969 228.629 246.709 229.602 247.646 231.547C249.029 229.602 250.975 228.629 253.482 228.629C255.58 228.629 257.139 229.209 258.158 230.369C259.189 231.529 259.717 233.24 259.74 235.502V248H255.469V235.625C255.469 234.418 255.205 233.533 254.678 232.971C254.15 232.408 253.277 232.127 252.059 232.127C251.086 232.127 250.289 232.391 249.668 232.918C249.059 233.434 248.631 234.113 248.385 234.957L248.402 248H244.131V235.484C244.072 233.246 242.93 232.127 240.703 232.127C238.992 232.127 237.779 232.824 237.064 234.219V248H232.793V228.98H236.818ZM277.635 248H273.363V228.98H277.635V248ZM273.1 224.041C273.1 223.385 273.305 222.84 273.715 222.406C274.137 221.973 274.734 221.756 275.508 221.756C276.281 221.756 276.879 221.973 277.301 222.406C277.723 222.84 277.934 223.385 277.934 224.041C277.934 224.686 277.723 225.225 277.301 225.658C276.879 226.08 276.281 226.291 275.508 226.291C274.734 226.291 274.137 226.08 273.715 225.658C273.305 225.225 273.1 224.686 273.1 224.041ZM298.957 238.684C298.957 241.625 298.289 243.975 296.953 245.732C295.617 247.479 293.824 248.352 291.574 248.352C289.488 248.352 287.818 247.666 286.564 246.295V255.312H282.293V228.98H286.23L286.406 230.914C287.66 229.391 289.365 228.629 291.521 228.629C293.842 228.629 295.658 229.496 296.971 231.23C298.295 232.953 298.957 235.35 298.957 238.42V238.684ZM294.703 238.314C294.703 236.416 294.322 234.91 293.561 233.797C292.811 232.684 291.732 232.127 290.326 232.127C288.58 232.127 287.326 232.848 286.564 234.289V242.727C287.338 244.203 288.604 244.941 290.361 244.941C291.721 244.941 292.781 244.396 293.543 243.307C294.316 242.205 294.703 240.541 294.703 238.314ZM313.248 242.832C313.248 242.07 312.932 241.49 312.299 241.092C311.678 240.693 310.641 240.342 309.188 240.037C307.734 239.732 306.521 239.346 305.549 238.877C303.416 237.846 302.35 236.352 302.35 234.395C302.35 232.754 303.041 231.383 304.424 230.281C305.807 229.18 307.564 228.629 309.697 228.629C311.971 228.629 313.805 229.191 315.199 230.316C316.605 231.441 317.309 232.9 317.309 234.693H313.037C313.037 233.873 312.732 233.193 312.123 232.654C311.514 232.104 310.705 231.828 309.697 231.828C308.76 231.828 307.992 232.045 307.395 232.479C306.809 232.912 306.516 233.492 306.516 234.219C306.516 234.875 306.791 235.385 307.342 235.748C307.893 236.111 309.006 236.48 310.682 236.855C312.357 237.219 313.67 237.658 314.619 238.174C315.58 238.678 316.289 239.287 316.746 240.002C317.215 240.717 317.449 241.584 317.449 242.604C317.449 244.314 316.74 245.703 315.322 246.77C313.904 247.824 312.047 248.352 309.75 248.352C308.191 248.352 306.803 248.07 305.584 247.508C304.365 246.945 303.416 246.172 302.736 245.188C302.057 244.203 301.717 243.143 301.717 242.006H305.865C305.924 243.014 306.305 243.793 307.008 244.344C307.711 244.883 308.643 245.152 309.803 245.152C310.928 245.152 311.783 244.941 312.369 244.52C312.955 244.086 313.248 243.523 313.248 242.832ZM332.707 246.137C331.453 247.613 329.672 248.352 327.363 248.352C325.301 248.352 323.736 247.748 322.67 246.541C321.615 245.334 321.088 243.588 321.088 241.303V228.98H325.359V241.25C325.359 243.664 326.361 244.871 328.365 244.871C330.439 244.871 331.84 244.127 332.566 242.639V228.98H336.838V248H332.812L332.707 246.137ZM345.205 228.98L345.328 230.967C346.664 229.408 348.492 228.629 350.812 228.629C353.355 228.629 355.096 229.602 356.033 231.547C357.416 229.602 359.361 228.629 361.869 228.629C363.967 228.629 365.525 229.209 366.545 230.369C367.576 231.529 368.104 233.24 368.127 235.502V248H363.855V235.625C363.855 234.418 363.592 233.533 363.064 232.971C362.537 232.408 361.664 232.127 360.445 232.127C359.473 232.127 358.676 232.391 358.055 232.918C357.445 233.434 357.018 234.113 356.771 234.957L356.789 248H352.518V235.484C352.459 233.246 351.316 232.127 349.09 232.127C347.379 232.127 346.166 232.824 345.451 234.219V248H341.18V228.98H345.205ZM380.678 238.35C380.678 235.42 381.357 233.07 382.717 231.301C384.076 229.52 385.898 228.629 388.184 228.629C390.199 228.629 391.828 229.332 393.07 230.738V221H397.342V248H393.475L393.264 246.031C391.986 247.578 390.281 248.352 388.148 248.352C385.922 248.352 384.117 247.455 382.734 245.662C381.363 243.869 380.678 241.432 380.678 238.35ZM384.949 238.719C384.949 240.652 385.318 242.164 386.057 243.254C386.807 244.332 387.867 244.871 389.238 244.871C390.984 244.871 392.262 244.092 393.07 242.533V234.412C392.285 232.889 391.02 232.127 389.273 232.127C387.891 232.127 386.824 232.678 386.074 233.779C385.324 234.869 384.949 236.516 384.949 238.719ZM400.998 238.314C400.998 236.451 401.367 234.775 402.105 233.287C402.844 231.787 403.881 230.639 405.217 229.842C406.553 229.033 408.088 228.629 409.822 228.629C412.389 228.629 414.469 229.455 416.062 231.107C417.668 232.76 418.535 234.951 418.664 237.682L418.682 238.684C418.682 240.559 418.318 242.234 417.592 243.711C416.877 245.188 415.846 246.33 414.498 247.139C413.162 247.947 411.615 248.352 409.857 248.352C407.174 248.352 405.023 247.461 403.406 245.68C401.801 243.887 400.998 241.502 400.998 238.525V238.314ZM405.27 238.684C405.27 240.641 405.674 242.176 406.482 243.289C407.291 244.391 408.416 244.941 409.857 244.941C411.299 244.941 412.418 244.379 413.215 243.254C414.023 242.129 414.428 240.482 414.428 238.314C414.428 236.393 414.012 234.869 413.18 233.744C412.359 232.619 411.24 232.057 409.822 232.057C408.428 232.057 407.32 232.613 406.5 233.727C405.68 234.828 405.27 236.48 405.27 238.684ZM426.838 248H422.566V221H426.838V248ZM430.705 238.314C430.705 236.451 431.074 234.775 431.812 233.287C432.551 231.787 433.588 230.639 434.924 229.842C436.26 229.033 437.795 228.629 439.529 228.629C442.096 228.629 444.176 229.455 445.77 231.107C447.375 232.76 448.242 234.951 448.371 237.682L448.389 238.684C448.389 240.559 448.025 242.234 447.299 243.711C446.584 245.188 445.553 246.33 444.205 247.139C442.869 247.947 441.322 248.352 439.564 248.352C436.881 248.352 434.73 247.461 433.113 245.68C431.508 243.887 430.705 241.502 430.705 238.525V238.314ZM434.977 238.684C434.977 240.641 435.381 242.176 436.189 243.289C436.998 244.391 438.123 244.941 439.564 244.941C441.006 244.941 442.125 244.379 442.922 243.254C443.73 242.129 444.135 240.482 444.135 238.314C444.135 236.393 443.719 234.869 442.887 233.744C442.066 232.619 440.947 232.057 439.529 232.057C438.135 232.057 437.027 232.613 436.207 233.727C435.387 234.828 434.977 236.48 434.977 238.684ZM461.959 232.883C461.396 232.789 460.816 232.742 460.219 232.742C458.262 232.742 456.943 233.492 456.264 234.992V248H451.992V228.98H456.07L456.176 231.107C457.207 229.455 458.637 228.629 460.465 228.629C461.074 228.629 461.578 228.711 461.977 228.875L461.959 232.883ZM484.283 242.832C484.283 242.07 483.967 241.49 483.334 241.092C482.713 240.693 481.676 240.342 480.223 240.037C478.77 239.732 477.557 239.346 476.584 238.877C474.451 237.846 473.385 236.352 473.385 234.395C473.385 232.754 474.076 231.383 475.459 230.281C476.842 229.18 478.6 228.629 480.732 228.629C483.006 228.629 484.84 229.191 486.234 230.316C487.641 231.441 488.344 232.9 488.344 234.693H484.072C484.072 233.873 483.768 233.193 483.158 232.654C482.549 232.104 481.74 231.828 480.732 231.828C479.795 231.828 479.027 232.045 478.43 232.479C477.844 232.912 477.551 233.492 477.551 234.219C477.551 234.875 477.826 235.385 478.377 235.748C478.928 236.111 480.041 236.48 481.717 236.855C483.393 237.219 484.705 237.658 485.654 238.174C486.615 238.678 487.324 239.287 487.781 240.002C488.25 240.717 488.484 241.584 488.484 242.604C488.484 244.314 487.775 245.703 486.357 246.77C484.939 247.824 483.082 248.352 480.785 248.352C479.227 248.352 477.838 248.07 476.619 247.508C475.4 246.945 474.451 246.172 473.771 245.188C473.092 244.203 472.752 243.143 472.752 242.006H476.9C476.959 243.014 477.34 243.793 478.043 244.344C478.746 244.883 479.678 245.152 480.838 245.152C481.963 245.152 482.818 244.941 483.404 244.52C483.99 244.086 484.283 243.523 484.283 242.832ZM496.764 248H492.492V228.98H496.764V248ZM492.229 224.041C492.229 223.385 492.434 222.84 492.844 222.406C493.266 221.973 493.863 221.756 494.637 221.756C495.41 221.756 496.008 221.973 496.43 222.406C496.852 222.84 497.062 223.385 497.062 224.041C497.062 224.686 496.852 225.225 496.43 225.658C496.008 226.08 495.41 226.291 494.637 226.291C493.863 226.291 493.266 226.08 492.844 225.658C492.434 225.225 492.229 224.686 492.229 224.041ZM506.783 224.357V228.98H510.141V232.145H506.783V242.762C506.783 243.488 506.924 244.016 507.205 244.344C507.498 244.66 508.014 244.818 508.752 244.818C509.244 244.818 509.742 244.76 510.246 244.643V247.947C509.273 248.217 508.336 248.352 507.434 248.352C504.152 248.352 502.512 246.541 502.512 242.92V232.145H499.383V228.98H502.512V224.357H506.783ZM172.553 298C172.365 297.637 172.201 297.045 172.061 296.225C170.701 297.643 169.037 298.352 167.068 298.352C165.158 298.352 163.6 297.807 162.393 296.717C161.186 295.627 160.582 294.279 160.582 292.674C160.582 290.646 161.332 289.094 162.832 288.016C164.344 286.926 166.5 286.381 169.301 286.381H171.92V285.133C171.92 284.148 171.645 283.363 171.094 282.777C170.543 282.18 169.705 281.881 168.58 281.881C167.607 281.881 166.811 282.127 166.189 282.619C165.568 283.1 165.258 283.715 165.258 284.465H160.986C160.986 283.422 161.332 282.449 162.023 281.547C162.715 280.633 163.652 279.918 164.836 279.402C166.031 278.887 167.361 278.629 168.826 278.629C171.053 278.629 172.828 279.191 174.152 280.316C175.477 281.43 176.156 283 176.191 285.027V293.605C176.191 295.316 176.432 296.682 176.912 297.701V298H172.553ZM167.859 294.924C168.703 294.924 169.494 294.719 170.232 294.309C170.982 293.898 171.545 293.348 171.92 292.656V289.07H169.617C168.035 289.07 166.846 289.346 166.049 289.896C165.252 290.447 164.854 291.227 164.854 292.234C164.854 293.055 165.123 293.711 165.662 294.203C166.213 294.684 166.945 294.924 167.859 294.924ZM184.682 278.98L184.805 280.967C186.141 279.408 187.969 278.629 190.289 278.629C192.832 278.629 194.572 279.602 195.51 281.547C196.893 279.602 198.838 278.629 201.346 278.629C203.443 278.629 205.002 279.209 206.021 280.369C207.053 281.529 207.58 283.24 207.604 285.502V298H203.332V285.625C203.332 284.418 203.068 283.533 202.541 282.971C202.014 282.408 201.141 282.127 199.922 282.127C198.949 282.127 198.152 282.391 197.531 282.918C196.922 283.434 196.494 284.113 196.248 284.957L196.266 298H191.994V285.484C191.936 283.246 190.793 282.127 188.566 282.127C186.855 282.127 185.643 282.824 184.928 284.219V298H180.656V278.98H184.682ZM220.365 298.352C217.658 298.352 215.461 297.502 213.773 295.803C212.098 294.092 211.26 291.818 211.26 288.982V288.455C211.26 286.557 211.623 284.863 212.35 283.375C213.088 281.875 214.119 280.709 215.443 279.877C216.768 279.045 218.244 278.629 219.873 278.629C222.463 278.629 224.461 279.455 225.867 281.107C227.285 282.76 227.994 285.098 227.994 288.121V289.844H215.566C215.695 291.414 216.217 292.656 217.131 293.57C218.057 294.484 219.217 294.941 220.611 294.941C222.568 294.941 224.162 294.15 225.393 292.568L227.695 294.766C226.934 295.902 225.914 296.787 224.637 297.42C223.371 298.041 221.947 298.352 220.365 298.352ZM219.855 282.057C218.684 282.057 217.734 282.467 217.008 283.287C216.293 284.107 215.836 285.25 215.637 286.715H223.775V286.398C223.682 284.969 223.301 283.891 222.633 283.164C221.965 282.426 221.039 282.057 219.855 282.057ZM236.678 274.357V278.98H240.035V282.145H236.678V292.762C236.678 293.488 236.818 294.016 237.1 294.344C237.393 294.66 237.908 294.818 238.646 294.818C239.139 294.818 239.637 294.76 240.141 294.643V297.947C239.168 298.217 238.23 298.352 237.328 298.352C234.047 298.352 232.406 296.541 232.406 292.92V282.145H229.277V278.98H232.406V274.357H236.678ZM243.92 303.766L241.617 302.395C242.297 301.328 242.76 300.396 243.006 299.6C243.264 298.814 243.398 298.012 243.41 297.191V293.869H247.26L247.242 296.945C247.23 298.188 246.914 299.43 246.293 300.672C245.684 301.926 244.893 302.957 243.92 303.766ZM268.002 294.941C269.068 294.941 269.953 294.631 270.656 294.01C271.359 293.389 271.734 292.621 271.781 291.707H275.807C275.76 292.891 275.391 293.998 274.699 295.029C274.008 296.049 273.07 296.857 271.887 297.455C270.703 298.053 269.426 298.352 268.055 298.352C265.395 298.352 263.285 297.49 261.727 295.768C260.168 294.045 259.389 291.666 259.389 288.631V288.191C259.389 285.297 260.162 282.982 261.709 281.248C263.256 279.502 265.365 278.629 268.037 278.629C270.299 278.629 272.139 279.291 273.557 280.615C274.986 281.928 275.736 283.656 275.807 285.801H271.781C271.734 284.711 271.359 283.814 270.656 283.111C269.965 282.408 269.08 282.057 268.002 282.057C266.619 282.057 265.553 282.561 264.803 283.568C264.053 284.564 263.672 286.082 263.66 288.121V288.807C263.66 290.869 264.029 292.41 264.768 293.43C265.518 294.438 266.596 294.941 268.002 294.941ZM278.232 288.314C278.232 286.451 278.602 284.775 279.34 283.287C280.078 281.787 281.115 280.639 282.451 279.842C283.787 279.033 285.322 278.629 287.057 278.629C289.623 278.629 291.703 279.455 293.297 281.107C294.902 282.76 295.77 284.951 295.898 287.682L295.916 288.684C295.916 290.559 295.553 292.234 294.826 293.711C294.111 295.188 293.08 296.33 291.732 297.139C290.396 297.947 288.85 298.352 287.092 298.352C284.408 298.352 282.258 297.461 280.641 295.68C279.035 293.887 278.232 291.502 278.232 288.525V288.314ZM282.504 288.684C282.504 290.641 282.908 292.176 283.717 293.289C284.525 294.391 285.65 294.941 287.092 294.941C288.533 294.941 289.652 294.379 290.449 293.254C291.258 292.129 291.662 290.482 291.662 288.314C291.662 286.393 291.246 284.869 290.414 283.744C289.594 282.619 288.475 282.057 287.057 282.057C285.662 282.057 284.555 282.613 283.734 283.727C282.914 284.828 282.504 286.48 282.504 288.684ZM303.492 278.98L303.615 281.178C305.021 279.479 306.867 278.629 309.152 278.629C313.113 278.629 315.129 280.896 315.199 285.432V298H310.928V285.678C310.928 284.471 310.664 283.58 310.137 283.006C309.621 282.42 308.771 282.127 307.588 282.127C305.865 282.127 304.582 282.906 303.738 284.465V298H299.467V278.98H303.492ZM330.229 292.832C330.229 292.07 329.912 291.49 329.279 291.092C328.658 290.693 327.621 290.342 326.168 290.037C324.715 289.732 323.502 289.346 322.529 288.877C320.396 287.846 319.33 286.352 319.33 284.395C319.33 282.754 320.021 281.383 321.404 280.281C322.787 279.18 324.545 278.629 326.678 278.629C328.951 278.629 330.785 279.191 332.18 280.316C333.586 281.441 334.289 282.9 334.289 284.693H330.018C330.018 283.873 329.713 283.193 329.104 282.654C328.494 282.104 327.686 281.828 326.678 281.828C325.74 281.828 324.973 282.045 324.375 282.479C323.789 282.912 323.496 283.492 323.496 284.219C323.496 284.875 323.771 285.385 324.322 285.748C324.873 286.111 325.986 286.48 327.662 286.855C329.338 287.219 330.65 287.658 331.6 288.174C332.561 288.678 333.27 289.287 333.727 290.002C334.195 290.717 334.43 291.584 334.43 292.604C334.43 294.314 333.721 295.703 332.303 296.77C330.885 297.824 329.027 298.352 326.73 298.352C325.172 298.352 323.783 298.07 322.564 297.508C321.346 296.945 320.396 296.172 319.717 295.188C319.037 294.203 318.697 293.143 318.697 292.006H322.846C322.904 293.014 323.285 293.793 323.988 294.344C324.691 294.883 325.623 295.152 326.783 295.152C327.908 295.152 328.764 294.941 329.35 294.52C329.936 294.086 330.229 293.523 330.229 292.832ZM346.541 298.352C343.834 298.352 341.637 297.502 339.949 295.803C338.273 294.092 337.436 291.818 337.436 288.982V288.455C337.436 286.557 337.799 284.863 338.525 283.375C339.264 281.875 340.295 280.709 341.619 279.877C342.943 279.045 344.42 278.629 346.049 278.629C348.639 278.629 350.637 279.455 352.043 281.107C353.461 282.76 354.17 285.098 354.17 288.121V289.844H341.742C341.871 291.414 342.393 292.656 343.307 293.57C344.232 294.484 345.393 294.941 346.787 294.941C348.744 294.941 350.338 294.15 351.568 292.568L353.871 294.766C353.109 295.902 352.09 296.787 350.812 297.42C349.547 298.041 348.123 298.352 346.541 298.352ZM346.031 282.057C344.859 282.057 343.91 282.467 343.184 283.287C342.469 284.107 342.012 285.25 341.812 286.715H349.951V286.398C349.857 284.969 349.477 283.891 348.809 283.164C348.141 282.426 347.215 282.057 346.031 282.057ZM365.314 294.941C366.381 294.941 367.266 294.631 367.969 294.01C368.672 293.389 369.047 292.621 369.094 291.707H373.119C373.072 292.891 372.703 293.998 372.012 295.029C371.32 296.049 370.383 296.857 369.199 297.455C368.016 298.053 366.738 298.352 365.367 298.352C362.707 298.352 360.598 297.49 359.039 295.768C357.48 294.045 356.701 291.666 356.701 288.631V288.191C356.701 285.297 357.475 282.982 359.021 281.248C360.568 279.502 362.678 278.629 365.35 278.629C367.611 278.629 369.451 279.291 370.869 280.615C372.299 281.928 373.049 283.656 373.119 285.801H369.094C369.047 284.711 368.672 283.814 367.969 283.111C367.277 282.408 366.393 282.057 365.314 282.057C363.932 282.057 362.865 282.561 362.115 283.568C361.365 284.564 360.984 286.082 360.973 288.121V288.807C360.973 290.869 361.342 292.41 362.08 293.43C362.83 294.438 363.908 294.941 365.314 294.941ZM381.697 274.357V278.98H385.055V282.145H381.697V292.762C381.697 293.488 381.838 294.016 382.119 294.344C382.412 294.66 382.928 294.818 383.666 294.818C384.158 294.818 384.656 294.76 385.16 294.643V297.947C384.188 298.217 383.25 298.352 382.348 298.352C379.066 298.352 377.426 296.541 377.426 292.92V282.145H374.297V278.98H377.426V274.357H381.697ZM396.709 298.352C394.002 298.352 391.805 297.502 390.117 295.803C388.441 294.092 387.604 291.818 387.604 288.982V288.455C387.604 286.557 387.967 284.863 388.693 283.375C389.432 281.875 390.463 280.709 391.787 279.877C393.111 279.045 394.588 278.629 396.217 278.629C398.807 278.629 400.805 279.455 402.211 281.107C403.629 282.76 404.338 285.098 404.338 288.121V289.844H391.91C392.039 291.414 392.561 292.656 393.475 293.57C394.4 294.484 395.561 294.941 396.955 294.941C398.912 294.941 400.506 294.15 401.736 292.568L404.039 294.766C403.277 295.902 402.258 296.787 400.98 297.42C399.715 298.041 398.291 298.352 396.709 298.352ZM396.199 282.057C395.027 282.057 394.078 282.467 393.352 283.287C392.637 284.107 392.18 285.25 391.98 286.715H400.119V286.398C400.025 284.969 399.645 283.891 398.977 283.164C398.309 282.426 397.383 282.057 396.199 282.057ZM413.021 274.357V278.98H416.379V282.145H413.021V292.762C413.021 293.488 413.162 294.016 413.443 294.344C413.736 294.66 414.252 294.818 414.99 294.818C415.482 294.818 415.98 294.76 416.484 294.643V297.947C415.512 298.217 414.574 298.352 413.672 298.352C410.391 298.352 408.75 296.541 408.75 292.92V282.145H405.621V278.98H408.75V274.357H413.021ZM431.18 296.137C429.926 297.613 428.145 298.352 425.836 298.352C423.773 298.352 422.209 297.748 421.143 296.541C420.088 295.334 419.561 293.588 419.561 291.303V278.98H423.832V291.25C423.832 293.664 424.834 294.871 426.838 294.871C428.912 294.871 430.312 294.127 431.039 292.639V278.98H435.311V298H431.285L431.18 296.137ZM449.619 282.883C449.057 282.789 448.477 282.742 447.879 282.742C445.922 282.742 444.604 283.492 443.924 284.992V298H439.652V278.98H443.73L443.836 281.107C444.867 279.455 446.297 278.629 448.125 278.629C448.734 278.629 449.238 278.711 449.637 278.875L449.619 282.883ZM172.553 348C172.365 347.637 172.201 347.045 172.061 346.225C170.701 347.643 169.037 348.352 167.068 348.352C165.158 348.352 163.6 347.807 162.393 346.717C161.186 345.627 160.582 344.279 160.582 342.674C160.582 340.646 161.332 339.094 162.832 338.016C164.344 336.926 166.5 336.381 169.301 336.381H171.92V335.133C171.92 334.148 171.645 333.363 171.094 332.777C170.543 332.18 169.705 331.881 168.58 331.881C167.607 331.881 166.811 332.127 166.189 332.619C165.568 333.1 165.258 333.715 165.258 334.465H160.986C160.986 333.422 161.332 332.449 162.023 331.547C162.715 330.633 163.652 329.918 164.836 329.402C166.031 328.887 167.361 328.629 168.826 328.629C171.053 328.629 172.828 329.191 174.152 330.316C175.477 331.43 176.156 333 176.191 335.027V343.605C176.191 345.316 176.432 346.682 176.912 347.701V348H172.553ZM167.859 344.924C168.703 344.924 169.494 344.719 170.232 344.309C170.982 343.898 171.545 343.348 171.92 342.656V339.07H169.617C168.035 339.07 166.846 339.346 166.049 339.896C165.252 340.447 164.854 341.227 164.854 342.234C164.854 343.055 165.123 343.711 165.662 344.203C166.213 344.684 166.945 344.924 167.859 344.924ZM179.865 338.35C179.865 335.42 180.545 333.07 181.904 331.301C183.264 329.52 185.086 328.629 187.371 328.629C189.387 328.629 191.016 329.332 192.258 330.738V321H196.529V348H192.662L192.451 346.031C191.174 347.578 189.469 348.352 187.336 348.352C185.109 348.352 183.305 347.455 181.922 345.662C180.551 343.869 179.865 341.432 179.865 338.35ZM184.137 338.719C184.137 340.652 184.506 342.164 185.244 343.254C185.994 344.332 187.055 344.871 188.426 344.871C190.172 344.871 191.449 344.092 192.258 342.533V334.412C191.473 332.889 190.207 332.127 188.461 332.127C187.078 332.127 186.012 332.678 185.262 333.779C184.512 334.869 184.137 336.516 184.137 338.719ZM205.529 348H201.258V328.98H205.529V348ZM200.994 324.041C200.994 323.385 201.199 322.84 201.609 322.406C202.031 321.973 202.629 321.756 203.402 321.756C204.176 321.756 204.773 321.973 205.195 322.406C205.617 322.84 205.828 323.385 205.828 324.041C205.828 324.686 205.617 325.225 205.195 325.658C204.773 326.08 204.176 326.291 203.402 326.291C202.629 326.291 202.031 326.08 201.609 325.658C201.199 325.225 200.994 324.686 200.994 324.041ZM226.852 338.684C226.852 341.625 226.184 343.975 224.848 345.732C223.512 347.479 221.719 348.352 219.469 348.352C217.383 348.352 215.713 347.666 214.459 346.295V355.312H210.188V328.98H214.125L214.301 330.914C215.555 329.391 217.26 328.629 219.416 328.629C221.736 328.629 223.553 329.496 224.865 331.23C226.189 332.953 226.852 335.35 226.852 338.42V338.684ZM222.598 338.314C222.598 336.416 222.217 334.91 221.455 333.797C220.705 332.684 219.627 332.127 218.221 332.127C216.475 332.127 215.221 332.848 214.459 334.289V342.727C215.232 344.203 216.498 344.941 218.256 344.941C219.615 344.941 220.676 344.396 221.438 343.307C222.211 342.205 222.598 340.541 222.598 338.314ZM235.025 348H230.754V328.98H235.025V348ZM230.49 324.041C230.49 323.385 230.695 322.84 231.105 322.406C231.527 321.973 232.125 321.756 232.898 321.756C233.672 321.756 234.27 321.973 234.691 322.406C235.113 322.84 235.324 323.385 235.324 324.041C235.324 324.686 235.113 325.225 234.691 325.658C234.27 326.08 233.672 326.291 232.898 326.291C232.125 326.291 231.527 326.08 231.105 325.658C230.695 325.225 230.49 324.686 230.49 324.041ZM250.354 342.832C250.354 342.07 250.037 341.49 249.404 341.092C248.783 340.693 247.746 340.342 246.293 340.037C244.84 339.732 243.627 339.346 242.654 338.877C240.521 337.846 239.455 336.352 239.455 334.395C239.455 332.754 240.146 331.383 241.529 330.281C242.912 329.18 244.67 328.629 246.803 328.629C249.076 328.629 250.91 329.191 252.305 330.316C253.711 331.441 254.414 332.9 254.414 334.693H250.143C250.143 333.873 249.838 333.193 249.229 332.654C248.619 332.104 247.811 331.828 246.803 331.828C245.865 331.828 245.098 332.045 244.5 332.479C243.914 332.912 243.621 333.492 243.621 334.219C243.621 334.875 243.896 335.385 244.447 335.748C244.998 336.111 246.111 336.48 247.787 336.855C249.463 337.219 250.775 337.658 251.725 338.174C252.686 338.678 253.395 339.287 253.852 340.002C254.32 340.717 254.555 341.584 254.555 342.604C254.555 344.314 253.846 345.703 252.428 346.77C251.01 347.824 249.152 348.352 246.855 348.352C245.297 348.352 243.908 348.07 242.689 347.508C241.471 346.945 240.521 346.172 239.842 345.188C239.162 344.203 238.822 343.143 238.822 342.006H242.971C243.029 343.014 243.41 343.793 244.113 344.344C244.816 344.883 245.748 345.152 246.908 345.152C248.033 345.152 248.889 344.941 249.475 344.52C250.061 344.086 250.354 343.523 250.354 342.832ZM266.104 344.941C267.17 344.941 268.055 344.631 268.758 344.01C269.461 343.389 269.836 342.621 269.883 341.707H273.908C273.861 342.891 273.492 343.998 272.801 345.029C272.109 346.049 271.172 346.857 269.988 347.455C268.805 348.053 267.527 348.352 266.156 348.352C263.496 348.352 261.387 347.49 259.828 345.768C258.27 344.045 257.49 341.666 257.49 338.631V338.191C257.49 335.297 258.264 332.982 259.811 331.248C261.357 329.502 263.467 328.629 266.139 328.629C268.4 328.629 270.24 329.291 271.658 330.615C273.088 331.928 273.838 333.656 273.908 335.801H269.883C269.836 334.711 269.461 333.814 268.758 333.111C268.066 332.408 267.182 332.057 266.104 332.057C264.721 332.057 263.654 332.561 262.904 333.568C262.154 334.564 261.773 336.082 261.762 338.121V338.807C261.762 340.869 262.131 342.41 262.869 343.43C263.619 344.438 264.697 344.941 266.104 344.941ZM281.678 348H277.406V328.98H281.678V348ZM277.143 324.041C277.143 323.385 277.348 322.84 277.758 322.406C278.18 321.973 278.777 321.756 279.551 321.756C280.324 321.756 280.922 321.973 281.344 322.406C281.766 322.84 281.977 323.385 281.977 324.041C281.977 324.686 281.766 325.225 281.344 325.658C280.922 326.08 280.324 326.291 279.551 326.291C278.777 326.291 278.18 326.08 277.758 325.658C277.348 325.225 277.143 324.686 277.143 324.041ZM290.309 328.98L290.432 331.178C291.838 329.479 293.684 328.629 295.969 328.629C299.93 328.629 301.945 330.896 302.016 335.432V348H297.744V335.678C297.744 334.471 297.48 333.58 296.953 333.006C296.438 332.42 295.588 332.127 294.404 332.127C292.682 332.127 291.398 332.906 290.555 334.465V348H286.283V328.98H290.309ZM305.637 338.35C305.637 335.396 306.328 333.041 307.711 331.283C309.105 329.514 310.951 328.629 313.248 328.629C315.416 328.629 317.121 329.385 318.363 330.896L318.557 328.98H322.406V347.42C322.406 349.916 321.627 351.885 320.068 353.326C318.521 354.768 316.43 355.488 313.793 355.488C312.398 355.488 311.033 355.195 309.697 354.609C308.373 354.035 307.365 353.279 306.674 352.342L308.695 349.775C310.008 351.334 311.625 352.113 313.547 352.113C314.965 352.113 316.084 351.727 316.904 350.953C317.725 350.191 318.135 349.066 318.135 347.578V346.295C316.904 347.666 315.264 348.352 313.213 348.352C310.986 348.352 309.164 347.467 307.746 345.697C306.34 343.928 305.637 341.479 305.637 338.35ZM309.891 338.719C309.891 340.629 310.277 342.135 311.051 343.236C311.836 344.326 312.92 344.871 314.303 344.871C316.025 344.871 317.303 344.133 318.135 342.656V334.289C317.326 332.848 316.061 332.127 314.338 332.127C312.932 332.127 311.836 332.684 311.051 333.797C310.277 334.91 309.891 336.551 309.891 338.719ZM344.15 348.352C341.443 348.352 339.246 347.502 337.559 345.803C335.883 344.092 335.045 341.818 335.045 338.982V338.455C335.045 336.557 335.408 334.863 336.135 333.375C336.873 331.875 337.904 330.709 339.229 329.877C340.553 329.045 342.029 328.629 343.658 328.629C346.248 328.629 348.246 329.455 349.652 331.107C351.07 332.76 351.779 335.098 351.779 338.121V339.844H339.352C339.48 341.414 340.002 342.656 340.916 343.57C341.842 344.484 343.002 344.941 344.396 344.941C346.354 344.941 347.947 344.15 349.178 342.568L351.48 344.766C350.719 345.902 349.699 346.787 348.422 347.42C347.156 348.041 345.732 348.352 344.15 348.352ZM343.641 332.057C342.469 332.057 341.52 332.467 340.793 333.287C340.078 334.107 339.621 335.25 339.422 336.715H347.561V336.398C347.467 334.969 347.086 333.891 346.418 333.164C345.75 332.426 344.824 332.057 343.641 332.057ZM359.654 348H355.383V321H359.654V348ZM368.865 348H364.594V328.98H368.865V348ZM364.33 324.041C364.33 323.385 364.535 322.84 364.945 322.406C365.367 321.973 365.965 321.756 366.738 321.756C367.512 321.756 368.109 321.973 368.531 322.406C368.953 322.84 369.164 323.385 369.164 324.041C369.164 324.686 368.953 325.225 368.531 325.658C368.109 326.08 367.512 326.291 366.738 326.291C365.965 326.291 365.367 326.08 364.945 325.658C364.535 325.225 364.33 324.686 364.33 324.041ZM378.885 324.357V328.98H382.242V332.145H378.885V342.762C378.885 343.488 379.025 344.016 379.307 344.344C379.6 344.66 380.115 344.818 380.854 344.818C381.346 344.818 381.844 344.76 382.348 344.643V347.947C381.375 348.217 380.438 348.352 379.535 348.352C376.254 348.352 374.613 346.541 374.613 342.92V332.145H371.484V328.98H374.613V324.357H378.885ZM388.184 343.5C388.98 343.5 389.596 343.729 390.029 344.186C390.463 344.631 390.68 345.193 390.68 345.873C390.68 346.541 390.463 347.098 390.029 347.543C389.596 347.977 388.98 348.193 388.184 348.193C387.422 348.193 386.818 347.977 386.373 347.543C385.928 347.109 385.705 346.553 385.705 345.873C385.705 345.193 385.922 344.631 386.355 344.186C386.789 343.729 387.398 343.5 388.184 343.5Z" fill="#FEFCFC"/>
<g clip-path="url(#clip0)">
<path fill-rule="evenodd" clip-rule="evenodd" d="M972.605 308.928V363.205H1012.26V291.258C1012.26 277.147 972.605 275.904 972.605 308.928V308.928Z" fill="#CE9875"/>
<path fill-rule="evenodd" clip-rule="evenodd" d="M860.159 298.814V382.094H899.842V298.814C891.169 287.481 874.775 284.069 860.159 298.814Z" fill="#CE9875"/>
<path fill-rule="evenodd" clip-rule="evenodd" d="M747.711 291.283V363.23H787.395V308.928C790.756 270.347 754.605 270.006 747.711 291.283V291.283Z" fill="#CE9875"/>
<path d="M767.662 268.227H787.614V363.474H767.662V268.227Z" fill="#C6865C"/>
<path d="M880 286.847H899.951V382.094H880V286.847Z" fill="#C6865C"/>
<path d="M992.435 269.348H1012.39V364.595H992.435V269.348Z" fill="#C6865C"/>
<path fill-rule="evenodd" clip-rule="evenodd" d="M688.784 173.907C679.746 182.973 676.458 195.598 678.942 207.272C677.334 208.246 675.825 209.417 674.436 210.806C665.569 219.678 665.179 233.789 673.217 243.148C668.93 249.777 666.445 257.747 666.445 266.302C666.445 289.528 684.838 308.368 707.541 308.368C722.036 308.368 734.776 300.69 742.109 289.09C743.96 289.918 745.812 290.649 747.712 291.283C754.192 293.403 760.891 294.256 767.541 293.842C769.612 293.988 771.683 293.988 773.729 293.866C789.32 280.754 812.681 180.755 807.882 139.834C807.298 130.89 803.571 122.092 796.75 115.267C788.735 107.248 778.041 103.52 767.541 104.081C757.066 103.52 746.372 107.249 738.358 115.267C730.831 122.798 727.103 132.694 727.152 142.564C719.089 139.883 709.857 141.736 703.425 148.17C698.066 153.508 695.898 160.843 696.872 167.814C693.973 169.422 691.244 171.445 688.784 173.907V173.907Z" fill="#95D6A4"/>
<path fill-rule="evenodd" clip-rule="evenodd" d="M782.62 183.436C780.355 190.31 779.964 197.669 781.45 204.714C779.672 205.786 777.991 207.102 776.456 208.638C766.591 218.508 766.152 234.204 775.093 244.611C770.318 251.996 767.541 260.843 767.541 270.348C767.541 278.927 769.807 286.945 773.729 293.867C777.14 299.863 781.816 305.005 787.395 308.929C794.752 314.096 803.667 317.142 813.265 317.142C825.202 317.142 836.066 312.463 844.203 304.785C847.077 302.08 849.587 299.033 851.706 295.695C852.924 296.255 854.166 296.767 855.433 297.23C856.992 297.816 858.576 298.352 860.159 298.814C866.663 300.666 873.337 301.398 879.988 300.983C886.639 301.398 893.337 300.666 899.841 298.814C901.425 298.351 903.008 297.815 904.567 297.23C905.81 296.767 907.051 296.256 908.294 295.695C910.413 299.033 912.923 302.08 915.772 304.785C923.909 312.463 934.773 317.142 946.71 317.142C956.332 317.142 965.248 314.096 972.604 308.929C978.159 305.005 982.836 299.863 986.246 293.867C990.168 286.945 992.434 278.927 992.434 270.348C992.434 260.842 989.657 251.996 984.906 244.611C993.846 234.204 993.384 218.508 983.518 208.638C981.983 207.102 980.302 205.786 978.524 204.714C980.034 197.67 979.644 190.31 977.354 183.436C975.43 177.66 972.165 172.225 967.586 167.619C964.833 164.889 961.812 162.622 958.597 160.818C959.62 153.434 957.476 145.708 952.117 139.834C951.849 139.542 951.581 139.249 951.289 138.981C944.175 131.839 933.896 129.768 924.931 132.742C924.98 121.774 920.813 110.782 912.434 102.398C903.543 93.4778 891.654 89.3348 879.985 89.9681C868.317 89.3348 856.453 93.4778 847.537 102.398C839.157 110.782 835.016 121.774 835.065 132.742C826.1 129.768 815.82 131.84 808.683 138.981C808.415 139.249 808.147 139.541 807.879 139.834C802.52 145.708 800.352 153.434 801.4 160.818C798.16 162.622 795.139 164.888 792.411 167.619C787.808 172.225 784.544 177.66 782.62 183.436V183.436Z" fill="#CCF49F"/>
<path fill-rule="evenodd" clip-rule="evenodd" d="M986.247 293.867C988.317 293.989 990.364 293.989 992.435 293.843C999.085 294.257 1005.78 293.405 1012.26 291.26C1014.16 290.65 1016.04 289.919 1017.89 289.091C1025.2 300.692 1037.94 308.369 1052.43 308.369C1075.09 308.369 1093.48 289.603 1093.55 266.449V266.302V266.156C1093.53 257.65 1091.02 249.754 1086.78 243.149C1094.82 233.791 1094.41 219.679 1085.54 210.807C1084.15 209.418 1082.64 208.248 1081.03 207.274C1083.52 195.599 1080.25 182.975 1071.19 173.908C1068.73 171.447 1066 169.424 1063.13 167.815C1064.1 160.845 1061.91 153.509 1056.55 148.172C1050.14 141.738 1040.91 139.885 1032.85 142.566C1032.9 132.695 1029.14 122.801 1021.62 115.269C1013.6 107.25 1002.93 103.521 992.434 104.083C981.935 103.522 971.265 107.251 963.25 115.269C956.405 122.093 952.702 130.892 952.118 139.836C941.23 179.001 967.929 277.099 986.247 293.867Z" fill="#B3E59F"/>
<path fill-rule="evenodd" clip-rule="evenodd" d="M747.711 208.198C746.981 208.832 746.274 209.466 745.592 210.148C732.803 222.968 732.218 243.343 743.814 256.845C735.239 270.152 735.677 275.831 742.109 289.09C743.96 289.918 745.812 290.649 747.712 291.283C754.192 293.403 760.891 294.256 767.541 293.842C769.612 293.988 771.683 293.988 773.729 293.866C769.807 286.945 767.541 278.926 767.541 270.347C767.541 260.841 770.319 251.995 775.093 244.61C766.153 234.203 766.591 218.507 776.456 208.637C777.991 207.101 779.672 205.785 781.45 204.713C779.964 197.669 780.354 190.309 782.62 183.435C784.544 177.66 787.809 172.224 792.412 167.618C795.141 164.888 798.162 162.621 801.402 160.818C800.354 153.433 802.522 145.707 807.881 139.833C807.297 130.889 803.57 122.091 796.749 115.266C796.262 114.803 795.798 114.34 795.312 113.902C792.486 115.413 789.831 117.362 787.444 119.751C787.078 120.116 786.737 120.482 786.396 120.847C779.429 128.451 776.627 138.517 777.967 148.095C773.777 150.435 769.856 153.36 766.299 156.918C760.33 162.889 756.092 169.932 753.607 177.439C752.949 179.413 752.413 181.412 751.999 183.435C750.537 190.576 750.586 197.936 752.096 205.053C750.562 205.98 749.1 207.029 747.711 208.198V208.198Z" fill="#78C2A4"/>
<path fill-rule="evenodd" clip-rule="evenodd" d="M895.895 146.879C904.86 143.881 915.14 145.977 922.277 153.094C922.545 153.386 922.813 153.654 923.08 153.947C923.3 154.191 923.519 154.434 923.714 154.678C928.611 160.454 930.559 167.864 929.56 174.956C932.8 176.735 935.821 179.002 938.549 181.731C943.153 186.338 946.418 191.772 948.342 197.573C950.607 204.421 950.997 211.782 949.511 218.825C951.289 219.898 952.97 221.214 954.505 222.749C964.371 232.62 964.81 248.316 955.869 258.723C960.644 266.107 963.396 274.955 963.396 284.459C963.396 288.213 962.982 291.844 962.179 295.33C961.131 299.839 959.45 304.104 957.234 307.979C955.358 311.244 953.116 314.267 950.583 316.972C958.695 316.29 966.223 313.413 972.605 308.929C978.159 305.005 982.836 299.863 986.246 293.867C990.168 286.946 992.434 278.927 992.434 270.348C992.434 260.842 989.657 251.996 984.906 244.611C993.847 234.204 993.384 218.508 983.518 208.638C981.983 207.102 980.302 205.786 978.524 204.714C980.034 197.67 979.645 190.31 977.354 183.436C975.43 177.661 972.165 172.225 967.586 167.619C964.833 164.889 961.812 162.622 958.597 160.818C959.62 153.434 957.476 145.708 952.117 139.834C951.849 139.542 951.581 139.249 951.289 138.981C944.176 131.839 933.896 129.768 924.931 132.742C924.98 121.774 920.813 110.782 912.434 102.398C903.543 93.4778 891.654 89.3348 879.985 89.9681C868.317 89.3348 856.453 93.4778 847.537 102.398C846.977 102.958 846.441 103.544 845.905 104.129C847.586 104.007 849.291 104.007 850.972 104.105C862.641 103.472 874.504 107.615 883.42 116.51C891.803 124.895 895.944 135.886 895.895 146.879V146.879Z" fill="#B3E59F"/>
<path fill-rule="evenodd" clip-rule="evenodd" d="M1005.59 155.92C1013.65 153.239 1022.91 155.116 1029.32 161.526C1034.68 166.887 1036.84 174.224 1035.87 181.169C1038.77 182.778 1041.5 184.825 1043.96 187.286C1053 196.329 1056.28 208.978 1053.8 220.627C1055.41 221.602 1056.92 222.772 1058.31 224.161C1067.17 233.033 1067.59 247.168 1059.52 256.527C1063.79 263.107 1066.27 271.028 1066.3 279.51V279.656V279.802C1066.27 290.794 1062.1 300.787 1055.36 308.269C1076.65 306.758 1093.48 288.601 1093.55 266.447V266.301V266.155C1093.53 257.648 1091.02 249.753 1086.78 243.147C1094.82 233.789 1094.41 219.677 1085.54 210.806C1084.15 209.416 1082.64 208.246 1081.03 207.272C1083.52 195.597 1080.25 182.973 1071.19 173.907C1068.73 171.445 1066 169.422 1063.13 167.814C1064.1 160.843 1061.91 153.508 1056.55 148.17C1050.14 141.736 1040.91 139.883 1032.85 142.564C1032.9 132.694 1029.14 122.799 1021.62 115.267C1013.6 107.248 1002.93 103.52 992.434 104.081C981.935 103.52 971.265 107.249 963.25 115.267C962.544 115.974 961.861 116.705 961.228 117.46C962.544 117.387 963.859 117.387 965.199 117.46C975.674 116.9 986.368 120.604 994.383 128.623C1001.91 136.154 1005.64 146.049 1005.59 155.92V155.92Z" fill="#95D6A4"/>
<path d="M1094.45 243.54C1101.66 231.832 1100.09 216.245 1090.1 206.249C1089.44 205.588 1088.75 204.958 1088.03 204.36C1089.46 191.463 1085.03 178.63 1075.75 169.35C1073.92 167.522 1071.93 165.86 1069.79 164.383C1069.73 156.644 1066.63 149.11 1061.12 143.622C1055.08 137.56 1046.94 134.516 1038.69 134.953C1037.17 125.819 1032.86 117.401 1026.18 110.712C1017.28 101.812 1005 97.0494 992.434 97.6277C979.877 97.0494 967.588 101.81 958.7 110.703C953.661 115.726 949.95 121.845 947.784 128.521C942.569 125.827 936.714 124.616 930.81 125.045C929.246 114.792 924.479 105.333 916.999 97.8494C907.259 88.0783 893.782 82.8697 879.986 83.5159C866.208 82.8645 852.741 88.0775 842.98 97.8434C835.506 105.321 830.746 114.782 829.185 125.046C823.287 124.619 817.431 125.831 812.209 128.521C810.044 121.86 806.338 115.745 801.306 110.712C792.411 101.81 780.129 97.0365 767.54 97.6277C754.979 97.0425 742.693 101.809 733.797 110.711C727.12 117.391 722.819 125.808 721.309 134.954C713.061 134.517 704.917 137.558 698.875 143.603C693.268 149.187 690.216 156.584 690.191 164.381C688.053 165.854 686.055 167.518 684.217 169.356C674.951 178.651 670.519 191.482 671.949 204.36C671.229 204.958 670.536 205.588 669.875 206.249C659.892 216.237 658.328 231.821 665.54 243.533C661.904 250.499 660 258.286 660 266.302C660 276.869 663.279 286.927 669.481 295.387C671.586 298.257 675.62 298.879 678.49 296.774C681.361 294.67 681.982 290.636 679.877 287.765C675.306 281.531 672.891 274.109 672.891 266.302C672.891 259.25 674.875 252.454 678.63 246.649C680.182 244.251 679.968 241.117 678.107 238.949C672.227 232.104 672.616 221.744 678.994 215.364C679.978 214.379 681.086 213.512 682.284 212.784C684.629 211.363 685.817 208.613 685.246 205.93C683.121 195.949 686.15 185.678 693.341 178.464C695.307 176.498 697.547 174.81 699.999 173.45C702.329 172.156 703.623 169.562 703.254 166.922C702.514 161.63 704.235 156.46 707.982 152.726C712.491 148.216 719.055 146.664 725.117 148.681C727.086 149.335 729.253 149 730.934 147.783C732.615 146.563 733.605 144.61 733.596 142.533C733.554 133.943 736.863 125.878 742.915 119.824C749.31 113.426 758.164 110.037 767.195 110.517C767.424 110.529 767.654 110.529 767.883 110.517C776.942 110.034 785.794 113.426 792.189 119.824C797.074 124.711 800.219 131.023 801.194 137.807C801.176 137.83 801.163 137.855 801.145 137.878C796.953 143.49 794.674 150.374 794.704 157.384C792.259 159.05 789.964 160.949 787.853 163.062C777.6 173.321 772.742 187.536 774.439 201.785C773.557 202.502 772.708 203.269 771.897 204.081C760.929 215.054 759.292 232.225 767.387 245.007C763.258 252.759 761.094 261.431 761.094 270.347C761.094 276.316 762.077 282.051 763.86 287.414C763.869 287.442 763.874 287.471 763.883 287.499C761.092 287.477 758.324 287.201 755.589 286.674C753.686 286.307 746.287 283.908 744.771 283.22C741.84 281.886 738.378 282.924 736.659 285.645C730.217 295.837 719.331 301.921 707.54 301.921C704.99 301.921 702.39 301.629 699.81 301.052C696.335 300.275 692.89 302.463 692.114 305.937C691.338 309.41 693.524 312.856 696.999 313.632C700.499 314.415 704.046 314.812 707.54 314.812C720.388 314.812 732.426 309.588 741.264 300.499V356.782H730.903C727.343 356.782 724.457 359.667 724.457 363.227C724.457 366.787 727.343 369.672 730.903 369.672H747.711H787.395H804.203C807.763 369.672 810.648 366.787 810.648 363.227C810.648 359.667 807.763 356.782 804.203 356.782H793.84V319.75C799.847 322.22 806.401 323.586 813.265 323.586C826.238 323.586 838.472 318.726 847.904 310.161C849.93 309.171 851.863 308.037 853.713 306.793V330.423C853.713 333.983 856.599 336.868 860.159 336.868C863.718 336.868 866.604 333.983 866.604 330.423V306.79C871.008 307.46 875.475 307.689 879.988 307.438C884.506 307.686 888.982 307.467 893.396 306.799V375.648H866.604V357.186C866.604 353.625 863.718 350.74 860.159 350.74C856.599 350.74 853.713 353.625 853.713 357.186V375.648H843.35C839.791 375.648 836.905 378.533 836.905 382.094C836.905 385.654 839.791 388.539 843.35 388.539H916.651C920.211 388.539 923.096 385.654 923.096 382.094C923.096 378.533 920.211 375.648 916.651 375.648H906.287V303.962C916.149 316.343 930.869 323.588 946.711 323.588C953.584 323.588 960.147 322.219 966.161 319.742V356.759H955.797C952.236 356.759 949.352 359.644 949.352 363.205C949.352 366.765 952.236 369.65 955.797 369.65H1029.07C1032.63 369.65 1035.52 366.765 1035.52 363.205C1035.52 359.644 1032.63 356.759 1029.07 356.759H1018.71V300.489C1027.53 309.584 1039.57 314.813 1052.43 314.813C1078.66 314.813 1100 293.051 1100 266.302C1100 258.316 1098.09 250.531 1094.45 243.54V243.54ZM780.949 356.784H754.157V299.508C758.55 300.271 763.011 300.548 767.517 300.3C768.407 300.355 769.312 300.382 770.225 300.391C773.205 304.824 776.827 308.774 780.949 312.105V356.784ZM946.711 310.697C933.357 310.697 921.033 303.803 913.746 292.255C912.532 290.331 910.446 289.249 908.291 289.249C907.399 289.249 906.493 289.435 905.633 289.824C897.548 293.491 889.051 295.082 880.381 294.55C880.119 294.535 879.856 294.535 879.594 294.55C872.108 295.006 864.759 293.882 857.703 291.21C855.416 290.336 853.216 288.933 850.678 289.337C848.852 289.628 847.23 290.718 846.241 292.275C844.441 295.104 842.302 297.706 839.884 300.015C832.706 306.821 823.27 310.697 813.265 310.697C791.606 310.697 773.986 292.597 773.986 270.347C773.986 262.396 776.24 254.706 780.504 248.11C782.055 245.712 781.842 242.578 779.981 240.411C773.198 232.515 773.652 220.56 781.015 213.193C782.168 212.039 783.435 211.043 784.779 210.232C787.13 208.815 788.324 206.061 787.755 203.376C785.345 192.024 788.79 180.361 796.971 172.176C799.233 169.911 801.779 167.986 804.536 166.452C806.866 165.154 808.157 162.555 807.782 159.914C806.933 153.931 808.974 147.809 813.243 143.538C818.449 138.329 826.035 136.538 833.037 138.861C835.007 139.515 837.171 139.179 838.851 137.961C840.531 136.742 841.521 134.791 841.512 132.715C841.469 122.978 845.228 113.83 852.098 106.956C859.355 99.6954 869.393 95.854 879.637 96.4065C879.87 96.4186 880.103 96.4186 880.336 96.4065C890.603 95.8402 900.634 99.6919 907.876 106.956C914.761 113.846 918.528 122.993 918.486 132.715C918.477 134.791 919.468 136.743 921.148 137.961C922.827 139.178 924.991 139.514 926.961 138.861C933.968 136.538 941.541 138.328 946.741 143.548C951.02 147.81 953.066 153.929 952.217 159.914C951.843 162.547 953.126 165.14 955.445 166.442C958.195 167.984 960.753 169.92 963.029 172.177C971.214 180.367 974.651 192.026 972.222 203.365C971.646 206.054 972.841 208.814 975.196 210.233C976.54 211.044 977.806 212.041 978.96 213.195C986.33 220.568 986.795 232.523 980.018 240.412C978.16 242.575 977.944 245.701 979.486 248.098C983.74 254.711 985.988 262.405 985.988 270.348C985.989 292.596 968.369 310.697 946.711 310.697V310.697ZM1005.82 356.759H979.052V312.085C983.163 308.758 986.776 304.815 989.75 300.392C990.658 300.383 991.56 300.356 992.46 300.3C996.962 300.55 1001.42 300.273 1005.82 299.509V356.759H1005.82ZM1052.43 301.923C1040.64 301.923 1029.76 295.841 1023.34 285.654C1022.13 283.728 1020.04 282.643 1017.89 282.643C1017 282.643 1016.09 282.829 1015.23 283.217C1009.06 286.013 1002.63 287.449 996.096 287.498C996.118 287.434 996.129 287.37 996.149 287.306C997.91 281.976 998.879 276.276 998.879 270.347C998.879 261.445 996.721 252.774 992.606 245.014C1000.7 232.236 999.054 215.06 988.077 204.08C987.267 203.27 986.42 202.505 985.54 201.789C987.258 187.545 982.406 173.327 972.125 163.042C970.008 160.942 967.721 159.052 965.294 157.395C965.325 150.427 963.077 143.586 958.94 138.005C958.892 137.94 958.853 137.871 958.805 137.807C959.779 131.006 962.922 124.695 967.81 119.823C974.204 113.426 983.062 110.039 992.092 110.516C992.32 110.528 992.55 110.528 992.778 110.516C1001.83 110.039 1010.67 113.426 1017.06 119.823C1023.13 125.893 1026.45 133.958 1026.4 142.532C1026.39 144.609 1027.39 146.562 1029.07 147.782C1030.75 148.999 1032.91 149.335 1034.88 148.68C1040.95 146.661 1047.5 148.211 1052 152.736C1055.76 156.473 1057.49 161.642 1056.75 166.92C1056.38 169.551 1057.66 172.14 1059.98 173.437C1062.44 174.812 1064.68 176.501 1066.63 178.462C1073.83 185.664 1076.86 195.932 1074.73 205.93C1074.16 208.611 1075.35 211.361 1077.69 212.783C1078.89 213.511 1080 214.378 1080.98 215.362C1087.37 221.751 1087.77 232.11 1081.9 238.948C1080.04 241.112 1079.82 244.236 1081.36 246.634C1085.12 252.482 1087.11 259.282 1087.11 266.301C1087.11 285.943 1071.55 301.923 1052.43 301.923V301.923Z" fill="black"/>
<path d="M819.382 234.783C816.849 237.284 816.822 241.365 819.324 243.898C821.825 246.431 825.905 246.458 828.438 243.957C833.317 239.14 838.913 239.141 843.791 243.956C845.047 245.196 846.684 245.815 848.319 245.815C849.983 245.815 851.646 245.175 852.907 243.898C855.407 241.365 855.381 237.285 852.848 234.784C842.996 225.057 829.234 225.058 819.382 234.783V234.783Z" fill="black"/>
<path d="M901.639 237.594C899.111 240.099 899.091 244.18 901.596 246.709C904.101 249.237 908.182 249.257 910.711 246.752C915.582 241.925 921.174 241.924 926.048 246.752C927.305 247.997 928.945 248.618 930.584 248.618C932.243 248.618 933.903 247.981 935.162 246.709C937.668 244.18 937.649 240.099 935.119 237.594C925.263 227.832 911.497 227.831 901.639 237.594V237.594Z" fill="black"/>
<path d="M861.42 172.741C858.891 175.246 858.871 179.326 861.376 181.855C863.882 184.383 867.963 184.402 870.491 181.898C875.365 177.071 880.956 177.071 885.828 181.898C887.086 183.143 888.725 183.765 890.364 183.765C892.024 183.765 893.683 183.128 894.943 181.855C897.448 179.326 897.429 175.246 894.9 172.741C885.044 162.976 871.276 162.976 861.42 172.741V172.741Z" fill="black"/>
<path d="M723.328 195.671C727.307 191.735 731.869 191.737 735.846 195.671C737.102 196.914 738.741 197.534 740.378 197.534C742.039 197.534 743.7 196.896 744.96 195.621C747.465 193.091 747.442 189.01 744.911 186.507C735.888 177.582 723.285 177.581 714.262 186.507C711.731 189.01 711.709 193.091 714.212 195.621C716.717 198.153 720.797 198.175 723.328 195.671Z" fill="black"/>
<path d="M695.7 239.785C693.17 242.288 693.148 246.369 695.651 248.899C698.155 251.43 702.236 251.452 704.766 248.949C708.742 245.013 713.304 245.012 717.283 248.949C718.539 250.192 720.178 250.812 721.815 250.812C723.476 250.812 725.137 250.174 726.397 248.899C728.901 246.369 728.879 242.288 726.348 239.785C717.326 230.859 704.724 230.858 695.7 239.785Z" fill="black"/>
<path d="M1028.59 195.622C1031.09 193.092 1031.07 189.011 1028.54 186.508C1019.52 177.583 1006.91 177.582 997.889 186.508C995.359 189.011 995.336 193.091 997.839 195.622C999.1 196.897 1000.76 197.535 1002.42 197.535C1004.06 197.535 1005.7 196.915 1006.95 195.672C1010.93 191.736 1015.49 191.738 1019.47 195.672C1022 198.174 1026.08 198.152 1028.59 195.622Z" fill="black"/>
<path d="M1016.45 239.785C1013.92 242.288 1013.9 246.369 1016.4 248.899C1018.91 251.431 1022.99 251.452 1025.52 248.949C1029.5 245.013 1034.06 245.013 1038.03 248.949C1039.29 250.192 1040.93 250.812 1042.57 250.812C1044.23 250.812 1045.89 250.174 1047.15 248.899C1049.65 246.369 1049.63 242.288 1047.1 239.785C1038.08 230.859 1025.47 230.859 1016.45 239.785Z" fill="black"/>
</g>
<defs>
<clipPath id="clip0">
<rect width="440" height="440" fill="white" transform="translate(660 16)"/>
</clipPath>
</defs>
</svg>
