<svg width="1152" height="472" viewBox="0 0 1152 472" fill="none" xmlns="http://www.w3.org/2000/svg">
<rect width="1152" height="472" fill="#BDEBA7"/>
<path d="M185.766 112.75L201 160.234L216.188 112.75H237.844V181H221.344V165.062L222.938 132.438L206.438 181H195.562L179.016 132.391L180.609 165.062V181H164.156V112.75H185.766ZM276.188 181C275.625 179.969 275.125 178.453 274.688 176.453C271.781 180.109 267.719 181.938 262.5 181.938C257.719 181.938 253.656 180.5 250.312 177.625C246.969 174.719 245.297 171.078 245.297 166.703C245.297 161.203 247.328 157.047 251.391 154.234C255.453 151.422 261.359 150.016 269.109 150.016H273.984V147.344C273.984 142.688 271.969 140.359 267.938 140.359C264.188 140.359 262.312 142.203 262.312 145.891H246.516C246.516 140.984 248.594 137 252.75 133.938C256.938 130.875 262.266 129.344 268.734 129.344C275.203 129.344 280.312 130.922 284.062 134.078C287.812 137.234 289.734 141.562 289.828 147.062V169.516C289.891 174.172 290.609 177.734 291.984 180.203V181H276.188ZM266.297 170.688C268.266 170.688 269.891 170.266 271.172 169.422C272.484 168.578 273.422 167.625 273.984 166.562V158.453H269.391C263.891 158.453 261.141 160.922 261.141 165.859C261.141 167.297 261.625 168.469 262.594 169.375C263.562 170.25 264.797 170.688 266.297 170.688ZM313.125 130.281L313.641 136.234C317.141 131.641 321.969 129.344 328.125 129.344C333.406 129.344 337.344 130.922 339.938 134.078C342.562 137.234 343.922 141.984 344.016 148.328V181H328.172V148.984C328.172 146.422 327.656 144.547 326.625 143.359C325.594 142.141 323.719 141.531 321 141.531C317.906 141.531 315.609 142.75 314.109 145.188V181H298.312V130.281H313.125ZM369.469 181H353.625V130.281H369.469V181ZM352.688 117.203C352.688 114.953 353.5 113.109 355.125 111.672C356.75 110.234 358.859 109.516 361.453 109.516C364.047 109.516 366.156 110.234 367.781 111.672C369.406 113.109 370.219 114.953 370.219 117.203C370.219 119.453 369.406 121.297 367.781 122.734C366.156 124.172 364.047 124.891 361.453 124.891C358.859 124.891 356.75 124.172 355.125 122.734C353.5 121.297 352.688 119.453 352.688 117.203ZM382.734 181V141.25H375.375V130.281H382.734V126.25C382.734 120.469 384.438 115.984 387.844 112.797C391.25 109.609 396.031 108.016 402.188 108.016C404.438 108.016 406.906 108.344 409.594 109L409.641 120.625C408.672 120.344 407.375 120.203 405.75 120.203C400.969 120.203 398.578 122.266 398.578 126.391V130.281H408.469V141.25H398.578V181H382.734ZM437.438 181.938C429.656 181.938 423.359 179.625 418.547 175C413.734 170.344 411.328 164.297 411.328 156.859V155.547C411.328 150.359 412.281 145.781 414.188 141.812C416.125 137.844 418.938 134.781 422.625 132.625C426.312 130.438 430.688 129.344 435.75 129.344C442.875 129.344 448.5 131.562 452.625 136C456.75 140.406 458.812 146.562 458.812 154.469V160.609H427.406C427.969 163.453 429.203 165.688 431.109 167.312C433.016 168.938 435.484 169.75 438.516 169.75C443.516 169.75 447.422 168 450.234 164.5L457.453 173.031C455.484 175.75 452.688 177.922 449.062 179.547C445.469 181.141 441.594 181.938 437.438 181.938ZM435.656 141.531C431.031 141.531 428.281 144.594 427.406 150.719H443.344V149.5C443.406 146.969 442.766 145.016 441.422 143.641C440.078 142.234 438.156 141.531 435.656 141.531ZM491.766 166.75C491.766 165.406 491.062 164.328 489.656 163.516C488.25 162.703 485.578 161.859 481.641 160.984C477.703 160.109 474.453 158.969 471.891 157.562C469.328 156.125 467.375 154.391 466.031 152.359C464.688 150.328 464.016 148 464.016 145.375C464.016 140.719 465.938 136.891 469.781 133.891C473.625 130.859 478.656 129.344 484.875 129.344C491.562 129.344 496.938 130.859 501 133.891C505.062 136.922 507.094 140.906 507.094 145.844H491.25C491.25 141.781 489.109 139.75 484.828 139.75C483.172 139.75 481.781 140.219 480.656 141.156C479.531 142.062 478.969 143.203 478.969 144.578C478.969 145.984 479.656 147.125 481.031 148C482.406 148.875 484.594 149.594 487.594 150.156C490.625 150.719 493.281 151.391 495.562 152.172C503.188 154.797 507 159.5 507 166.281C507 170.906 504.938 174.672 500.812 177.578C496.719 180.484 491.406 181.938 484.875 181.938C480.531 181.938 476.656 181.156 473.25 179.594C469.844 178.031 467.188 175.906 465.281 173.219C463.375 170.531 462.422 167.703 462.422 164.734H477.188C477.25 167.078 478.031 168.797 479.531 169.891C481.031 170.953 482.953 171.484 485.297 171.484C487.453 171.484 489.062 171.047 490.125 170.172C491.219 169.297 491.766 168.156 491.766 166.75ZM532.828 117.672V130.281H541.172V141.25H532.828V164.453C532.828 166.359 533.172 167.688 533.859 168.438C534.547 169.188 535.906 169.562 537.938 169.562C539.5 169.562 540.812 169.469 541.875 169.281V180.578C539.031 181.484 536.062 181.938 532.969 181.938C527.531 181.938 523.516 180.656 520.922 178.094C518.328 175.531 517.031 171.641 517.031 166.422V141.25H510.562V130.281H517.031V117.672H532.828Z" fill="#78C2A4"/>
<path d="M166.049 244.449H177.668V248H161.602V222.406H166.049V244.449ZM179.865 238.314C179.865 236.451 180.234 234.775 180.973 233.287C181.711 231.787 182.748 230.639 184.084 229.842C185.42 229.033 186.955 228.629 188.689 228.629C191.256 228.629 193.336 229.455 194.93 231.107C196.535 232.76 197.402 234.951 197.531 237.682L197.549 238.684C197.549 240.559 197.186 242.234 196.459 243.711C195.744 245.188 194.713 246.33 193.365 247.139C192.029 247.947 190.482 248.352 188.725 248.352C186.041 248.352 183.891 247.461 182.273 245.68C180.668 243.887 179.865 241.502 179.865 238.525V238.314ZM184.137 238.684C184.137 240.641 184.541 242.176 185.35 243.289C186.158 244.391 187.283 244.941 188.725 244.941C190.166 244.941 191.285 244.379 192.082 243.254C192.891 242.129 193.295 240.482 193.295 238.314C193.295 236.393 192.879 234.869 192.047 233.744C191.227 232.619 190.107 232.057 188.689 232.057C187.295 232.057 186.188 232.613 185.367 233.727C184.547 234.828 184.137 236.48 184.137 238.684ZM211.119 232.883C210.557 232.789 209.977 232.742 209.379 232.742C207.422 232.742 206.104 233.492 205.424 234.992V248H201.152V228.98H205.23L205.336 231.107C206.367 229.455 207.797 228.629 209.625 228.629C210.234 228.629 210.738 228.711 211.137 228.875L211.119 232.883ZM221.842 248.352C219.135 248.352 216.938 247.502 215.25 245.803C213.574 244.092 212.736 241.818 212.736 238.982V238.455C212.736 236.557 213.1 234.863 213.826 233.375C214.564 231.875 215.596 230.709 216.92 229.877C218.244 229.045 219.721 228.629 221.35 228.629C223.939 228.629 225.938 229.455 227.344 231.107C228.762 232.76 229.471 235.098 229.471 238.121V239.844H217.043C217.172 241.414 217.693 242.656 218.607 243.57C219.533 244.484 220.693 244.941 222.088 244.941C224.045 244.941 225.639 244.15 226.869 242.568L229.172 244.766C228.41 245.902 227.391 246.787 226.113 247.42C224.848 248.041 223.424 248.352 221.842 248.352ZM221.332 232.057C220.16 232.057 219.211 232.467 218.484 233.287C217.77 234.107 217.312 235.25 217.113 236.715H225.252V236.398C225.158 234.969 224.777 233.891 224.109 233.164C223.441 232.426 222.516 232.057 221.332 232.057ZM236.818 228.98L236.941 230.967C238.277 229.408 240.105 228.629 242.426 228.629C244.969 228.629 246.709 229.602 247.646 231.547C249.029 229.602 250.975 228.629 253.482 228.629C255.58 228.629 257.139 229.209 258.158 230.369C259.189 231.529 259.717 233.24 259.74 235.502V248H255.469V235.625C255.469 234.418 255.205 233.533 254.678 232.971C254.15 232.408 253.277 232.127 252.059 232.127C251.086 232.127 250.289 232.391 249.668 232.918C249.059 233.434 248.631 234.113 248.385 234.957L248.402 248H244.131V235.484C244.072 233.246 242.93 232.127 240.703 232.127C238.992 232.127 237.779 232.824 237.064 234.219V248H232.793V228.98H236.818ZM277.635 248H273.363V228.98H277.635V248ZM273.1 224.041C273.1 223.385 273.305 222.84 273.715 222.406C274.137 221.973 274.734 221.756 275.508 221.756C276.281 221.756 276.879 221.973 277.301 222.406C277.723 222.84 277.934 223.385 277.934 224.041C277.934 224.686 277.723 225.225 277.301 225.658C276.879 226.08 276.281 226.291 275.508 226.291C274.734 226.291 274.137 226.08 273.715 225.658C273.305 225.225 273.1 224.686 273.1 224.041ZM298.957 238.684C298.957 241.625 298.289 243.975 296.953 245.732C295.617 247.479 293.824 248.352 291.574 248.352C289.488 248.352 287.818 247.666 286.564 246.295V255.312H282.293V228.98H286.23L286.406 230.914C287.66 229.391 289.365 228.629 291.521 228.629C293.842 228.629 295.658 229.496 296.971 231.23C298.295 232.953 298.957 235.35 298.957 238.42V238.684ZM294.703 238.314C294.703 236.416 294.322 234.91 293.561 233.797C292.811 232.684 291.732 232.127 290.326 232.127C288.58 232.127 287.326 232.848 286.564 234.289V242.727C287.338 244.203 288.604 244.941 290.361 244.941C291.721 244.941 292.781 244.396 293.543 243.307C294.316 242.205 294.703 240.541 294.703 238.314ZM313.248 242.832C313.248 242.07 312.932 241.49 312.299 241.092C311.678 240.693 310.641 240.342 309.188 240.037C307.734 239.732 306.521 239.346 305.549 238.877C303.416 237.846 302.35 236.352 302.35 234.395C302.35 232.754 303.041 231.383 304.424 230.281C305.807 229.18 307.564 228.629 309.697 228.629C311.971 228.629 313.805 229.191 315.199 230.316C316.605 231.441 317.309 232.9 317.309 234.693H313.037C313.037 233.873 312.732 233.193 312.123 232.654C311.514 232.104 310.705 231.828 309.697 231.828C308.76 231.828 307.992 232.045 307.395 232.479C306.809 232.912 306.516 233.492 306.516 234.219C306.516 234.875 306.791 235.385 307.342 235.748C307.893 236.111 309.006 236.48 310.682 236.855C312.357 237.219 313.67 237.658 314.619 238.174C315.58 238.678 316.289 239.287 316.746 240.002C317.215 240.717 317.449 241.584 317.449 242.604C317.449 244.314 316.74 245.703 315.322 246.77C313.904 247.824 312.047 248.352 309.75 248.352C308.191 248.352 306.803 248.07 305.584 247.508C304.365 246.945 303.416 246.172 302.736 245.188C302.057 244.203 301.717 243.143 301.717 242.006H305.865C305.924 243.014 306.305 243.793 307.008 244.344C307.711 244.883 308.643 245.152 309.803 245.152C310.928 245.152 311.783 244.941 312.369 244.52C312.955 244.086 313.248 243.523 313.248 242.832ZM332.707 246.137C331.453 247.613 329.672 248.352 327.363 248.352C325.301 248.352 323.736 247.748 322.67 246.541C321.615 245.334 321.088 243.588 321.088 241.303V228.98H325.359V241.25C325.359 243.664 326.361 244.871 328.365 244.871C330.439 244.871 331.84 244.127 332.566 242.639V228.98H336.838V248H332.812L332.707 246.137ZM345.205 228.98L345.328 230.967C346.664 229.408 348.492 228.629 350.812 228.629C353.355 228.629 355.096 229.602 356.033 231.547C357.416 229.602 359.361 228.629 361.869 228.629C363.967 228.629 365.525 229.209 366.545 230.369C367.576 231.529 368.104 233.24 368.127 235.502V248H363.855V235.625C363.855 234.418 363.592 233.533 363.064 232.971C362.537 232.408 361.664 232.127 360.445 232.127C359.473 232.127 358.676 232.391 358.055 232.918C357.445 233.434 357.018 234.113 356.771 234.957L356.789 248H352.518V235.484C352.459 233.246 351.316 232.127 349.09 232.127C347.379 232.127 346.166 232.824 345.451 234.219V248H341.18V228.98H345.205ZM380.678 238.35C380.678 235.42 381.357 233.07 382.717 231.301C384.076 229.52 385.898 228.629 388.184 228.629C390.199 228.629 391.828 229.332 393.07 230.738V221H397.342V248H393.475L393.264 246.031C391.986 247.578 390.281 248.352 388.148 248.352C385.922 248.352 384.117 247.455 382.734 245.662C381.363 243.869 380.678 241.432 380.678 238.35ZM384.949 238.719C384.949 240.652 385.318 242.164 386.057 243.254C386.807 244.332 387.867 244.871 389.238 244.871C390.984 244.871 392.262 244.092 393.07 242.533V234.412C392.285 232.889 391.02 232.127 389.273 232.127C387.891 232.127 386.824 232.678 386.074 233.779C385.324 234.869 384.949 236.516 384.949 238.719ZM400.998 238.314C400.998 236.451 401.367 234.775 402.105 233.287C402.844 231.787 403.881 230.639 405.217 229.842C406.553 229.033 408.088 228.629 409.822 228.629C412.389 228.629 414.469 229.455 416.062 231.107C417.668 232.76 418.535 234.951 418.664 237.682L418.682 238.684C418.682 240.559 418.318 242.234 417.592 243.711C416.877 245.188 415.846 246.33 414.498 247.139C413.162 247.947 411.615 248.352 409.857 248.352C407.174 248.352 405.023 247.461 403.406 245.68C401.801 243.887 400.998 241.502 400.998 238.525V238.314ZM405.27 238.684C405.27 240.641 405.674 242.176 406.482 243.289C407.291 244.391 408.416 244.941 409.857 244.941C411.299 244.941 412.418 244.379 413.215 243.254C414.023 242.129 414.428 240.482 414.428 238.314C414.428 236.393 414.012 234.869 413.18 233.744C412.359 232.619 411.24 232.057 409.822 232.057C408.428 232.057 407.32 232.613 406.5 233.727C405.68 234.828 405.27 236.48 405.27 238.684ZM426.838 248H422.566V221H426.838V248ZM430.705 238.314C430.705 236.451 431.074 234.775 431.812 233.287C432.551 231.787 433.588 230.639 434.924 229.842C436.26 229.033 437.795 228.629 439.529 228.629C442.096 228.629 444.176 229.455 445.77 231.107C447.375 232.76 448.242 234.951 448.371 237.682L448.389 238.684C448.389 240.559 448.025 242.234 447.299 243.711C446.584 245.188 445.553 246.33 444.205 247.139C442.869 247.947 441.322 248.352 439.564 248.352C436.881 248.352 434.73 247.461 433.113 245.68C431.508 243.887 430.705 241.502 430.705 238.525V238.314ZM434.977 238.684C434.977 240.641 435.381 242.176 436.189 243.289C436.998 244.391 438.123 244.941 439.564 244.941C441.006 244.941 442.125 244.379 442.922 243.254C443.73 242.129 444.135 240.482 444.135 238.314C444.135 236.393 443.719 234.869 442.887 233.744C442.066 232.619 440.947 232.057 439.529 232.057C438.135 232.057 437.027 232.613 436.207 233.727C435.387 234.828 434.977 236.48 434.977 238.684ZM461.959 232.883C461.396 232.789 460.816 232.742 460.219 232.742C458.262 232.742 456.943 233.492 456.264 234.992V248H451.992V228.98H456.07L456.176 231.107C457.207 229.455 458.637 228.629 460.465 228.629C461.074 228.629 461.578 228.711 461.977 228.875L461.959 232.883ZM484.283 242.832C484.283 242.07 483.967 241.49 483.334 241.092C482.713 240.693 481.676 240.342 480.223 240.037C478.77 239.732 477.557 239.346 476.584 238.877C474.451 237.846 473.385 236.352 473.385 234.395C473.385 232.754 474.076 231.383 475.459 230.281C476.842 229.18 478.6 228.629 480.732 228.629C483.006 228.629 484.84 229.191 486.234 230.316C487.641 231.441 488.344 232.9 488.344 234.693H484.072C484.072 233.873 483.768 233.193 483.158 232.654C482.549 232.104 481.74 231.828 480.732 231.828C479.795 231.828 479.027 232.045 478.43 232.479C477.844 232.912 477.551 233.492 477.551 234.219C477.551 234.875 477.826 235.385 478.377 235.748C478.928 236.111 480.041 236.48 481.717 236.855C483.393 237.219 484.705 237.658 485.654 238.174C486.615 238.678 487.324 239.287 487.781 240.002C488.25 240.717 488.484 241.584 488.484 242.604C488.484 244.314 487.775 245.703 486.357 246.77C484.939 247.824 483.082 248.352 480.785 248.352C479.227 248.352 477.838 248.07 476.619 247.508C475.4 246.945 474.451 246.172 473.771 245.188C473.092 244.203 472.752 243.143 472.752 242.006H476.9C476.959 243.014 477.34 243.793 478.043 244.344C478.746 244.883 479.678 245.152 480.838 245.152C481.963 245.152 482.818 244.941 483.404 244.52C483.99 244.086 484.283 243.523 484.283 242.832ZM496.764 248H492.492V228.98H496.764V248ZM492.229 224.041C492.229 223.385 492.434 222.84 492.844 222.406C493.266 221.973 493.863 221.756 494.637 221.756C495.41 221.756 496.008 221.973 496.43 222.406C496.852 222.84 497.062 223.385 497.062 224.041C497.062 224.686 496.852 225.225 496.43 225.658C496.008 226.08 495.41 226.291 494.637 226.291C493.863 226.291 493.266 226.08 492.844 225.658C492.434 225.225 492.229 224.686 492.229 224.041ZM506.783 224.357V228.98H510.141V232.145H506.783V242.762C506.783 243.488 506.924 244.016 507.205 244.344C507.498 244.66 508.014 244.818 508.752 244.818C509.244 244.818 509.742 244.76 510.246 244.643V247.947C509.273 248.217 508.336 248.352 507.434 248.352C504.152 248.352 502.512 246.541 502.512 242.92V232.145H499.383V228.98H502.512V224.357H506.783ZM172.553 298C172.365 297.637 172.201 297.045 172.061 296.225C170.701 297.643 169.037 298.352 167.068 298.352C165.158 298.352 163.6 297.807 162.393 296.717C161.186 295.627 160.582 294.279 160.582 292.674C160.582 290.646 161.332 289.094 162.832 288.016C164.344 286.926 166.5 286.381 169.301 286.381H171.92V285.133C171.92 284.148 171.645 283.363 171.094 282.777C170.543 282.18 169.705 281.881 168.58 281.881C167.607 281.881 166.811 282.127 166.189 282.619C165.568 283.1 165.258 283.715 165.258 284.465H160.986C160.986 283.422 161.332 282.449 162.023 281.547C162.715 280.633 163.652 279.918 164.836 279.402C166.031 278.887 167.361 278.629 168.826 278.629C171.053 278.629 172.828 279.191 174.152 280.316C175.477 281.43 176.156 283 176.191 285.027V293.605C176.191 295.316 176.432 296.682 176.912 297.701V298H172.553ZM167.859 294.924C168.703 294.924 169.494 294.719 170.232 294.309C170.982 293.898 171.545 293.348 171.92 292.656V289.07H169.617C168.035 289.07 166.846 289.346 166.049 289.896C165.252 290.447 164.854 291.227 164.854 292.234C164.854 293.055 165.123 293.711 165.662 294.203C166.213 294.684 166.945 294.924 167.859 294.924ZM184.682 278.98L184.805 280.967C186.141 279.408 187.969 278.629 190.289 278.629C192.832 278.629 194.572 279.602 195.51 281.547C196.893 279.602 198.838 278.629 201.346 278.629C203.443 278.629 205.002 279.209 206.021 280.369C207.053 281.529 207.58 283.24 207.604 285.502V298H203.332V285.625C203.332 284.418 203.068 283.533 202.541 282.971C202.014 282.408 201.141 282.127 199.922 282.127C198.949 282.127 198.152 282.391 197.531 282.918C196.922 283.434 196.494 284.113 196.248 284.957L196.266 298H191.994V285.484C191.936 283.246 190.793 282.127 188.566 282.127C186.855 282.127 185.643 282.824 184.928 284.219V298H180.656V278.98H184.682ZM220.365 298.352C217.658 298.352 215.461 297.502 213.773 295.803C212.098 294.092 211.26 291.818 211.26 288.982V288.455C211.26 286.557 211.623 284.863 212.35 283.375C213.088 281.875 214.119 280.709 215.443 279.877C216.768 279.045 218.244 278.629 219.873 278.629C222.463 278.629 224.461 279.455 225.867 281.107C227.285 282.76 227.994 285.098 227.994 288.121V289.844H215.566C215.695 291.414 216.217 292.656 217.131 293.57C218.057 294.484 219.217 294.941 220.611 294.941C222.568 294.941 224.162 294.15 225.393 292.568L227.695 294.766C226.934 295.902 225.914 296.787 224.637 297.42C223.371 298.041 221.947 298.352 220.365 298.352ZM219.855 282.057C218.684 282.057 217.734 282.467 217.008 283.287C216.293 284.107 215.836 285.25 215.637 286.715H223.775V286.398C223.682 284.969 223.301 283.891 222.633 283.164C221.965 282.426 221.039 282.057 219.855 282.057ZM236.678 274.357V278.98H240.035V282.145H236.678V292.762C236.678 293.488 236.818 294.016 237.1 294.344C237.393 294.66 237.908 294.818 238.646 294.818C239.139 294.818 239.637 294.76 240.141 294.643V297.947C239.168 298.217 238.23 298.352 237.328 298.352C234.047 298.352 232.406 296.541 232.406 292.92V282.145H229.277V278.98H232.406V274.357H236.678ZM243.92 303.766L241.617 302.395C242.297 301.328 242.76 300.396 243.006 299.6C243.264 298.814 243.398 298.012 243.41 297.191V293.869H247.26L247.242 296.945C247.23 298.188 246.914 299.43 246.293 300.672C245.684 301.926 244.893 302.957 243.92 303.766ZM268.002 294.941C269.068 294.941 269.953 294.631 270.656 294.01C271.359 293.389 271.734 292.621 271.781 291.707H275.807C275.76 292.891 275.391 293.998 274.699 295.029C274.008 296.049 273.07 296.857 271.887 297.455C270.703 298.053 269.426 298.352 268.055 298.352C265.395 298.352 263.285 297.49 261.727 295.768C260.168 294.045 259.389 291.666 259.389 288.631V288.191C259.389 285.297 260.162 282.982 261.709 281.248C263.256 279.502 265.365 278.629 268.037 278.629C270.299 278.629 272.139 279.291 273.557 280.615C274.986 281.928 275.736 283.656 275.807 285.801H271.781C271.734 284.711 271.359 283.814 270.656 283.111C269.965 282.408 269.08 282.057 268.002 282.057C266.619 282.057 265.553 282.561 264.803 283.568C264.053 284.564 263.672 286.082 263.66 288.121V288.807C263.66 290.869 264.029 292.41 264.768 293.43C265.518 294.438 266.596 294.941 268.002 294.941ZM278.232 288.314C278.232 286.451 278.602 284.775 279.34 283.287C280.078 281.787 281.115 280.639 282.451 279.842C283.787 279.033 285.322 278.629 287.057 278.629C289.623 278.629 291.703 279.455 293.297 281.107C294.902 282.76 295.77 284.951 295.898 287.682L295.916 288.684C295.916 290.559 295.553 292.234 294.826 293.711C294.111 295.188 293.08 296.33 291.732 297.139C290.396 297.947 288.85 298.352 287.092 298.352C284.408 298.352 282.258 297.461 280.641 295.68C279.035 293.887 278.232 291.502 278.232 288.525V288.314ZM282.504 288.684C282.504 290.641 282.908 292.176 283.717 293.289C284.525 294.391 285.65 294.941 287.092 294.941C288.533 294.941 289.652 294.379 290.449 293.254C291.258 292.129 291.662 290.482 291.662 288.314C291.662 286.393 291.246 284.869 290.414 283.744C289.594 282.619 288.475 282.057 287.057 282.057C285.662 282.057 284.555 282.613 283.734 283.727C282.914 284.828 282.504 286.48 282.504 288.684ZM303.492 278.98L303.615 281.178C305.021 279.479 306.867 278.629 309.152 278.629C313.113 278.629 315.129 280.896 315.199 285.432V298H310.928V285.678C310.928 284.471 310.664 283.58 310.137 283.006C309.621 282.42 308.771 282.127 307.588 282.127C305.865 282.127 304.582 282.906 303.738 284.465V298H299.467V278.98H303.492ZM330.229 292.832C330.229 292.07 329.912 291.49 329.279 291.092C328.658 290.693 327.621 290.342 326.168 290.037C324.715 289.732 323.502 289.346 322.529 288.877C320.396 287.846 319.33 286.352 319.33 284.395C319.33 282.754 320.021 281.383 321.404 280.281C322.787 279.18 324.545 278.629 326.678 278.629C328.951 278.629 330.785 279.191 332.18 280.316C333.586 281.441 334.289 282.9 334.289 284.693H330.018C330.018 283.873 329.713 283.193 329.104 282.654C328.494 282.104 327.686 281.828 326.678 281.828C325.74 281.828 324.973 282.045 324.375 282.479C323.789 282.912 323.496 283.492 323.496 284.219C323.496 284.875 323.771 285.385 324.322 285.748C324.873 286.111 325.986 286.48 327.662 286.855C329.338 287.219 330.65 287.658 331.6 288.174C332.561 288.678 333.27 289.287 333.727 290.002C334.195 290.717 334.43 291.584 334.43 292.604C334.43 294.314 333.721 295.703 332.303 296.77C330.885 297.824 329.027 298.352 326.73 298.352C325.172 298.352 323.783 298.07 322.564 297.508C321.346 296.945 320.396 296.172 319.717 295.188C319.037 294.203 318.697 293.143 318.697 292.006H322.846C322.904 293.014 323.285 293.793 323.988 294.344C324.691 294.883 325.623 295.152 326.783 295.152C327.908 295.152 328.764 294.941 329.35 294.52C329.936 294.086 330.229 293.523 330.229 292.832ZM346.541 298.352C343.834 298.352 341.637 297.502 339.949 295.803C338.273 294.092 337.436 291.818 337.436 288.982V288.455C337.436 286.557 337.799 284.863 338.525 283.375C339.264 281.875 340.295 280.709 341.619 279.877C342.943 279.045 344.42 278.629 346.049 278.629C348.639 278.629 350.637 279.455 352.043 281.107C353.461 282.76 354.17 285.098 354.17 288.121V289.844H341.742C341.871 291.414 342.393 292.656 343.307 293.57C344.232 294.484 345.393 294.941 346.787 294.941C348.744 294.941 350.338 294.15 351.568 292.568L353.871 294.766C353.109 295.902 352.09 296.787 350.812 297.42C349.547 298.041 348.123 298.352 346.541 298.352ZM346.031 282.057C344.859 282.057 343.91 282.467 343.184 283.287C342.469 284.107 342.012 285.25 341.812 286.715H349.951V286.398C349.857 284.969 349.477 283.891 348.809 283.164C348.141 282.426 347.215 282.057 346.031 282.057ZM365.314 294.941C366.381 294.941 367.266 294.631 367.969 294.01C368.672 293.389 369.047 292.621 369.094 291.707H373.119C373.072 292.891 372.703 293.998 372.012 295.029C371.32 296.049 370.383 296.857 369.199 297.455C368.016 298.053 366.738 298.352 365.367 298.352C362.707 298.352 360.598 297.49 359.039 295.768C357.48 294.045 356.701 291.666 356.701 288.631V288.191C356.701 285.297 357.475 282.982 359.021 281.248C360.568 279.502 362.678 278.629 365.35 278.629C367.611 278.629 369.451 279.291 370.869 280.615C372.299 281.928 373.049 283.656 373.119 285.801H369.094C369.047 284.711 368.672 283.814 367.969 283.111C367.277 282.408 366.393 282.057 365.314 282.057C363.932 282.057 362.865 282.561 362.115 283.568C361.365 284.564 360.984 286.082 360.973 288.121V288.807C360.973 290.869 361.342 292.41 362.08 293.43C362.83 294.438 363.908 294.941 365.314 294.941ZM381.697 274.357V278.98H385.055V282.145H381.697V292.762C381.697 293.488 381.838 294.016 382.119 294.344C382.412 294.66 382.928 294.818 383.666 294.818C384.158 294.818 384.656 294.76 385.16 294.643V297.947C384.188 298.217 383.25 298.352 382.348 298.352C379.066 298.352 377.426 296.541 377.426 292.92V282.145H374.297V278.98H377.426V274.357H381.697ZM396.709 298.352C394.002 298.352 391.805 297.502 390.117 295.803C388.441 294.092 387.604 291.818 387.604 288.982V288.455C387.604 286.557 387.967 284.863 388.693 283.375C389.432 281.875 390.463 280.709 391.787 279.877C393.111 279.045 394.588 278.629 396.217 278.629C398.807 278.629 400.805 279.455 402.211 281.107C403.629 282.76 404.338 285.098 404.338 288.121V289.844H391.91C392.039 291.414 392.561 292.656 393.475 293.57C394.4 294.484 395.561 294.941 396.955 294.941C398.912 294.941 400.506 294.15 401.736 292.568L404.039 294.766C403.277 295.902 402.258 296.787 400.98 297.42C399.715 298.041 398.291 298.352 396.709 298.352ZM396.199 282.057C395.027 282.057 394.078 282.467 393.352 283.287C392.637 284.107 392.18 285.25 391.98 286.715H400.119V286.398C400.025 284.969 399.645 283.891 398.977 283.164C398.309 282.426 397.383 282.057 396.199 282.057ZM413.021 274.357V278.98H416.379V282.145H413.021V292.762C413.021 293.488 413.162 294.016 413.443 294.344C413.736 294.66 414.252 294.818 414.99 294.818C415.482 294.818 415.98 294.76 416.484 294.643V297.947C415.512 298.217 414.574 298.352 413.672 298.352C410.391 298.352 408.75 296.541 408.75 292.92V282.145H405.621V278.98H408.75V274.357H413.021ZM431.18 296.137C429.926 297.613 428.145 298.352 425.836 298.352C423.773 298.352 422.209 297.748 421.143 296.541C420.088 295.334 419.561 293.588 419.561 291.303V278.98H423.832V291.25C423.832 293.664 424.834 294.871 426.838 294.871C428.912 294.871 430.312 294.127 431.039 292.639V278.98H435.311V298H431.285L431.18 296.137ZM449.619 282.883C449.057 282.789 448.477 282.742 447.879 282.742C445.922 282.742 444.604 283.492 443.924 284.992V298H439.652V278.98H443.73L443.836 281.107C444.867 279.455 446.297 278.629 448.125 278.629C448.734 278.629 449.238 278.711 449.637 278.875L449.619 282.883ZM172.553 348C172.365 347.637 172.201 347.045 172.061 346.225C170.701 347.643 169.037 348.352 167.068 348.352C165.158 348.352 163.6 347.807 162.393 346.717C161.186 345.627 160.582 344.279 160.582 342.674C160.582 340.646 161.332 339.094 162.832 338.016C164.344 336.926 166.5 336.381 169.301 336.381H171.92V335.133C171.92 334.148 171.645 333.363 171.094 332.777C170.543 332.18 169.705 331.881 168.58 331.881C167.607 331.881 166.811 332.127 166.189 332.619C165.568 333.1 165.258 333.715 165.258 334.465H160.986C160.986 333.422 161.332 332.449 162.023 331.547C162.715 330.633 163.652 329.918 164.836 329.402C166.031 328.887 167.361 328.629 168.826 328.629C171.053 328.629 172.828 329.191 174.152 330.316C175.477 331.43 176.156 333 176.191 335.027V343.605C176.191 345.316 176.432 346.682 176.912 347.701V348H172.553ZM167.859 344.924C168.703 344.924 169.494 344.719 170.232 344.309C170.982 343.898 171.545 343.348 171.92 342.656V339.07H169.617C168.035 339.07 166.846 339.346 166.049 339.896C165.252 340.447 164.854 341.227 164.854 342.234C164.854 343.055 165.123 343.711 165.662 344.203C166.213 344.684 166.945 344.924 167.859 344.924ZM179.865 338.35C179.865 335.42 180.545 333.07 181.904 331.301C183.264 329.52 185.086 328.629 187.371 328.629C189.387 328.629 191.016 329.332 192.258 330.738V321H196.529V348H192.662L192.451 346.031C191.174 347.578 189.469 348.352 187.336 348.352C185.109 348.352 183.305 347.455 181.922 345.662C180.551 343.869 179.865 341.432 179.865 338.35ZM184.137 338.719C184.137 340.652 184.506 342.164 185.244 343.254C185.994 344.332 187.055 344.871 188.426 344.871C190.172 344.871 191.449 344.092 192.258 342.533V334.412C191.473 332.889 190.207 332.127 188.461 332.127C187.078 332.127 186.012 332.678 185.262 333.779C184.512 334.869 184.137 336.516 184.137 338.719ZM205.529 348H201.258V328.98H205.529V348ZM200.994 324.041C200.994 323.385 201.199 322.84 201.609 322.406C202.031 321.973 202.629 321.756 203.402 321.756C204.176 321.756 204.773 321.973 205.195 322.406C205.617 322.84 205.828 323.385 205.828 324.041C205.828 324.686 205.617 325.225 205.195 325.658C204.773 326.08 204.176 326.291 203.402 326.291C202.629 326.291 202.031 326.08 201.609 325.658C201.199 325.225 200.994 324.686 200.994 324.041ZM226.852 338.684C226.852 341.625 226.184 343.975 224.848 345.732C223.512 347.479 221.719 348.352 219.469 348.352C217.383 348.352 215.713 347.666 214.459 346.295V355.312H210.188V328.98H214.125L214.301 330.914C215.555 329.391 217.26 328.629 219.416 328.629C221.736 328.629 223.553 329.496 224.865 331.23C226.189 332.953 226.852 335.35 226.852 338.42V338.684ZM222.598 338.314C222.598 336.416 222.217 334.91 221.455 333.797C220.705 332.684 219.627 332.127 218.221 332.127C216.475 332.127 215.221 332.848 214.459 334.289V342.727C215.232 344.203 216.498 344.941 218.256 344.941C219.615 344.941 220.676 344.396 221.438 343.307C222.211 342.205 222.598 340.541 222.598 338.314ZM235.025 348H230.754V328.98H235.025V348ZM230.49 324.041C230.49 323.385 230.695 322.84 231.105 322.406C231.527 321.973 232.125 321.756 232.898 321.756C233.672 321.756 234.27 321.973 234.691 322.406C235.113 322.84 235.324 323.385 235.324 324.041C235.324 324.686 235.113 325.225 234.691 325.658C234.27 326.08 233.672 326.291 232.898 326.291C232.125 326.291 231.527 326.08 231.105 325.658C230.695 325.225 230.49 324.686 230.49 324.041ZM250.354 342.832C250.354 342.07 250.037 341.49 249.404 341.092C248.783 340.693 247.746 340.342 246.293 340.037C244.84 339.732 243.627 339.346 242.654 338.877C240.521 337.846 239.455 336.352 239.455 334.395C239.455 332.754 240.146 331.383 241.529 330.281C242.912 329.18 244.67 328.629 246.803 328.629C249.076 328.629 250.91 329.191 252.305 330.316C253.711 331.441 254.414 332.9 254.414 334.693H250.143C250.143 333.873 249.838 333.193 249.229 332.654C248.619 332.104 247.811 331.828 246.803 331.828C245.865 331.828 245.098 332.045 244.5 332.479C243.914 332.912 243.621 333.492 243.621 334.219C243.621 334.875 243.896 335.385 244.447 335.748C244.998 336.111 246.111 336.48 247.787 336.855C249.463 337.219 250.775 337.658 251.725 338.174C252.686 338.678 253.395 339.287 253.852 340.002C254.32 340.717 254.555 341.584 254.555 342.604C254.555 344.314 253.846 345.703 252.428 346.77C251.01 347.824 249.152 348.352 246.855 348.352C245.297 348.352 243.908 348.07 242.689 347.508C241.471 346.945 240.521 346.172 239.842 345.188C239.162 344.203 238.822 343.143 238.822 342.006H242.971C243.029 343.014 243.41 343.793 244.113 344.344C244.816 344.883 245.748 345.152 246.908 345.152C248.033 345.152 248.889 344.941 249.475 344.52C250.061 344.086 250.354 343.523 250.354 342.832ZM266.104 344.941C267.17 344.941 268.055 344.631 268.758 344.01C269.461 343.389 269.836 342.621 269.883 341.707H273.908C273.861 342.891 273.492 343.998 272.801 345.029C272.109 346.049 271.172 346.857 269.988 347.455C268.805 348.053 267.527 348.352 266.156 348.352C263.496 348.352 261.387 347.49 259.828 345.768C258.27 344.045 257.49 341.666 257.49 338.631V338.191C257.49 335.297 258.264 332.982 259.811 331.248C261.357 329.502 263.467 328.629 266.139 328.629C268.4 328.629 270.24 329.291 271.658 330.615C273.088 331.928 273.838 333.656 273.908 335.801H269.883C269.836 334.711 269.461 333.814 268.758 333.111C268.066 332.408 267.182 332.057 266.104 332.057C264.721 332.057 263.654 332.561 262.904 333.568C262.154 334.564 261.773 336.082 261.762 338.121V338.807C261.762 340.869 262.131 342.41 262.869 343.43C263.619 344.438 264.697 344.941 266.104 344.941ZM281.678 348H277.406V328.98H281.678V348ZM277.143 324.041C277.143 323.385 277.348 322.84 277.758 322.406C278.18 321.973 278.777 321.756 279.551 321.756C280.324 321.756 280.922 321.973 281.344 322.406C281.766 322.84 281.977 323.385 281.977 324.041C281.977 324.686 281.766 325.225 281.344 325.658C280.922 326.08 280.324 326.291 279.551 326.291C278.777 326.291 278.18 326.08 277.758 325.658C277.348 325.225 277.143 324.686 277.143 324.041ZM290.309 328.98L290.432 331.178C291.838 329.479 293.684 328.629 295.969 328.629C299.93 328.629 301.945 330.896 302.016 335.432V348H297.744V335.678C297.744 334.471 297.48 333.58 296.953 333.006C296.438 332.42 295.588 332.127 294.404 332.127C292.682 332.127 291.398 332.906 290.555 334.465V348H286.283V328.98H290.309ZM305.637 338.35C305.637 335.396 306.328 333.041 307.711 331.283C309.105 329.514 310.951 328.629 313.248 328.629C315.416 328.629 317.121 329.385 318.363 330.896L318.557 328.98H322.406V347.42C322.406 349.916 321.627 351.885 320.068 353.326C318.521 354.768 316.43 355.488 313.793 355.488C312.398 355.488 311.033 355.195 309.697 354.609C308.373 354.035 307.365 353.279 306.674 352.342L308.695 349.775C310.008 351.334 311.625 352.113 313.547 352.113C314.965 352.113 316.084 351.727 316.904 350.953C317.725 350.191 318.135 349.066 318.135 347.578V346.295C316.904 347.666 315.264 348.352 313.213 348.352C310.986 348.352 309.164 347.467 307.746 345.697C306.34 343.928 305.637 341.479 305.637 338.35ZM309.891 338.719C309.891 340.629 310.277 342.135 311.051 343.236C311.836 344.326 312.92 344.871 314.303 344.871C316.025 344.871 317.303 344.133 318.135 342.656V334.289C317.326 332.848 316.061 332.127 314.338 332.127C312.932 332.127 311.836 332.684 311.051 333.797C310.277 334.91 309.891 336.551 309.891 338.719ZM344.15 348.352C341.443 348.352 339.246 347.502 337.559 345.803C335.883 344.092 335.045 341.818 335.045 338.982V338.455C335.045 336.557 335.408 334.863 336.135 333.375C336.873 331.875 337.904 330.709 339.229 329.877C340.553 329.045 342.029 328.629 343.658 328.629C346.248 328.629 348.246 329.455 349.652 331.107C351.07 332.76 351.779 335.098 351.779 338.121V339.844H339.352C339.48 341.414 340.002 342.656 340.916 343.57C341.842 344.484 343.002 344.941 344.396 344.941C346.354 344.941 347.947 344.15 349.178 342.568L351.48 344.766C350.719 345.902 349.699 346.787 348.422 347.42C347.156 348.041 345.732 348.352 344.15 348.352ZM343.641 332.057C342.469 332.057 341.52 332.467 340.793 333.287C340.078 334.107 339.621 335.25 339.422 336.715H347.561V336.398C347.467 334.969 347.086 333.891 346.418 333.164C345.75 332.426 344.824 332.057 343.641 332.057ZM359.654 348H355.383V321H359.654V348ZM368.865 348H364.594V328.98H368.865V348ZM364.33 324.041C364.33 323.385 364.535 322.84 364.945 322.406C365.367 321.973 365.965 321.756 366.738 321.756C367.512 321.756 368.109 321.973 368.531 322.406C368.953 322.84 369.164 323.385 369.164 324.041C369.164 324.686 368.953 325.225 368.531 325.658C368.109 326.08 367.512 326.291 366.738 326.291C365.965 326.291 365.367 326.08 364.945 325.658C364.535 325.225 364.33 324.686 364.33 324.041ZM378.885 324.357V328.98H382.242V332.145H378.885V342.762C378.885 343.488 379.025 344.016 379.307 344.344C379.6 344.66 380.115 344.818 380.854 344.818C381.346 344.818 381.844 344.76 382.348 344.643V347.947C381.375 348.217 380.438 348.352 379.535 348.352C376.254 348.352 374.613 346.541 374.613 342.92V332.145H371.484V328.98H374.613V324.357H378.885ZM388.184 343.5C388.98 343.5 389.596 343.729 390.029 344.186C390.463 344.631 390.68 345.193 390.68 345.873C390.68 346.541 390.463 347.098 390.029 347.543C389.596 347.977 388.98 348.193 388.184 348.193C387.422 348.193 386.818 347.977 386.373 347.543C385.928 347.109 385.705 346.553 385.705 345.873C385.705 345.193 385.922 344.631 386.355 344.186C386.789 343.729 387.398 343.5 388.184 343.5Z" fill="#FEFCFC"/>
<g clip-path="url(#clip0)">
<path d="M826.835 110.963L797.416 165.172C795.517 168.672 796.767 173.048 800.229 175.016L846.293 201.199C849.803 203.194 854.265 201.966 856.261 198.458L912.566 99.49H846.114C838.07 99.49 830.671 103.893 826.835 110.963V110.963Z" fill="#26D192"/>
<path d="M912.566 99.4868L856.262 198.456C854.262 201.964 849.803 203.194 846.294 201.201L834.271 194.369C837.202 194.841 840.252 193.493 841.804 190.761L893.742 99.4868H912.566Z" fill="#1EC186"/>
<path d="M974.174 151.976L953.883 111.58C950.161 104.168 942.576 99.4906 934.282 99.4906H875.616L920.659 175.911C920.512 175.978 920.363 176.044 920.215 176.11C917.382 177.386 917.498 181.451 920.398 182.564L959.294 197.501C961.096 198.193 963.118 197.293 963.81 195.491L978.804 156.445C979.914 153.557 977.002 150.77 974.174 151.976V151.976Z" fill="#72F4C3"/>
<path d="M978.806 156.443L963.808 195.488C963.119 197.295 961.094 198.195 959.293 197.5L947.524 192.979L961.554 156.443C962.351 154.371 961.077 152.353 959.25 151.823C957.509 151.319 956.023 150.179 955.21 148.56L936.631 111.579C932.911 104.17 925.328 99.4874 917.031 99.4874H934.284C942.575 99.4874 950.158 104.17 953.884 111.579L974.173 151.978C977.005 150.772 979.912 153.555 978.806 156.443V156.443Z" fill="#27E19D"/>
<path d="M934.978 307.721C934.432 305.479 931.538 304.517 929.772 306.283L899.372 336.684C898.159 337.896 898.159 339.862 899.372 341.075L929.889 371.592C931.643 373.345 934.507 372.41 935.083 370.204H979.961C988.223 370.204 995.784 365.562 999.522 358.193L1025.13 307.721H934.978V307.721Z" fill="#26D192"/>
<path d="M972.863 307.722L987.414 329.74C990.704 334.718 991.069 341.079 988.368 346.4L982.383 358.194C978.651 365.56 971.087 370.205 962.827 370.205H979.961C988.221 370.205 995.786 365.56 999.524 358.194L1025.13 307.722H972.863Z" fill="#1EC186"/>
<path d="M873.735 364.401V310.677C873.735 306.639 870.461 303.365 866.423 303.365H745.98L776.976 360.27C780.817 367.323 788.207 371.713 796.238 371.713H866.423C870.461 371.713 873.735 368.44 873.735 364.401V364.401Z" fill="#26D192"/>
<path d="M797.059 303.369L770.31 348.04L745.978 303.369H797.059Z" fill="#1EC186"/>
<path d="M873.732 310.678V364.404C873.732 368.441 870.459 371.714 866.422 371.714H847.238C851.275 371.714 854.548 368.441 854.548 364.404V310.678C854.548 306.641 851.275 303.368 847.238 303.368H866.422C870.459 303.368 873.732 306.641 873.732 310.678Z" fill="#1EC186"/>
<path d="M814.892 255.895L809.483 215.191C809.216 213.18 807.369 211.767 805.358 212.034L764.498 217.463C761.421 217.871 760.274 221.615 762.382 223.697L736.594 260.865C731.866 267.68 731.386 276.578 735.353 283.861L763.415 335.38L808.979 259.27C808.995 259.283 809.011 259.294 809.028 259.307C811.63 261.28 815.322 259.131 814.892 255.895V255.895Z" fill="#72F4C3"/>
<path d="M809.026 259.305C809.014 259.293 808.995 259.28 808.983 259.268L763.417 335.376L754.045 318.173L791.132 256.215L792.161 254.497C792.723 253.557 793.822 253.151 794.897 253.36C794.903 253.361 794.908 253.362 794.913 253.363C797.2 253.771 799.545 251.866 799.194 249.251L794.443 213.479L805.355 212.032C807.367 211.764 809.218 213.18 809.485 215.186L814.894 255.896C815.324 259.131 811.629 261.28 809.026 259.305V259.305Z" fill="#27E19D"/>
<path d="M1037.46 258.067L1002.18 206.955C1000.02 203.82 995.809 202.871 992.51 204.775L946.54 231.303C942.891 233.408 941.772 238.153 944.095 241.667L1008.9 339.713L1038.96 280.451C1042.6 273.277 1042.03 264.687 1037.46 258.067V258.067Z" fill="#72F4C3"/>
<path d="M1038.97 280.452L1008.9 339.711L998.809 324.446L1021.13 280.451C1024.77 273.278 1024.19 264.689 1019.62 258.069L985.594 208.77L992.512 204.777C995.81 202.871 1000.02 203.821 1002.18 206.957L1037.46 258.069C1042.03 264.69 1042.61 273.279 1038.97 280.452V280.452Z" fill="#27E19D"/>
<path d="M914.717 175C913.894 176.327 913.455 177.891 913.501 179.527C913.594 182.829 915.646 185.727 918.729 186.912L957.624 201.848C958.573 202.213 959.563 202.394 960.55 202.394C961.677 202.394 962.801 202.158 963.862 201.686C965.852 200.8 967.378 199.193 968.158 197.159L983.152 158.114C984.329 155.051 983.563 151.602 981.202 149.325C980.007 148.173 978.529 147.439 976.968 147.162L958.045 109.489C953.504 100.448 944.398 94.8321 934.282 94.8321H846.114C836.353 94.8321 827.397 100.162 822.741 108.741L793.322 162.95C790.235 168.637 792.301 175.867 797.928 179.065L843.992 205.248C845.853 206.307 847.882 206.809 849.885 206.809C854.052 206.809 858.107 204.634 860.31 200.761L874.298 176.174C875.57 173.938 874.789 171.094 872.553 169.822C870.317 168.55 867.473 169.33 866.201 171.567L852.213 196.155C851.489 197.426 849.866 197.873 848.594 197.149L802.53 170.966C801.283 170.257 800.825 168.655 801.509 167.393L830.928 113.184C833.953 107.61 839.772 104.148 846.113 104.148H872.955L889.036 131.431L877.232 152.18C875.96 154.416 876.741 157.26 878.977 158.532C879.704 158.946 880.495 159.142 881.276 159.142C882.896 159.142 884.471 158.296 885.329 156.787L894.49 140.684L914.717 175ZM934.282 104.148C940.854 104.148 946.77 107.796 949.721 113.67L970.011 154.066C970.757 155.551 972.197 156.472 973.75 156.615L959.879 192.736L924.137 179.01C924.568 178.526 924.899 177.953 925.099 177.322C925.5 176.059 925.344 174.686 924.672 173.546L883.768 104.148H934.282Z" fill="black"/>
<path d="M866.422 298.707H838.007C835.434 298.707 833.349 300.793 833.349 303.365C833.349 305.938 835.434 308.023 838.007 308.023H866.422C867.885 308.023 869.075 309.214 869.075 310.677V364.401C869.075 365.865 867.885 367.055 866.422 367.055H796.237C789.906 367.055 784.093 363.601 781.064 358.042L768.78 335.488L785.222 308.023H815.694C818.267 308.023 820.352 305.938 820.352 303.365C820.352 300.793 818.267 298.707 815.694 298.707H790.799L811.15 264.714C812.604 264.728 814.104 264.356 815.439 263.579C818.356 261.882 819.954 258.624 819.509 255.28L814.101 214.576C813.496 210.023 809.3 206.809 804.746 207.415L763.886 212.845C760.711 213.266 758.107 215.411 757.09 218.443C756.542 220.078 756.511 221.781 756.951 223.354L732.768 258.209C727.001 266.522 726.424 277.204 731.264 286.088L772.884 362.499C777.545 371.056 786.494 376.371 796.238 376.371H866.422C873.022 376.371 878.392 371.002 878.392 364.402V310.677C878.391 304.077 873.022 298.707 866.422 298.707V298.707ZM739.445 281.632C736.301 275.861 736.675 268.92 740.421 263.519L766.209 226.351C767.144 225.003 767.279 223.308 766.669 221.872L804.996 216.779L810.039 254.733C809.408 254.586 808.746 254.571 808.096 254.696C806.795 254.948 805.664 255.741 804.984 256.876L763.607 325.992L739.445 281.632Z" fill="black"/>
<path d="M1041.29 255.421L1006.02 204.31C1002.5 199.214 995.543 197.646 990.182 200.741L944.212 227.268C941.365 228.911 939.3 231.688 938.545 234.887C937.791 238.086 938.397 241.493 940.21 244.235L979.092 303.063H937.527C936.586 302.101 935.392 301.379 934.046 301.002C931.318 300.238 928.489 300.98 926.48 302.99L896.08 333.39C894.613 334.856 893.806 336.806 893.806 338.88C893.806 340.953 894.613 342.903 896.08 344.369L926.597 374.886C928.085 376.374 930.027 377.169 932.044 377.169C932.726 377.169 933.416 377.078 934.1 376.892C935.446 376.528 936.645 375.817 937.594 374.863H979.963C990.034 374.863 999.122 369.284 1003.68 360.302L1043.12 282.559C1047.54 273.853 1046.83 263.455 1041.29 255.421V255.421ZM1034.81 278.343L1008.37 330.463L1008 329.911C1006.58 327.765 1003.69 327.175 1001.55 328.593C999.403 330.012 998.813 332.901 1000.23 335.047L1003.52 340.021L995.368 356.086C992.408 361.922 986.504 365.547 979.96 365.547H935.082C933.815 365.547 932.643 366.058 931.792 366.907L903.762 338.878L931.655 310.986C932.509 311.854 933.693 312.378 934.977 312.378H985.248L987.942 316.454C989.36 318.601 992.25 319.19 994.396 317.772C996.542 316.354 997.132 313.464 995.713 311.318L947.98 239.098C947.43 238.266 947.513 237.442 947.611 237.026C947.709 236.609 948.003 235.836 948.868 235.337L994.837 208.81C996.027 208.123 997.568 208.471 998.348 209.601L1033.62 260.713C1037.23 265.932 1037.68 272.688 1034.81 278.343V278.343Z" fill="black"/>
</g>
<defs>
<clipPath id="clip0">
<rect width="318" height="318" fill="white" transform="translate(728 77)"/>
</clipPath>
</defs>
</svg>
